SplineFontDB: 3.0
FontName: Berenika-Book
FullName: Berenika Book
FamilyName: Berenika
Weight: Book
Copyright: Copyright (c) 2020-2024 by Wojciech Kalinowski "wmk69" with Reserved Font Name "Berenika-Book".\nThis Font Software is licensed under the SIL Open Font License, Version 1.1.
Version: 3.1.0; 2021-05-14
ItalicAngle: 0
UnderlinePosition: -80
UnderlineWidth: 200
Ascent: 1638
Descent: 410
InvalidEm: 0
LayerCount: 2
Layer: 0 1 "Warstwa t+AUIA-a" 1
Layer: 1 1 "Plan pierwszy" 0
XUID: [1021 783 23647091 10727182]
StyleMap: 0x0040
FSType: 0
OS2Version: 3
OS2_WeightWidthSlopeOnly: 0
OS2_UseTypoMetrics: 1
CreationTime: 1260698820
ModificationTime: 1620963068
PfmFamily: 17
TTFWeight: 400
TTFWidth: 5
LineGap: 300
VLineGap: 0
Panose: 2 1 5 2 5 5 8 6 2 4
OS2TypoAscent: 2000
OS2TypoAOffset: 0
OS2TypoDescent: -450
OS2TypoDOffset: 0
OS2TypoLinegap: 300
OS2WinAscent: 2000
OS2WinAOffset: 0
OS2WinDescent: 450
OS2WinDOffset: 0
HheadAscent: 2000
HheadAOffset: 0
HheadDescent: -450
HheadDOffset: 0
OS2SubXSize: 1434
OS2SubYSize: 1331
OS2SubXOff: 0
OS2SubYOff: 287
OS2SupXSize: 1434
OS2SupYSize: 1331
OS2SupXOff: 0
OS2SupYOff: 977
OS2StrikeYSize: 102
OS2StrikeYPos: 512
OS2CapHeight: 1510
OS2XHeight: 1100
OS2Vendor: '    '
OS2CodePages: 20000093.00000000
OS2UnicodeRanges: 8000002f.4000204b.00000000.00000000
Lookup: 258 0 0 "'kern' Horizontal Kerning lookup 0" { "'kern' Horizontal Kerning lookup 0-1 subtable" [307,0,4] } ['kern' ('DFLT' <'dflt' > 'grek' <'dflt' > 'latn' <'dflt' > ) ]
MarkAttachClasses: 1
DEI: 91125
KernClass2: 69 54 "'kern' Horizontal Kerning lookup 0-1 subtable"
 84 A Agrave Aacute Acircumflex Atilde Adieresis Aring Amacron Abreve Aogonek Aringacute
 17 B uni1E02 uni1E9E
 137 C E AE Ccedilla Egrave Eacute Ecircumflex Edieresis Cacute Ccircumflex Cdotaccent Ccaron Emacron Ebreve Edotaccent Eogonek Ecaron AEacute
 122 D O Q Eth Ograve Oacute Ocircumflex Otilde Odieresis Oslash Dcaron Dcroat Omacron Obreve Ohungarumlaut Oslashacute uni1E0A
 9 F uni1E1E

StartChar: .notdef
Encoding: 65536 -1 0
Width: 994
Flags: W
HStem: 0 68<260 734> 1442 68<260 734>
VStem: 150 110<68 1442> 734 110<68 1442>
LayerCount: 2
Fore
SplineSet
150 0 m 1,0,-1
 150 1510 l 1,1,-1
 844 1510 l 1,2,-1
 844 0 l 1,3,-1
 150 0 l 1,0,-1
260 68 m 1,4,-1
 734 68 l 1,5,-1
 734 1442 l 1,6,-1
 260 1442 l 1,7,-1
 260 68 l 1,4,-1
EndSplineSet
Validated: 1
EndChar

StartChar: exclam
Encoding: 33 33 4
Width: 740
GlyphClass: 2
Flags: W
HStem: -20 255<282.129 457.809> 1490 20G<250 490>
VStem: 244 252<19.2217 196.809> 315 110<353 608.181>
LayerCount: 2
Fore
SplineSet
250 1510 m 1,0,-1
 490 1510 l 1,1,-1
 425 353 l 1,2,-1
 315 353 l 1,3,-1
 250 1510 l 1,0,-1
370 -20 m 0,4,5
 317 -20 317 -20 281 18 c 0,6,7
 244 57 244 57 244 108 c 0,8,9
 244 157 244 157 281 197 c 24,10,11
 316 235 316 235 370 235 c 0,12,13
 422 235 422 235 459 198 c 0,14,15
 496 160 496 160 496 108 c 0,16,17
 496 55 496 55 459 17 c 24,18,19
 421 -20 421 -20 370 -20 c 0,4,5
EndSplineSet
Validated: 1
EndChar

StartChar: quotedbl
Encoding: 34 34 5
Width: 506
GlyphClass: 2
Flags: W
HStem: 1120 430<50 200 306 456>
VStem: 50 150<1120 1550> 306 150<1120 1550>
LayerCount: 2
Fore
SplineSet
306 1550 m 1,0,-1
 456 1550 l 1,1,-1
 456 1120 l 1,2,-1
 306 1120 l 1,3,-1
 306 1550 l 1,0,-1
50 1550 m 1,4,-1
 200 1550 l 1,5,-1
 200 1120 l 1,6,-1
 50 1120 l 1,7,-1
 50 1550 l 1,4,-1
EndSplineSet
Validated: 1
EndChar

StartChar: numbersign
Encoding: 35 35 6
Width: 1289
GlyphClass: 2
Flags: W
HStem: 500 120<150 390 510 780 900 1139> 890 120<150 390 510 780 900 1139>
VStem: 390 120<260 500 620 890 1010 1250> 780 120<260 500 620 890 1010 1250>
LayerCount: 2
Fore
SplineSet
390 1250 m 1,0,-1
 510 1250 l 1,1,-1
 510 1010 l 1,2,-1
 780 1010 l 1,3,-1
 780 1250 l 1,4,-1
 900 1250 l 1,5,-1
 900 1010 l 1,6,-1
 1139 1010 l 1,7,-1
 1139 890 l 1,8,-1
 900 890 l 1,9,-1
 900 620 l 1,10,-1
 1139 620 l 1,11,-1
 1139 500 l 1,12,-1
 900 500 l 1,13,-1
 900 260 l 1,14,-1
 780 260 l 1,15,-1
 780 500 l 1,16,-1
 510 500 l 1,17,-1
 510 260 l 1,18,-1
 390 260 l 1,19,-1
 390 500 l 1,20,-1
 150 500 l 1,21,-1
 150 620 l 1,22,-1
 390 620 l 1,23,-1
 390 890 l 1,24,-1
 150 890 l 1,25,-1
 150 1010 l 1,26,-1
 390 1010 l 1,27,-1
 390 1250 l 1,0,-1
780 890 m 1,28,-1
 510 890 l 1,29,-1
 510 620 l 1,30,-1
 780 620 l 1,31,-1
 780 890 l 1,28,-1
EndSplineSet
Validated: 1
EndChar

StartChar: dollar
Encoding: 36 36 7
Width: 1284
GlyphClass: 2
Flags: W
HStem: -20 120<434.168 653> -7 125<753 838.626> 1408 121<555.863 653 753 868.137>
VStem: 281 188<1077.48 1319.8> 653 100<-120 -19 118 711 985 1404 1525.01 1630> 980 204<292.665 593.067>
DStem2: 610 1006 518 823 0.903388 -0.428824<-152.016 47.851 255.687 492.231>
LayerCount: 2
Fore
SplineSet
617 -20 m 0,0,1
 309 -20 309 -20 100 206 c 1,2,-1
 257 293 l 1,3,4
 401 100 401 100 630 100 c 0,5,6
 642 100 642 100 653 101 c 1,7,-1
 653 759 l 1,8,-1
 518 823 l 2,9,10
 281 936 281 936 281 1149 c 0,11,12
 281 1316 281 1316 422 1430 c 0,13,14
 523 1512 523 1512 653 1527 c 1,15,-1
 653 1630 l 1,16,-1
 753 1630 l 1,17,-1
 753 1529 l 1,18,19
 937 1517 937 1517 1074 1391 c 1,20,-1
 938 1290 l 1,21,22
 868 1395 868 1395 753 1408 c 1,23,-1
 753 937 l 1,24,-1
 903 864 l 2,25,26
 1184 728 1184 728 1184 495 c 0,27,28
 1184 313 1184 313 1057 168 c 0,29,30
 935 29 935 29 753 -7 c 1,31,-1
 753 -120 l 1,32,-1
 653 -120 l 1,33,-1
 653 -19 l 1,34,35
 635 -20 635 -20 617 -20 c 0,0,1
653 985 m 1,36,-1
 653 1404 l 1,37,38
 582 1391 582 1391 535 1346 c 0,39,40
 469 1283 469 1283 469 1198 c 0,41,42
 469 1074 469 1074 610 1006 c 2,43,-1
 653 985 l 1,36,-1
753 711 m 1,44,-1
 753 118 l 1,45,46
 857 152 857 152 919 248 c 0,47,48
 980 343 980 343 980 454 c 0,49,50
 980 604 980 604 834 673 c 2,51,-1
 753 711 l 1,44,-1
EndSplineSet
Validated: 1
EndChar

StartChar: percent
Encoding: 37 37 8
Width: 1519
GlyphClass: 2
Flags: W
HStem: -20 93<929.693 1145.71> 0 21G<250 437.166> 513 93<962.295 1178.08> 904 93<340.923 556.705> 1437 93<373.295 589.307> 1490 20G<1081.83 1269>
VStem: 150 141<1051.26 1345.2> 639 141<1088.8 1382.74> 739 141<127.257 421.204> 1228 141<164.796 458.743>
DStem2: 250 0 426 0 0.487458 0.873146<85.7927 1729.38>
LayerCount: 2
Fore
SplineSet
1012 -20 m 0,0,1
 889 -20 889 -20 810 64 c 0,2,3
 739 139 739 139 739 253 c 0,4,5
 739 399 739 399 849 506 c 0,6,7
 952 606 952 606 1096 606 c 0,8,9
 1218 606 1218 606 1298 522 c 0,10,11
 1369 447 1369 447 1369 333 c 0,12,13
 1369 187 1369 187 1259 80 c 0,14,15
 1156 -20 1156 -20 1012 -20 c 0,0,1
1028 73 m 0,16,17
 1113 73 1113 73 1167 140 c 0,18,19
 1228 214 1228 214 1228 318 c 0,20,21
 1228 406 1228 406 1189 456 c 0,22,23
 1146 513 1146 513 1080 513 c 0,24,25
 995 513 995 513 941 446 c 0,26,27
 880 372 880 372 880 268 c 0,28,29
 880 180 880 180 919 130 c 0,30,31
 962 73 962 73 1028 73 c 0,16,17
507 1530 m 0,32,33
 630 1530 630 1530 709 1446 c 0,34,35
 780 1371 780 1371 780 1257 c 0,36,37
 780 1111 780 1111 670 1004 c 0,38,39
 567 904 567 904 423 904 c 0,40,41
 301 904 301 904 221 988 c 0,42,43
 150 1063 150 1063 150 1177 c 0,44,45
 150 1323 150 1323 260 1430 c 0,46,47
 363 1530 363 1530 507 1530 c 0,32,33
491 1437 m 0,48,49
 406 1437 406 1437 352 1370 c 0,50,51
 291 1296 291 1296 291 1192 c 0,52,53
 291 1104 291 1104 330 1054 c 0,54,55
 373 997 373 997 439 997 c 0,56,57
 524 997 524 997 578 1064 c 0,58,59
 639 1138 639 1138 639 1242 c 0,60,61
 639 1330 639 1330 600 1380 c 0,62,63
 557 1437 557 1437 491 1437 c 0,48,49
250 0 m 1,64,-1
 1093 1510 l 1,65,-1
 1269 1510 l 1,66,-1
 426 0 l 1,67,-1
 250 0 l 1,64,-1
EndSplineSet
Validated: 1
EndChar

StartChar: ampersand
Encoding: 38 38 9
Width: 1627
GlyphClass: 2
Flags: W
HStem: -20 120<506.066 911.028> 0 21G<1225.48 1464> 1415 115<613.858 865.241>
VStem: 150 215<251.913 649.72> 350 184<1076.93 1334.94> 1322 155<527.469 920.312>
DStem2: 710 1034 604 873 0.588832 -0.808255<62.6839 825.279 967.396 1147.82>
LayerCount: 2
Fore
SplineSet
1464 0 m 1,0,-1
 1240 0 l 1,1,-1
 1134 146 l 1,2,3
 922 -20 922 -20 637 -20 c 0,4,5
 418 -20 418 -20 277 119 c 0,6,7
 150 244 150 244 150 447 c 0,8,9
 150 624 150 624 279 794 c 0,10,11
 360 902 360 902 521 978 c 1,12,13
 350 1030 350 1030 350 1181 c 0,14,15
 350 1312 350 1312 464 1417 c 0,16,17
 586 1530 586 1530 770 1530 c 0,18,19
 916 1530 916 1530 1007 1452 c 0,20,21
 1047 1417 1047 1417 1069 1374 c 1,22,-1
 909 1292 l 1,23,24
 900 1344 900 1344 864 1376 c 0,25,26
 821 1415 821 1415 742 1415 c 0,27,28
 642 1415 642 1415 581 1339 c 0,29,30
 534 1280 534 1280 534 1189 c 0,31,32
 534 1116 534 1116 582 1073 c 0,33,34
 625 1034 625 1034 704 1034 c 2,35,-1
 710 1034 l 1,36,-1
 1196 367 l 1,37,38
 1322 532 1322 532 1322 742 c 0,39,40
 1322 906 1322 906 1191 1034 c 1,41,-1
 1391 1034 l 1,42,43
 1477 921 1477 921 1477 776 c 0,44,45
 1477 488 1477 488 1268 269 c 1,46,-1
 1464 0 l 1,0,-1
604 873 m 1,47,48
 528 836 528 836 470 762 c 0,49,50
 365 627 365 627 365 450 c 0,51,52
 365 296 365 296 445 198 c 128,-1,53
 525 100 525 100 669 100 c 0,54,55
 902 100 902 100 1070 233 c 1,56,-1
 604 873 l 1,47,48
EndSplineSet
Validated: 1
EndChar

StartChar: quotesingle
Encoding: 39 39 10
Width: 250
GlyphClass: 2
Flags: W
HStem: 1120 430<50 200>
VStem: 50 150<1120 1550>
LayerCount: 2
Fore
SplineSet
50 1550 m 1,0,-1
 200 1550 l 1,1,-1
 200 1120 l 1,2,-1
 50 1120 l 1,3,-1
 50 1550 l 1,0,-1
EndSplineSet
Validated: 1
EndChar

StartChar: parenleft
Encoding: 40 40 11
Width: 739
GlyphClass: 2
Flags: W
VStem: 200 209<358.913 1149.07>
LayerCount: 2
Fore
SplineSet
689 -250 m 1,0,1
 533 -250 l 1,2,3
 399 -62 399 -62 309 159 c 0,4,5
 200 425 200 425 200 755 c 128,-1,6
 200 1085 200 1085 309 1351 c 0,7,8
 398 1568 398 1568 533 1760 c 1,9,-1
 689 1760 l 1,10,11
 543 1535 543 1535 480 1297 c 0,12,13
 409 1031 409 1031 409 755 c 0,14,15
 409 469 409 469 480 213 c 0,16,17
 545 -20 545 -20 689 -250 c 1,0,1
EndSplineSet
Validated: 1
EndChar

StartChar: parenright
Encoding: 41 41 12
Width: 739
GlyphClass: 2
Flags: W
VStem: 330 209<358.913 1149.07>
LayerCount: 2
Fore
SplineSet
50 -250 m 1,0,1
 195 -19 195 -19 259 213 c 0,2,3
 330 469 330 469 330 755 c 0,4,5
 330 1031 330 1031 259 1297 c 0,6,7
 196 1534 196 1534 50 1760 c 1,8,-1
 206 1760 l 1,9,10
 339 1571 339 1571 430 1351 c 0,11,12
 539 1085 539 1085 539 755 c 128,-1,13
 539 425 539 425 430 159 c 0,14,15
 340 -61 340 -61 206 -250 c 1,16,-1
 50 -250 l 1,0,1
EndSplineSet
Validated: 1
EndChar

StartChar: asterisk
Encoding: 42 42 13
Width: 738
GlyphClass: 2
Flags: W
HStem: 883 667<309 429>
VStem: 309 120<883 1113 1320 1550>
DStem2: 110 1435 50 1331 0.866485 -0.499203<0 229.767 437.723 666.991> 50 1102 110 998 0.866485 0.499203<0.0719572 229.34 437.296 667.063>
LayerCount: 2
Fore
SplineSet
309 1550 m 1,0,-1
 429 1550 l 1,1,-1
 429 1320 l 1,2,-1
 628 1435 l 1,3,-1
 688 1331 l 1,4,-1
 489 1216 l 1,5,-1
 688 1102 l 1,6,-1
 628 998 l 1,7,-1
 429 1113 l 1,8,-1
 429 883 l 1,9,-1
 309 883 l 1,10,-1
 309 1113 l 1,11,-1
 110 998 l 1,12,-1
 50 1102 l 1,13,-1
 249 1216 l 1,14,-1
 50 1331 l 1,15,-1
 110 1435 l 1,16,-1
 309 1320 l 1,17,-1
 309 1550 l 1,0,-1
EndSplineSet
Validated: 1
EndChar

StartChar: plus
Encoding: 43 43 14
Width: 1180
GlyphClass: 2
Flags: W
HStem: 680 150<150 515 665 1030>
VStem: 515 150<315 680 830 1195>
LayerCount: 2
Fore
SplineSet
515 1195 m 1,0,-1
 665 1195 l 1,1,-1
 665 830 l 1,2,-1
 1030 830 l 1,3,-1
 1030 680 l 1,4,-1
 665 680 l 1,5,-1
 665 315 l 1,6,-1
 515 315 l 1,7,-1
 515 680 l 1,8,-1
 150 680 l 1,9,-1
 150 830 l 1,10,-1
 515 830 l 1,11,-1
 515 1195 l 1,0,-1
EndSplineSet
Validated: 1
EndChar

StartChar: comma
Encoding: 44 44 15
Width: 352
GlyphClass: 2
Flags: W
HStem: -270 485
VStem: 162 140<-134.998 65.12>
LayerCount: 2
Fore
SplineSet
130 215 m 1,0,1
 302 133 302 133 302 -22 c 0,2,3
 302 -188 302 -188 129 -270 c 1,4,-1
 47 -182 l 1,5,6
 161 -132 161 -132 162 -32 c 0,7,8
 162 66 162 66 42 108 c 1,9,-1
 130 215 l 1,0,1
EndSplineSet
Validated: 1
EndChar

StartChar: hyphen
Encoding: 45 45 16
Width: 1180
GlyphClass: 2
Flags: W
HStem: 680 150<150 1030>
LayerCount: 2
Fore
SplineSet
150 830 m 1,0,-1
 1030 830 l 1,1,-1
 1030 680 l 1,2,-1
 150 680 l 1,3,-1
 150 830 l 1,0,-1
EndSplineSet
Validated: 1
EndChar

StartChar: period
Encoding: 46 46 17
Width: 352
GlyphClass: 2
Flags: W
HStem: -20 255<88.1292 263.809>
VStem: 50 252<19.2217 196.809>
LayerCount: 2
Fore
SplineSet
176 -20 m 0,0,1
 123 -20 123 -20 87 18 c 0,2,3
 50 57 50 57 50 108 c 0,4,5
 50 157 50 157 87 197 c 24,6,7
 122 235 122 235 176 235 c 0,8,9
 228 235 228 235 265 198 c 0,10,11
 302 160 302 160 302 108 c 0,12,13
 302 55 302 55 265 17 c 24,14,15
 227 -20 227 -20 176 -20 c 0,0,1
EndSplineSet
Validated: 1
EndChar

StartChar: slash
Encoding: 47 47 18
Width: 1153
GlyphClass: 2
Flags: W
DStem2: 10 -130 214 -130 0.464736 0.885449<94.8061 1998.98>
LayerCount: 2
Fore
SplineSet
214 -130 m 1,0,-1
 10 -130 l 1,1,-1
 939 1640 l 1,2,-1
 1143 1640 l 1,3,-1
 214 -130 l 1,0,-1
EndSplineSet
Validated: 1
EndChar

StartChar: zero
Encoding: 48 48 19
Width: 1759
GlyphClass: 2
Flags: W
HStem: -20 120<605.003 1052.17> 1410 120<706.834 1154>
VStem: 100 220<420.134 939.165> 1439 220<570.835 1089.87>
LayerCount: 2
Fore
SplineSet
788 -20 m 0,0,1
 466 -20 466 -20 271 185 c 0,2,3
 100 365 100 365 100 648 c 0,4,5
 100 1044 100 1044 384 1306 c 0,6,7
 627 1530 627 1530 971 1530 c 0,8,9
 1293 1530 1293 1530 1488 1325 c 0,10,11
 1659 1145 1659 1145 1659 862 c 0,12,13
 1659 466 1659 466 1375 204 c 0,14,15
 1132 -20 1132 -20 788 -20 c 0,0,1
818 100 m 0,16,17
 1079 100 1079 100 1238 280 c 0,18,19
 1439 507 1439 507 1439 839 c 0,20,21
 1439 1071 1439 1071 1317 1233 c 0,22,23
 1185 1410 1185 1410 941 1410 c 0,24,25
 680 1410 680 1410 521 1230 c 0,26,27
 320 1003 320 1003 320 671 c 0,28,29
 320 439 320 439 442 277 c 0,30,31
 574 100 574 100 818 100 c 0,16,17
EndSplineSet
Validated: 1
EndChar

StartChar: one
Encoding: 49 49 20
Width: 700
GlyphClass: 2
Flags: W
HStem: 0 21G<250 450> 1390 120<40 250>
VStem: 250 200<0 1388.12>
LayerCount: 2
Fore
SplineSet
450 0 m 1,0,-1
 250 0 l 1,1,-1
 250 1390 l 1,2,-1
 40 1390 l 1,3,-1
 40 1510 l 1,4,-1
 354 1510 l 1,5,6
 450 1461 450 1461 450 1326 c 2,7,-1
 450 0 l 1,0,-1
EndSplineSet
Validated: 1
EndChar

StartChar: two
Encoding: 50 50 21
Width: 1343
GlyphClass: 2
Flags: W
HStem: 0 120<322 1130.08> 1105 21G<220.438 274> 1410 120<468.239 815.265>
VStem: 959 225<860.026 1256.33> 1183 10<238.098 250>
LayerCount: 2
Fore
SplineSet
120 0 m 1,0,-1
 120 120 l 1,1,2
 605 406 605 406 831 713 c 0,3,4
 959 887 959 887 959 1060 c 0,5,6
 959 1214 959 1214 877 1312 c 128,-1,7
 795 1410 795 1410 651 1410 c 0,8,9
 486 1410 486 1410 367 1294 c 0,10,11
 291 1220 291 1220 257 1105 c 1,12,-1
 140 1169 l 1,13,14
 184 1244 184 1244 219 1289 c 24,15,16
 405 1530 405 1530 697 1530 c 0,17,18
 916 1530 916 1530 1057 1391 c 0,19,20
 1184 1266 1184 1266 1184 1063 c 0,21,22
 1184 827 1184 827 1023 646 c 0,23,24
 743 329 743 329 322 120 c 1,25,-1
 1009 120 l 2,26,27
 1138 120 1138 120 1183 250 c 1,28,-1
 1193 250 l 1,29,-1
 1193 96 l 1,30,31
 1145 0 1145 0 1009 0 c 2,32,-1
 120 0 l 1,0,-1
EndSplineSet
Validated: 1
EndChar

StartChar: three
Encoding: 51 51 22
Width: 1320
GlyphClass: 2
Flags: W
HStem: -20 120<347.786 717.062> 910 124<564 737.316> 1410 120<516.526 772.27>
VStem: 818 192<1118.46 1367.52> 945 225<356.527 758.624>
LayerCount: 2
Fore
SplineSet
537 -20 m 0,0,1
 229 -20 229 -20 20 206 c 1,2,-1
 177 293 l 1,3,4
 321 100 321 100 536 100 c 0,5,6
 713 100 713 100 834 242 c 0,7,8
 945 372 945 372 945 555 c 0,9,10
 945 705 945 705 874 804 c 0,11,12
 799 910 799 910 653 910 c 0,13,14
 593 910 593 910 564 906 c 1,15,-1
 564 1034 l 1,16,17
 710 1034 710 1034 771 1110 c 0,18,19
 818 1169 818 1169 818 1255 c 0,20,21
 818 1328 818 1328 770 1371 c 0,22,23
 727 1410 727 1410 658 1410 c 0,24,25
 513 1410 513 1410 422 1263 c 1,26,-1
 311 1330 l 1,27,28
 465 1530 465 1530 686 1530 c 0,29,30
 832 1530 832 1530 923 1452 c 0,31,32
 1010 1376 1010 1376 1010 1263 c 0,33,34
 1010 1089 1010 1089 814 1004 c 1,35,36
 981 966 981 966 1072 858 c 0,37,38
 1170 743 1170 743 1170 568 c 0,39,40
 1170 329 1170 329 966 148 c 0,41,42
 777 -20 777 -20 537 -20 c 0,0,1
EndSplineSet
Validated: 1
EndChar

StartChar: four
Encoding: 52 52 23
Width: 1279
GlyphClass: 2
Flags: W
HStem: 0 21G<829 1029> 293 120<215 829> 1490 20G<579 981>
VStem: 829 200<0 293 413 1342.54>
LayerCount: 2
Fore
SplineSet
829 0 m 1,0,-1
 829 293 l 1,1,-1
 10 293 l 1,2,3
 329 988 329 988 829 1510 c 1,4,-1
 933 1510 l 1,5,6
 1029 1461 1029 1461 1029 1326 c 2,7,-1
 1029 0 l 1,8,-1
 829 0 l 1,0,-1
829 1345 m 1,9,10
 442 911 442 911 215 413 c 1,11,-1
 829 413 l 1,12,-1
 829 1345 l 1,9,10
EndSplineSet
Validated: 1
EndChar

StartChar: five
Encoding: 53 53 24
Width: 1380
GlyphClass: 2
Flags: W
HStem: -20 120<407.786 777.062> 910 120<531.121 869.089> 1390 120<522 1093>
VStem: 1005 225<356.527 758.624>
DStem2: 235 787 463 970 0.158417 0.987372<216.808 640.851>
LayerCount: 2
Fore
SplineSet
597 -20 m 0,0,1
 289 -20 289 -20 80 206 c 1,2,-1
 237 293 l 1,3,4
 381 100 381 100 596 100 c 0,5,6
 773 100 773 100 894 242 c 0,7,8
 1005 372 1005 372 1005 555 c 0,9,10
 1005 705 1005 705 934 804 c 0,11,12
 859 910 859 910 713 910 c 0,13,14
 547 910 547 910 424 787 c 1,15,-1
 235 787 l 1,16,-1
 351 1510 l 1,17,-1
 1093 1510 l 1,18,-1
 1093 1390 l 1,19,-1
 522 1390 l 1,20,-1
 463 970 l 1,21,22
 589 1030 589 1030 733 1030 c 0,23,24
 987 1030 987 1030 1132 858 c 0,25,26
 1230 743 1230 743 1230 568 c 0,27,28
 1230 329 1230 329 1026 148 c 0,29,30
 837 -20 837 -20 597 -20 c 0,0,1
EndSplineSet
Validated: 1
EndChar

StartChar: six
Encoding: 54 54 25
Width: 1490
GlyphClass: 2
Flags: W
HStem: -20 120<544.299 897.03> 910 120<625.716 982.385> 1410 120<756.605 1199.02>
VStem: 150 231<319.702 788.928> 1125 215<352.155 756.33>
LayerCount: 2
Fore
SplineSet
682 -20 m 0,0,1
 458 -20 458 -20 312 130 c 0,2,3
 150 297 150 297 150 586 c 0,4,5
 150 943 150 943 322 1180 c 0,6,7
 450 1356 450 1356 666 1460 c 0,8,9
 813 1530 813 1530 993 1530 c 0,10,11
 1136 1530 1136 1530 1263 1475 c 1,12,-1
 1176 1358 l 1,13,14
 1094 1410 1094 1410 984 1410 c 0,15,16
 857 1410 857 1410 757 1366 c 0,17,18
 585 1291 585 1291 478 1102 c 0,19,20
 401 966 401 966 375 789 c 1,21,22
 561 1030 561 1030 853 1030 c 0,23,24
 1072 1030 1072 1030 1213 891 c 0,25,26
 1340 766 1340 766 1340 563 c 0,27,28
 1340 372 1340 372 1211 216 c 0,29,30
 1016 -20 1016 -20 682 -20 c 0,0,1
710 100 m 0,31,32
 904 100 904 100 1020 248 c 0,33,34
 1125 383 1125 383 1125 560 c 0,35,36
 1125 714 1125 714 1043 812 c 128,-1,37
 961 910 961 910 817 910 c 0,38,39
 645 910 645 910 523 794 c 0,40,41
 381 658 381 658 381 469 c 0,42,43
 381 301 381 301 470 205 c 256,44,45
 566 100 566 100 710 100 c 0,31,32
EndSplineSet
Validated: 1
EndChar

StartChar: seven
Encoding: 55 55 26
Width: 1042
GlyphClass: 2
Flags: W
HStem: 0 21G<100 680> 1390 120<112.919 773>
VStem: 50 10<1260 1271.9> 773 219<1112.51 1390>
LayerCount: 2
Fore
SplineSet
100 0 m 1,0,1
 773 710 773 710 773 1390 c 1,2,-1
 234 1390 l 2,3,4
 105 1390 105 1390 60 1260 c 1,5,-1
 50 1260 l 1,6,-1
 50 1414 l 1,7,8
 98 1510 98 1510 234 1510 c 2,9,-1
 992 1510 l 1,10,11
 992 729 992 729 368 0 c 1,12,-1
 100 0 l 1,0,1
EndSplineSet
Validated: 1
EndChar

StartChar: eight
Encoding: 56 56 27
Width: 1445
GlyphClass: 2
Flags: W
HStem: -20 120<506.066 852.441> 910 124<590.319 831.859> 1415 115<613.858 865.241>
VStem: 150 215<251.913 649.72> 350 184<1076.93 1334.94> 912 182<1118.91 1372.95> 1080 215<352.155 758.087>
LayerCount: 2
Fore
SplineSet
704 1034 m 0,0,1
 804 1034 804 1034 865 1110 c 0,2,3
 912 1169 912 1169 912 1255 c 0,4,5
 912 1333 912 1333 864 1376 c 0,6,7
 821 1415 821 1415 742 1415 c 0,8,9
 642 1415 642 1415 581 1339 c 0,10,11
 534 1280 534 1280 534 1189 c 0,12,13
 534 1116 534 1116 582 1073 c 0,14,15
 625 1034 625 1034 704 1034 c 0,0,1
637 -20 m 0,16,17
 418 -20 418 -20 277 119 c 0,18,19
 150 244 150 244 150 447 c 0,20,21
 150 624 150 624 279 794 c 0,22,23
 360 902 360 902 521 978 c 1,24,25
 350 1030 350 1030 350 1181 c 0,26,27
 350 1312 350 1312 464 1417 c 0,28,29
 586 1530 586 1530 770 1530 c 0,30,31
 916 1530 916 1530 1007 1452 c 0,32,33
 1094 1376 1094 1376 1094 1263 c 0,34,35
 1094 1104 1094 1104 926 1018 c 1,36,37
 1073 984 1073 984 1168 891 c 0,38,39
 1295 766 1295 766 1295 563 c 0,40,41
 1295 372 1295 372 1166 216 c 0,42,43
 971 -20 971 -20 637 -20 c 0,16,17
669 100 m 0,44,45
 859 100 859 100 975 248 c 0,46,47
 1080 383 1080 383 1080 560 c 0,48,49
 1080 714 1080 714 1000 812 c 128,-1,50
 920 910 920 910 776 910 c 0,51,52
 586 910 586 910 470 762 c 0,53,54
 365 627 365 627 365 450 c 0,55,56
 365 296 365 296 445 198 c 128,-1,57
 525 100 525 100 669 100 c 0,44,45
EndSplineSet
Validated: 1
EndChar

StartChar: nine
Encoding: 57 57 28
Width: 1490
GlyphClass: 2
Flags: W
HStem: -20 120<290.978 733.395> 480 120<507.615 864.284> 1410 120<592.97 945.701>
VStem: 150 215<753.67 1157.85> 1109 231<721.072 1190.3>
LayerCount: 2
Fore
SplineSet
497 -20 m 0,0,1
 354 -20 354 -20 227 35 c 1,2,-1
 314 152 l 1,3,4
 396 100 396 100 506 100 c 0,5,6
 633 100 633 100 733 144 c 0,7,8
 905 219 905 219 1012 408 c 0,9,10
 1089 544 1089 544 1115 721 c 1,11,12
 929 480 929 480 637 480 c 0,13,14
 418 480 418 480 277 619 c 0,15,16
 150 744 150 744 150 947 c 0,17,18
 150 1138 150 1138 279 1294 c 0,19,20
 474 1530 474 1530 808 1530 c 0,21,22
 1032 1530 1032 1530 1178 1380 c 0,23,24
 1340 1213 1340 1213 1340 924 c 0,25,26
 1340 567 1340 567 1168 330 c 0,27,28
 1040 154 1040 154 824 50 c 0,29,30
 677 -20 677 -20 497 -20 c 0,0,1
780 1410 m 0,31,32
 586 1410 586 1410 470 1262 c 0,33,34
 365 1127 365 1127 365 950 c 0,35,36
 365 796 365 796 447 698 c 128,-1,37
 529 600 529 600 673 600 c 0,38,39
 845 600 845 600 967 716 c 0,40,41
 1109 852 1109 852 1109 1041 c 0,42,43
 1109 1209 1109 1209 1020 1305 c 256,44,45
 924 1410 924 1410 780 1410 c 0,31,32
EndSplineSet
Validated: 1
EndChar

StartChar: colon
Encoding: 58 58 29
Width: 352
GlyphClass: 2
Flags: W
HStem: -20 255<88.1292 263.809> 627 255<88.1292 263.809>
VStem: 50 252<19.2217 196.809 666.222 843.809>
LayerCount: 2
Fore
SplineSet
176 -20 m 0,0,1
 123 -20 123 -20 87 18 c 0,2,3
 50 57 50 57 50 108 c 0,4,5
 50 157 50 157 87 197 c 24,6,7
 122 235 122 235 176 235 c 0,8,9
 228 235 228 235 265 198 c 0,10,11
 302 160 302 160 302 108 c 0,12,13
 302 55 302 55 265 17 c 24,14,15
 227 -20 227 -20 176 -20 c 0,0,1
176 882 m 0,16,17
 228 882 228 882 265 845 c 0,18,19
 302 807 302 807 302 755 c 0,20,21
 302 702 302 702 265 664 c 24,22,23
 227 627 227 627 176 627 c 0,24,25
 123 627 123 627 87 665 c 0,26,27
 50 704 50 704 50 755 c 0,28,29
 50 804 50 804 87 844 c 24,30,31
 122 882 122 882 176 882 c 0,16,17
EndSplineSet
Validated: 1
EndChar

StartChar: semicolon
Encoding: 59 59 30
Width: 352
GlyphClass: 2
Flags: W
HStem: 627 255<88.1292 263.809>
VStem: 50 252<666.222 843.809> 162 140<-134.998 65.12>
LayerCount: 2
Fore
SplineSet
130 215 m 1,0,1
 302 133 302 133 302 -22 c 0,2,3
 302 -188 302 -188 129 -270 c 1,4,-1
 47 -182 l 1,5,6
 161 -132 161 -132 162 -32 c 0,7,8
 162 66 162 66 42 108 c 1,9,-1
 130 215 l 1,0,1
176 882 m 0,10,11
 228 882 228 882 265 845 c 0,12,13
 302 807 302 807 302 755 c 0,14,15
 302 702 302 702 265 664 c 24,16,17
 227 627 227 627 176 627 c 0,18,19
 123 627 123 627 87 665 c 0,20,21
 50 704 50 704 50 755 c 0,22,23
 50 804 50 804 87 844 c 24,24,25
 122 882 122 882 176 882 c 0,10,11
EndSplineSet
Validated: 1
EndChar

StartChar: less
Encoding: 60 60 31
Width: 1206
GlyphClass: 2
Flags: W
VStem: 150 126<680 830>
DStem2: 150 830 276 782 0.893591 0.448883<91.046 907.658> 276 782 150 680 0.892752 -0.450548<0 816.61>
LayerCount: 2
Fore
SplineSet
150 830 m 1,0,-1
 1006 1260 l 1,1,-1
 1006 1148 l 1,2,-1
 276 782 l 1,3,-1
 1006 416 l 1,4,-1
 1006 248 l 1,5,-1
 150 680 l 1,6,-1
 150 830 l 1,0,-1
EndSplineSet
Validated: 1
EndChar

StartChar: equal
Encoding: 61 61 32
Width: 1180
GlyphClass: 2
Flags: W
HStem: 505 150<150 1030> 855 150<150 1030>
LayerCount: 2
Fore
SplineSet
150 1005 m 1,0,-1
 1030 1005 l 1,1,-1
 1030 855 l 1,2,-1
 150 855 l 1,3,-1
 150 1005 l 1,0,-1
150 655 m 1,4,-1
 1030 655 l 1,5,-1
 1030 505 l 1,6,-1
 150 505 l 1,7,-1
 150 655 l 1,4,-1
EndSplineSet
Validated: 1
EndChar

StartChar: greater
Encoding: 62 62 33
Width: 1206
GlyphClass: 2
Flags: W
VStem: 930 126<678 828>
DStem2: 200 1260 200 1092 0.892752 -0.450548<75.692 892.302> 200 360 200 248 0.893591 0.448883<0 816.612>
LayerCount: 2
Fore
SplineSet
1056 678 m 1,0,-1
 200 248 l 1,1,-1
 200 360 l 1,2,-1
 930 726 l 1,3,-1
 200 1092 l 1,4,-1
 200 1260 l 1,5,-1
 1056 828 l 1,6,-1
 1056 678 l 1,0,-1
EndSplineSet
Validated: 1
EndChar

StartChar: question
Encoding: 63 63 34
Width: 1344
GlyphClass: 2
Flags: W
HStem: -20 255<539.129 714.809> 1105 21G<230.438 284> 1410 120<478.239 825.265>
VStem: 501 252<19.2217 196.809> 969 225<870.476 1256.33>
LayerCount: 2
Fore
SplineSet
627 -20 m 0,0,1
 574 -20 574 -20 538 18 c 0,2,3
 501 57 501 57 501 108 c 0,4,5
 501 157 501 157 538 197 c 24,6,7
 573 235 573 235 627 235 c 0,8,9
 679 235 679 235 716 198 c 0,10,11
 753 160 753 160 753 108 c 0,12,13
 753 55 753 55 716 17 c 24,14,15
 678 -20 678 -20 627 -20 c 0,0,1
707 1530 m 0,16,17
 926 1530 926 1530 1067 1391 c 0,18,19
 1194 1266 1194 1266 1194 1063 c 0,20,21
 1194 878 1194 878 1047 721 c 2,22,-1
 703 353 l 1,23,-1
 564 353 l 1,24,-1
 841 713 l 2,25,26
 969 879 969 879 969 1060 c 0,27,28
 969 1214 969 1214 887 1312 c 128,-1,29
 805 1410 805 1410 661 1410 c 0,30,31
 496 1410 496 1410 377 1294 c 0,32,33
 301 1220 301 1220 267 1105 c 1,34,-1
 150 1169 l 1,35,36
 194 1244 194 1244 229 1289 c 24,37,38
 415 1530 415 1530 707 1530 c 0,16,17
EndSplineSet
Validated: 1
EndChar

StartChar: at
Encoding: 64 64 35
Width: 1696
GlyphClass: 2
Flags: W
HStem: -430 100<640.213 1078.88> -20 100<837.297 1124.97> 0 10<1614.1 1626> 686 49<989.93 1197.57> 1006 114<754.939 1163.14>
VStem: 150 186<12.1895 532.138> 550 179<192.819 512.464> 1318 178<62.4312 184 307.898 829.181>
LayerCount: 2
Fore
SplineSet
1412 0 m 1,0,1
 1316 49 1316 49 1316 184 c 1,2,3
 1254 88 1254 88 1172 34 c 0,4,5
 1089 -20 1089 -20 960 -20 c 0,6,7
 784 -20 784 -20 674 75 c 0,8,9
 550 182 550 182 550 353 c 0,10,11
 550 531 550 531 702 640 c 0,12,13
 834 735 834 735 1012 735 c 0,14,15
 1146 735 1146 735 1241 696 c 1,16,-1
 1241 686 l 1,17,18
 1124 686 1124 686 1032 671 c 0,19,20
 894 649 894 649 813 564 c 0,21,22
 729 476 729 476 729 346 c 0,23,24
 729 237 729 237 799 159 c 0,25,26
 870 80 870 80 986 80 c 0,27,28
 1116 80 1116 80 1224 222 c 0,29,30
 1318 346 1318 346 1318 556 c 0,31,32
 1318 745 1318 745 1272 840 c 256,33,34
 1192 1006 1192 1006 987 1006 c 0,35,36
 721 1006 721 1006 535 810 c 0,37,38
 336 601 336 601 336 294 c 0,39,40
 336 1 336 1 480 -164 c 0,41,42
 626 -330 626 -330 843 -330 c 0,43,44
 1076 -330 1076 -330 1244 -181 c 1,45,-1
 1328 -253 l 1,46,47
 1122 -430 1122 -430 838 -430 c 0,48,49
 519 -430 519 -430 327 -233 c 0,50,51
 150 -51 150 -51 150 260 c 0,52,53
 150 640 150 640 449 904 c 0,54,55
 694 1120 694 1120 1006 1120 c 0,56,57
 1264 1120 1264 1120 1390 946 c 0,58,59
 1496 800 1496 800 1496 562 c 2,60,-1
 1496 184 l 2,61,62
 1496 54 1496 54 1626 10 c 1,63,-1
 1626 0 l 1,64,-1
 1412 0 l 1,0,1
EndSplineSet
Validated: 1
EndChar

StartChar: A
Encoding: 65 65 36
Width: 1537
GlyphClass: 2
Flags: W
HStem: 0 21G<5 144.649 1304.38 1532> 696 120<489 961> 1362 148<659 878>
DStem2: 5 0 136 0 0.397437 0.91763<52.0642 810.363 941.145 1535.97> 878 1510 725 1362 0.397437 -0.91763<75.0013 669.822 800.604 1558.51>
LayerCount: 2
Fore
SplineSet
5 0 m 1,0,-1
 659 1510 l 1,1,-1
 878 1510 l 1,2,-1
 1532 0 l 1,3,-1
 1313 0 l 1,4,-1
 1013 696 l 1,5,-1
 437 696 l 1,6,-1
 136 0 l 1,7,-1
 5 0 l 1,0,-1
961 816 m 1,8,-1
 725 1362 l 1,9,-1
 489 816 l 1,10,-1
 961 816 l 1,8,-1
EndSplineSet
Validated: 1
EndChar

StartChar: B
Encoding: 66 66 37
Width: 1499
GlyphClass: 2
Flags: W
HStem: -20 87<572.26 950.756> 0 21G<200 400> 1396 134<693.345 992.085> 1500 10<70 81.9019>
VStem: 200 200<0 1097.44 1216 1447.57> 1075 187<1039 1313.62> 1187 212<305.294 646.677>
LayerCount: 2
Fore
SplineSet
200 0 m 1,0,-1
 200 1326 l 2,1,2
 200 1456 200 1456 70 1500 c 1,3,-1
 70 1510 l 1,4,-1
 304 1510 l 1,5,6
 400 1461 400 1461 400 1326 c 2,7,-1
 400 1216 l 1,8,9
 473 1353 473 1353 610 1441.5 c 128,-1,10
 747 1530 747 1530 914 1530 c 0,11,12
 1067 1530 1067 1530 1162 1439 c 0,13,14
 1262 1343 1262 1343 1262 1202 c 0,15,16
 1262 986 1262 986 1004 848 c 1,17,18
 1170 848 1170 848 1276 760 c 0,19,20
 1399 658 1399 658 1399 494 c 0,21,22
 1399 329 1399 329 1281 199 c 0,23,24
 1082 -20 1082 -20 765 -20 c 0,25,26
 558 -20 558 -20 466 119 c 1,27,-1
 474 127 l 1,28,29
 582 67 582 67 726 67 c 0,30,31
 954 67 954 67 1079 200 c 0,32,33
 1187 315 1187 315 1187 473 c 0,34,35
 1187 619 1187 619 1102 695 c 0,36,37
 1020 768 1020 768 864 768 c 0,38,39
 748 768 748 768 640 755 c 1,40,-1
 640 765 l 1,41,42
 780 808 780 808 890 880 c 0,43,44
 1075 1001 1075 1001 1075 1178 c 0,45,46
 1075 1269 1075 1269 1018 1330 c 0,47,48
 957 1396 957 1396 835 1396 c 0,49,50
 661 1396 661 1396 539 1251 c 0,51,52
 400 1086 400 1086 400 873 c 2,53,-1
 400 0 l 1,54,-1
 200 0 l 1,0,-1
EndSplineSet
Validated: 1
EndChar

StartChar: C
Encoding: 67 67 38
Width: 1569
GlyphClass: 2
Flags: W
HStem: -20 120<599.576 1046.65> 1410 120<705.834 1152.58>
VStem: 100 218<420.134 939.165>
LayerCount: 2
Fore
SplineSet
788 -20 m 0,0,1
 466 -20 466 -20 271 185 c 0,2,3
 100 365 100 365 100 648 c 0,4,5
 100 1044 100 1044 384 1306 c 0,6,7
 627 1530 627 1530 971 1530 c 0,8,9
 1291 1530 1291 1530 1488 1323 c 1,10,-1
 1315 1233 l 1,11,12
 1183 1410 1183 1410 939 1410 c 0,13,14
 678 1410 678 1410 519 1230 c 0,15,16
 318 1003 318 1003 318 671 c 0,17,18
 318 439 318 439 440 277 c 0,19,20
 572 100 572 100 816 100 c 0,21,22
 1076 100 1076 100 1236 280 c 0,23,24
 1299 351 1299 351 1342 432 c 1,25,-1
 1489 327 l 1,26,27
 1442 264 1442 264 1375 202 c 0,28,29
 1134 -20 1134 -20 788 -20 c 0,0,1
EndSplineSet
Validated: 1
EndChar

StartChar: D
Encoding: 68 68 39
Width: 1736
GlyphClass: 2
Flags: W
HStem: -20 87<572.26 967.957> 0 21G<200 400> 1410 120<708.551 1130.37> 1500 10<70 81.9019>
VStem: 200 200<0 1094.59 1216 1447.57> 1416 220<574.342 1089.87>
LayerCount: 2
Fore
SplineSet
200 0 m 1,0,-1
 200 1326 l 2,1,2
 200 1456 200 1456 70 1500 c 1,3,-1
 70 1510 l 1,4,-1
 304 1510 l 1,5,6
 400 1461 400 1461 400 1326 c 2,7,-1
 400 1216 l 1,8,9
 486 1359 486 1359 620 1442 c 0,10,11
 761 1530 761 1530 948 1530 c 0,12,13
 1270 1530 1270 1530 1465 1325 c 0,14,15
 1636 1145 1636 1145 1636 862 c 0,16,17
 1636 466 1636 466 1352 204 c 0,18,19
 1109 -20 1109 -20 765 -20 c 0,20,21
 558 -20 558 -20 466 119 c 1,22,-1
 474 127 l 1,23,24
 582 67 582 67 726 67 c 0,25,26
 1023 67 1023 67 1215 280 c 0,27,28
 1416 503 1416 503 1416 839 c 0,29,30
 1416 1071 1416 1071 1294 1233 c 0,31,32
 1162 1410 1162 1410 913 1410 c 0,33,34
 699 1410 699 1410 549 1251 c 0,35,36
 400 1092 400 1092 400 873 c 2,37,-1
 400 0 l 1,38,-1
 200 0 l 1,0,-1
EndSplineSet
Validated: 1
EndChar

StartChar: E
Encoding: 69 69 40
Width: 1569
GlyphClass: 2
Flags: W
HStem: -20 120<599.576 1046.65> 696 120<326 1115> 1410 120<705.834 1152.58>
VStem: 100 218<424.304 696 816 935.722>
LayerCount: 2
Fore
SplineSet
788 -20 m 0,0,1
 466 -20 466 -20 271 185 c 0,2,3
 100 365 100 365 100 648 c 0,4,5
 100 1044 100 1044 384 1306 c 0,6,7
 627 1530 627 1530 971 1530 c 0,8,9
 1291 1530 1291 1530 1488 1323 c 1,10,-1
 1315 1233 l 1,11,12
 1183 1410 1183 1410 939 1410 c 0,13,14
 678 1410 678 1410 519 1230 c 0,15,16
 358 1048 358 1048 326 816 c 1,17,-1
 1115 816 l 1,18,-1
 1115 696 l 1,19,-1
 318 696 l 1,20,21
 318 439 318 439 440 277 c 0,22,23
 572 100 572 100 816 100 c 0,24,25
 1076 100 1076 100 1236 280 c 0,26,27
 1299 351 1299 351 1342 432 c 1,28,-1
 1489 327 l 1,29,30
 1442 264 1442 264 1375 202 c 0,31,32
 1134 -20 1134 -20 788 -20 c 0,0,1
EndSplineSet
Validated: 1
EndChar

StartChar: F
Encoding: 70 70 41
Width: 1338
GlyphClass: 2
Flags: W
HStem: 0 21G<200 400> 696 120<400 970> 1396 134<704.255 1056.05> 1500 10<70 81.9019>
VStem: 200 200<0 696 816 1094.59 1216 1447.57>
LayerCount: 2
Fore
SplineSet
200 0 m 1,0,-1
 200 1326 l 2,1,2
 200 1456 200 1456 70 1500 c 1,3,-1
 70 1510 l 1,4,-1
 304 1510 l 1,5,6
 400 1461 400 1461 400 1326 c 2,7,-1
 400 1216 l 1,8,9
 486 1359 486 1359 620 1442 c 0,10,11
 761 1530 761 1530 928 1530 c 0,12,13
 1146 1530 1146 1530 1268 1408 c 0,14,15
 1305 1371 1305 1371 1328 1321 c 1,16,-1
 1155 1217 l 1,17,18
 1138 1271 1138 1271 1104 1310 c 0,19,20
 1030 1396 1030 1396 891 1396 c 0,21,22
 685 1396 685 1396 549 1251 c 0,23,24
 400 1092 400 1092 400 873 c 2,25,-1
 400 816 l 1,26,-1
 970 816 l 1,27,-1
 970 696 l 1,28,-1
 400 696 l 1,29,-1
 400 0 l 1,30,-1
 200 0 l 1,0,-1
EndSplineSet
Validated: 1
EndChar

StartChar: G
Encoding: 71 71 42
Width: 1759
GlyphClass: 2
Flags: W
HStem: -20 120<605.003 1052.17> 696 120<1015 1429> 1410 120<706.834 1154>
VStem: 100 220<420.134 939.165>
LayerCount: 2
Fore
SplineSet
788 -20 m 0,0,1
 466 -20 466 -20 271 185 c 0,2,3
 100 365 100 365 100 648 c 0,4,5
 100 1044 100 1044 384 1306 c 0,6,7
 627 1530 627 1530 971 1530 c 0,8,9
 1293 1530 1293 1530 1488 1325 c 1,10,-1
 1317 1233 l 1,11,12
 1185 1410 1185 1410 941 1410 c 0,13,14
 680 1410 680 1410 521 1230 c 0,15,16
 320 1003 320 1003 320 671 c 0,17,18
 320 439 320 439 442 277 c 0,19,20
 574 100 574 100 818 100 c 0,21,22
 1079 100 1079 100 1238 280 c 0,23,24
 1394 456 1394 456 1429 696 c 1,25,-1
 1015 696 l 1,26,-1
 1015 816 l 1,27,-1
 1659 816 l 17,28,29
 1659 466 1659 466 1375 204 c 0,30,31
 1132 -20 1132 -20 788 -20 c 0,0,1
EndSplineSet
Validated: 1
EndChar

StartChar: H
Encoding: 72 72 43
Width: 1572
GlyphClass: 2
Flags: W
HStem: 0 10<1490.1 1502> 696 120<400 1172> 1500 10<70 81.9019>
VStem: 200 200<0 696 816 1447.57> 1172 200<62.4312 696 816 1510>
LayerCount: 2
Fore
SplineSet
200 0 m 1,0,-1
 200 1326 l 2,1,2
 200 1456 200 1456 70 1500 c 1,3,-1
 70 1510 l 1,4,-1
 304 1510 l 1,5,6
 400 1461 400 1461 400 1326 c 2,7,-1
 400 816 l 1,8,-1
 1172 816 l 1,9,-1
 1172 1510 l 1,10,-1
 1372 1510 l 1,11,-1
 1372 184 l 2,12,13
 1372 54 1372 54 1502 10 c 1,14,-1
 1502 0 l 1,15,-1
 1268 0 l 1,16,17
 1172 49 1172 49 1172 184 c 2,18,-1
 1172 696 l 1,19,-1
 400 696 l 1,20,-1
 400 0 l 1,21,-1
 200 0 l 1,0,-1
EndSplineSet
Validated: 1
EndChar

StartChar: I
Encoding: 73 73 44
Width: 600
GlyphClass: 2
Flags: W
HStem: 0 21G<200 400> 1500 10<70 81.9019>
VStem: 200 200<0 1447.57>
LayerCount: 2
Fore
SplineSet
200 0 m 1,0,-1
 200 1326 l 2,1,2
 200 1456 200 1456 70 1500 c 1,3,-1
 70 1510 l 1,4,-1
 304 1510 l 1,5,6
 400 1461 400 1461 400 1326 c 2,7,-1
 400 0 l 1,8,-1
 200 0 l 1,0,-1
EndSplineSet
Validated: 1
EndChar

StartChar: J
Encoding: 74 74 45
Width: 1220
GlyphClass: 2
Flags: W
HStem: -20 105<226.579 620.027> 1390 120<313.919 820>
VStem: 251 10<1260 1271.9> 820 200<315.026 1390>
LayerCount: 2
Fore
SplineSet
434 -20 m 0,0,1
 187 -20 187 -20 20 119 c 1,2,-1
 128 235 l 1,3,4
 208 85 208 85 415 85 c 0,5,6
 605 85 605 85 712 200 c 0,7,8
 820 315 820 315 820 523 c 2,9,-1
 820 1390 l 1,10,-1
 435 1390 l 2,11,12
 306 1390 306 1390 261 1260 c 1,13,-1
 251 1260 l 1,14,-1
 251 1414 l 1,15,16
 299 1510 299 1510 435 1510 c 2,17,-1
 1020 1510 l 1,18,-1
 1020 544 l 2,19,20
 1020 324 1020 324 890 180 c 0,21,22
 710 -20 710 -20 434 -20 c 0,0,1
EndSplineSet
Validated: 1
EndChar

StartChar: K
Encoding: 75 75 46
Width: 1496
GlyphClass: 2
Flags: W
HStem: 0 21G<200 400 1057.51 1396> 1500 10<70 81.9019>
VStem: 200 200<0 352 462 1447.57> 1081 315<0 315> 1117 184<907.121 1334.76>
DStem2: 843 462 637 378 0.767424 -0.641139<0 478.853>
LayerCount: 2
Fore
SplineSet
200 0 m 1,0,-1
 200 1326 l 2,1,2
 200 1456 200 1456 70 1500 c 1,3,-1
 70 1510 l 1,4,-1
 304 1510 l 1,5,6
 400 1461 400 1461 400 1326 c 2,7,-1
 400 462 l 1,8,9
 537 471 537 471 672 512 c 0,10,11
 900 580 900 580 1018 762 c 0,12,13
 1117 913 1117 913 1117 1101 c 0,14,15
 1117 1351 1117 1351 955 1510 c 1,16,-1
 1188 1510 l 1,17,18
 1301 1350 1301 1350 1301 1152 c 0,19,20
 1301 955 1301 955 1196 778 c 0,21,22
 1085 590 1085 590 843 462 c 1,23,-1
 1396 0 l 1,24,-1
 1081 0 l 1,25,-1
 637 378 l 1,26,27
 526 358 526 358 400 352 c 1,28,-1
 400 0 l 1,29,-1
 200 0 l 1,0,-1
EndSplineSet
Validated: 1
EndChar

StartChar: L
Encoding: 76 76 47
Width: 1048
GlyphClass: 2
Flags: W
HStem: 0 120<400 965.081> 1500 10<70 81.9019>
VStem: 200 200<120 1447.57> 1018 10<238.098 250>
LayerCount: 2
Fore
SplineSet
200 0 m 1,0,-1
 200 1326 l 2,1,2
 200 1456 200 1456 70 1500 c 1,3,-1
 70 1510 l 1,4,-1
 304 1510 l 1,5,6
 400 1461 400 1461 400 1326 c 2,7,-1
 400 120 l 1,8,-1
 844 120 l 2,9,10
 973 120 973 120 1018 250 c 1,11,-1
 1028 250 l 1,12,-1
 1028 96 l 1,13,14
 980 0 980 0 844 0 c 2,15,-1
 200 0 l 1,0,-1
EndSplineSet
Validated: 1
EndChar

StartChar: M
Encoding: 77 77 48
Width: 2510
GlyphClass: 2
Flags: W
HStem: 0 21G<200 400 1141 1341 1903 2128.5> 1396 134<691.312 1028.03 1604.53 1952.91> 1500 10<70 81.9019>
VStem: 200 200<0 1105.8 1216 1447.57> 1141 200<0 1122.04> 2190 220<533.723 1098.02>
LayerCount: 2
Fore
SplineSet
200 0 m 1,0,-1
 200 1326 l 2,1,2
 200 1456 200 1456 70 1500 c 1,3,-1
 70 1510 l 1,4,-1
 304 1510 l 1,5,6
 400 1461 400 1461 400 1326 c 2,7,-1
 400 1216 l 1,8,9
 489 1364 489 1364 610 1442 c 0,10,11
 745 1530 745 1530 908 1530 c 0,12,13
 1122 1530 1122 1530 1238 1408 c 0,14,15
 1307 1335 1307 1335 1327 1237 c 1,16,17
 1415 1376 1415 1376 1525 1445 c 0,18,19
 1663 1530 1663 1530 1819 1530 c 0,20,21
 2043 1530 2043 1530 2206 1368 c 0,22,23
 2410 1165 2410 1165 2410 852 c 0,24,25
 2410 578 2410 578 2291 348 c 0,26,27
 2201 174 2201 174 2056 0 c 1,28,-1
 1903 0 l 1,29,30
 2029 193 2029 193 2109.5 406.5 c 128,-1,31
 2190 620 2190 620 2190 831 c 0,32,33
 2190 1068 2190 1068 2076 1234 c 0,34,35
 1966 1396 1966 1396 1785 1396 c 0,36,37
 1595 1396 1595 1396 1465 1251 c 0,38,39
 1341 1113 1341 1113 1341 873 c 2,40,-1
 1341 0 l 1,41,-1
 1141 0 l 1,42,-1
 1141 1098 l 2,43,44
 1141 1229 1141 1229 1074 1310 c 0,45,46
 1004 1396 1004 1396 871 1396 c 0,47,48
 675 1396 675 1396 539 1251 c 0,49,50
 400 1103 400 1103 400 873 c 2,51,-1
 400 0 l 1,52,-1
 200 0 l 1,0,-1
EndSplineSet
Validated: 1
EndChar

StartChar: N
Encoding: 78 78 49
Width: 1614
GlyphClass: 2
Flags: W
HStem: 0 21G<200 400 1007 1232.5> 1396 134<691.77 1049.71> 1500 10<70 81.9019>
VStem: 200 200<0 1087.65 1216 1447.57> 1294 220<533.847 1104.28>
LayerCount: 2
Fore
SplineSet
200 0 m 1,0,-1
 200 1326 l 2,1,2
 200 1456 200 1456 70 1500 c 1,3,-1
 70 1510 l 1,4,-1
 304 1510 l 1,5,6
 400 1461 400 1461 400 1326 c 2,7,-1
 400 1216 l 1,8,9
 484 1354 484 1354 616 1444 c 0,10,11
 742 1530 742 1530 908 1530 c 0,12,13
 1147 1530 1147 1530 1310 1368 c 0,14,15
 1514 1165 1514 1165 1514 852 c 0,16,17
 1514 578 1514 578 1395 348 c 0,18,19
 1305 174 1305 174 1160 0 c 1,20,-1
 1007 0 l 1,21,22
 1133 193 1133 193 1214 407 c 0,23,24
 1294 620 1294 620 1294 831 c 0,25,26
 1294 1077 1294 1077 1180 1234 c 0,27,28
 1061 1396 1061 1396 877 1396 c 0,29,30
 674 1396 674 1396 549 1251 c 0,31,32
 400 1078 400 1078 400 873 c 2,33,-1
 400 0 l 1,34,-1
 200 0 l 1,0,-1
EndSplineSet
Validated: 1
EndChar

StartChar: O
Encoding: 79 79 50
Width: 1759
GlyphClass: 2
Flags: W
HStem: -20 120<605.003 1052.17> 1410 120<706.834 1154>
VStem: 100 220<420.134 939.165> 1439 220<570.835 1089.87>
LayerCount: 2
Fore
SplineSet
788 -20 m 0,0,1
 466 -20 466 -20 271 185 c 0,2,3
 100 365 100 365 100 648 c 0,4,5
 100 1044 100 1044 384 1306 c 0,6,7
 627 1530 627 1530 971 1530 c 0,8,9
 1293 1530 1293 1530 1488 1325 c 0,10,11
 1659 1145 1659 1145 1659 862 c 0,12,13
 1659 466 1659 466 1375 204 c 0,14,15
 1132 -20 1132 -20 788 -20 c 0,0,1
818 100 m 0,16,17
 1079 100 1079 100 1238 280 c 0,18,19
 1439 507 1439 507 1439 839 c 0,20,21
 1439 1071 1439 1071 1317 1233 c 0,22,23
 1185 1410 1185 1410 941 1410 c 0,24,25
 680 1410 680 1410 521 1230 c 0,26,27
 320 1003 320 1003 320 671 c 0,28,29
 320 439 320 439 442 277 c 0,30,31
 574 100 574 100 818 100 c 0,16,17
EndSplineSet
Validated: 1
EndChar

StartChar: P
Encoding: 80 80 51
Width: 1535
GlyphClass: 2
Flags: W
HStem: 0 21G<200 400> 360 87<576.093 940.797> 1396 134<693.821 1048.68> 1500 10<70 81.9019>
VStem: 200 200<0 1105.8 1216 1447.57> 1214 221<775.333 1228.17>
LayerCount: 2
Fore
SplineSet
200 0 m 1,0,-1
 200 1326 l 2,1,2
 200 1456 200 1456 70 1500 c 1,3,-1
 70 1510 l 1,4,-1
 304 1510 l 1,5,6
 400 1461 400 1461 400 1326 c 2,7,-1
 400 1216 l 1,8,9
 489 1364 489 1364 610 1442 c 0,10,11
 745 1530 745 1530 924 1530 c 0,12,13
 1148 1530 1148 1530 1284 1402 c 0,14,15
 1435 1260 1435 1260 1435 1032 c 0,16,17
 1435 702 1435 702 1191 499 c 0,18,19
 1025 360 1025 360 785 360 c 0,20,21
 558 360 558 360 466 499 c 1,22,-1
 474 507 l 1,23,24
 582 447 582 447 746 447 c 0,25,26
 942 447 942 447 1071 588 c 0,27,28
 1214 746 1214 746 1214 1018 c 0,29,30
 1214 1191 1214 1191 1131 1285 c 256,31,32
 1034 1396 1034 1396 865 1396 c 0,33,34
 675 1396 675 1396 539 1251 c 0,35,36
 400 1103 400 1103 400 873 c 2,37,-1
 400 0 l 1,38,-1
 200 0 l 1,0,-1
EndSplineSet
Validated: 1
EndChar

StartChar: Q
Encoding: 81 81 52
Width: 1759
GlyphClass: 2
Flags: W
HStem: -20 120<605.003 1050.59> 0 21G<1299.88 1611> 1410 120<706.834 1154>
VStem: 100 220<420.134 939.165> 1439 220<572.552 1089.87>
LayerCount: 2
Fore
SplineSet
838 387 m 1,0,-1
 1119 387 l 1,1,-1
 1245 288 l 1,2,3
 1439 513 1439 513 1439 839 c 0,4,5
 1439 1071 1439 1071 1317 1233 c 0,6,7
 1185 1410 1185 1410 941 1410 c 0,8,9
 680 1410 680 1410 521 1230 c 0,10,11
 320 1003 320 1003 320 671 c 0,12,13
 320 439 320 439 442 277 c 0,14,15
 574 100 574 100 818 100 c 0,16,17
 984 100 984 100 1108 172 c 1,18,-1
 838 387 l 1,0,-1
1611 0 m 1,19,-1
 1325 0 l 1,20,-1
 1217 86 l 1,21,22
 1030 -20 1030 -20 788 -20 c 0,23,24
 466 -20 466 -20 271 185 c 0,25,26
 100 365 100 365 100 648 c 0,27,28
 100 1044 100 1044 384 1306 c 0,29,30
 627 1530 627 1530 971 1530 c 0,31,32
 1293 1530 1293 1530 1488 1325 c 0,33,34
 1659 1145 1659 1145 1659 862 c 0,35,36
 1659 467 1659 467 1364 194 c 1,37,-1
 1611 0 l 1,19,-1
EndSplineSet
Validated: 1
EndChar

StartChar: R
Encoding: 82 82 53
Width: 1580
GlyphClass: 2
Flags: W
HStem: 0 21G<200 400 1114.91 1480> 1396 134<693.821 1048.68> 1500 10<70 81.9019>
VStem: 200 200<0 1105.8 1216 1447.57> 1142 338<0 338> 1214 221<780.657 1228.17>
DStem2: 959 381 1142 0 0.804547 -0.593889<0 373.504>
LayerCount: 2
Fore
SplineSet
200 0 m 1,0,-1
 200 1326 l 2,1,2
 200 1456 200 1456 70 1500 c 1,3,-1
 70 1510 l 1,4,-1
 304 1510 l 1,5,6
 400 1461 400 1461 400 1326 c 2,7,-1
 400 1216 l 1,8,9
 489 1364 489 1364 610 1442 c 0,10,11
 745 1530 745 1530 924 1530 c 0,12,13
 1148 1530 1148 1530 1284 1402 c 0,14,15
 1435 1260 1435 1260 1435 1032 c 0,16,17
 1435 710 1435 710 1191 499 c 0,18,19
 1102 422 1102 422 959 381 c 1,20,-1
 1480 0 l 1,21,-1
 1142 0 l 1,22,-1
 466 499 l 1,23,-1
 474 507 l 1,24,25
 582 447 582 447 746 447 c 0,26,27
 942 447 942 447 1071 588 c 0,28,29
 1214 746 1214 746 1214 1018 c 0,30,31
 1214 1191 1214 1191 1131 1285 c 256,32,33
 1034 1396 1034 1396 865 1396 c 0,34,35
 675 1396 675 1396 539 1251 c 0,36,37
 400 1103 400 1103 400 873 c 2,38,-1
 400 0 l 1,39,-1
 200 0 l 1,0,-1
EndSplineSet
Validated: 1
EndChar

StartChar: S
Encoding: 83 83 54
Width: 1284
GlyphClass: 2
Flags: W
HStem: -20 120<434.079 810.18> 1410 120<560.275 863.921>
VStem: 281 188<1080.8 1319.8> 980 204<292.665 588.122>
DStem2: 612 1009 518 823 0.898384 -0.43921<-157.438 499.206>
LayerCount: 2
Fore
SplineSet
617 -20 m 0,0,1
 309 -20 309 -20 100 206 c 1,2,-1
 257 293 l 1,3,4
 401 100 401 100 630 100 c 0,5,6
 824 100 824 100 919 248 c 0,7,8
 980 343 980 343 980 454 c 0,9,10
 980 597 980 597 833 669 c 2,11,-1
 518 823 l 2,12,13
 281 939 281 939 281 1149 c 0,14,15
 281 1316 281 1316 422 1430 c 0,16,17
 546 1530 546 1530 712 1530 c 0,18,19
 922 1530 922 1530 1074 1391 c 1,20,-1
 938 1290 l 1,21,22
 858 1410 858 1410 719 1410 c 0,23,24
 602 1410 602 1410 535 1346 c 0,25,26
 469 1283 469 1283 469 1198 c 0,27,28
 469 1078 469 1078 612 1009 c 2,29,-1
 905 867 l 2,30,31
 1184 732 1184 732 1184 495 c 0,32,33
 1184 313 1184 313 1057 168 c 0,34,35
 892 -20 892 -20 617 -20 c 0,0,1
EndSplineSet
Validated: 1
EndChar

StartChar: T
Encoding: 84 84 55
Width: 1160
GlyphClass: 2
Flags: W
HStem: 0 21G<480 680> 1390 120<82.9189 480 680 1140>
VStem: 20 10<1260 1271.9> 480 200<0 1390>
LayerCount: 2
Fore
SplineSet
480 0 m 1,0,-1
 480 1390 l 1,1,-1
 204 1390 l 2,2,3
 75 1390 75 1390 30 1260 c 1,4,-1
 20 1260 l 1,5,-1
 20 1414 l 1,6,7
 68 1510 68 1510 204 1510 c 2,8,-1
 1140 1510 l 1,9,-1
 1140 1390 l 1,10,-1
 680 1390 l 1,11,-1
 680 0 l 1,12,-1
 480 0 l 1,0,-1
EndSplineSet
Validated: 1
EndChar

StartChar: U
Encoding: 85 85 56
Width: 1614
GlyphClass: 2
Flags: W
HStem: -20 134<564.289 922.23> 0 10<1532.1 1544> 1490 20G<381.5 607 1214 1414>
VStem: 100 220<405.723 976.277> 1214 200<62.4312 294 422.352 1510>
LayerCount: 2
Fore
SplineSet
1310 0 m 1,0,1
 1214 49 1214 49 1214 184 c 2,2,-1
 1214 294 l 1,3,4
 1130 156 1130 156 998 66 c 0,5,6
 872 -20 872 -20 706 -20 c 0,7,8
 467 -20 467 -20 304 142 c 0,9,10
 100 345 100 345 100 658 c 0,11,12
 100 932 100 932 219 1162 c 0,13,14
 309 1336 309 1336 454 1510 c 1,15,-1
 607 1510 l 1,16,17
 481 1317 481 1317 400.5 1103.5 c 128,-1,18
 320 890 320 890 320 679 c 0,19,20
 320 433 320 433 434 276 c 0,21,22
 553 114 553 114 737 114 c 0,23,24
 940 114 940 114 1065 259 c 0,25,26
 1214 432 1214 432 1214 637 c 2,27,-1
 1214 1510 l 1,28,-1
 1414 1510 l 1,29,-1
 1414 184 l 2,30,31
 1414 54 1414 54 1544 10 c 1,32,-1
 1544 0 l 1,33,-1
 1310 0 l 1,0,1
EndSplineSet
Validated: 1
EndChar

StartChar: V
Encoding: 86 86 57
Width: 1637
GlyphClass: 2
Flags: W
HStem: 0 21G<650.338 1026> 1490 20G<5 237.653 1163 1469>
VStem: 1351 186<859.391 1307.31>
DStem2: 229 1510 5 1510 0.397437 -0.91763<0 1528.68>
LayerCount: 2
Fore
SplineSet
659 0 m 1,0,-1
 5 1510 l 1,1,-1
 229 1510 l 1,2,-1
 836 107 l 1,3,4
 1042 338 1042 338 1203 604 c 0,5,6
 1351 850 1351 850 1351 1102 c 0,7,8
 1351 1325 1351 1325 1163 1510 c 1,9,-1
 1401 1510 l 1,10,11
 1537 1358 1537 1358 1537 1120 c 0,12,13
 1537 860 1537 860 1366 598 c 0,14,15
 1174 304 1174 304 878 0 c 1,16,-1
 659 0 l 1,0,-1
EndSplineSet
Validated: 1
EndChar

StartChar: W
Encoding: 87 87 58
Width: 2443
GlyphClass: 2
Flags: W
HStem: -20 134<557.089 905.468 1449.94 1777.56> 1490 20G<381.5 607 1169 1369 1799 2124>
VStem: 100 220<411.984 976.277> 1169 200<387.959 1510> 2163 180<572.85 1092.74>
LayerCount: 2
Fore
SplineSet
691 -20 m 0,0,1
 467 -20 467 -20 304 142 c 0,2,3
 100 345 100 345 100 658 c 0,4,5
 100 932 100 932 219 1162 c 0,6,7
 309 1336 309 1336 454 1510 c 1,8,-1
 607 1510 l 1,9,10
 481 1317 481 1317 400.5 1103.5 c 128,-1,11
 320 890 320 890 320 679 c 0,12,13
 320 442 320 442 434 276 c 0,14,15
 544 114 544 114 725 114 c 0,16,17
 915 114 915 114 1045 259 c 0,18,19
 1169 397 1169 397 1169 637 c 2,20,-1
 1169 1510 l 1,21,-1
 1369 1510 l 1,22,-1
 1369 412 l 2,23,24
 1369 266 1369 266 1411 202 c 0,25,26
 1469 114 1469 114 1584 114 c 0,27,28
 1824 114 1824 114 1979 295 c 0,29,30
 2163 510 2163 510 2163 838 c 0,31,32
 2163 1053 2163 1053 2048 1234 c 0,33,34
 1955 1380 1955 1380 1799 1510 c 1,35,-1
 2071 1510 l 1,36,37
 2177 1418 2177 1418 2249 1280 c 0,38,39
 2343 1100 2343 1100 2343 862 c 0,40,41
 2343 466 2343 466 2059 204 c 0,42,43
 1816 -20 1816 -20 1547 -20 c 0,44,45
 1323 -20 1323 -20 1234 129 c 0,46,47
 1195 194 1195 194 1183 273 c 1,48,49
 1095 134 1095 134 985 65 c 0,50,51
 847 -20 847 -20 691 -20 c 0,0,1
EndSplineSet
Validated: 1
EndChar

StartChar: X
Encoding: 88 88 59
Width: 1361
GlyphClass: 2
Flags: W
HStem: 0 21G<5 206.405 1092.41 1356> 1490 20G<5 268.588 1001 1255.5>
VStem: 5 249<1261 1510> 5 179<0 179> 1107 249<0 249> 1115 175<1040.4 1416.03>
DStem2: 254 1510 5 1510 0.589507 -0.807763<0 960.485 1104.92 1722.57> 5 0 184 0 0.743016 0.669273<133 882.313>
LayerCount: 2
Fore
SplineSet
5 0 m 1,0,-1
 670 599 l 1,1,-1
 5 1510 l 1,2,-1
 254 1510 l 1,3,-1
 820 734 l 1,4,5
 989 888 989 888 1062 1022 c 0,6,7
 1115 1120 1115 1120 1115 1242 c 0,8,9
 1115 1390 1115 1390 1001 1510 c 1,10,-1
 1221 1510 l 1,11,12
 1290 1400 1290 1400 1290 1262 c 0,13,14
 1290 1103 1290 1103 1214 981 c 0,15,16
 1127 840 1127 840 894 633 c 1,17,-1
 1356 0 l 1,18,-1
 1107 0 l 1,19,-1
 743 499 l 1,20,-1
 184 0 l 1,21,-1
 5 0 l 1,0,-1
EndSplineSet
Validated: 1
EndChar

StartChar: Y
Encoding: 89 89 60
Width: 1403
GlyphClass: 2
Flags: W
HStem: 0 21G<573 773> 1490 20G<5 239.276 976 1252>
VStem: 573 200<0 416> 1122 181<1001.91 1375.61>
DStem2: 229 1510 5 1510 0.460791 -0.887509<0 1100.65>
LayerCount: 2
Fore
SplineSet
573 0 m 1,0,-1
 573 416 l 1,1,-1
 5 1510 l 1,2,-1
 229 1510 l 1,3,-1
 732 531 l 1,4,5
 900 686 900 686 1001 830 c 0,6,7
 1122 1002 1122 1002 1122 1204 c 0,8,9
 1122 1366 1122 1366 976 1510 c 1,10,-1
 1201 1510 l 1,11,12
 1303 1396 1303 1396 1303 1218 c 0,13,14
 1303 1015 1303 1015 1155 826 c 0,15,16
 1011 642 1011 642 773 416 c 1,17,-1
 773 0 l 1,18,-1
 573 0 l 1,0,-1
EndSplineSet
Validated: 1
EndChar

StartChar: Z
Encoding: 90 90 61
Width: 1390
GlyphClass: 2
Flags: W
HStem: 0 120<400 1167.08> 1390 120<212.919 1011>
VStem: 150 10<1260 1271.9> 1011 219<1161.5 1390> 1220 10<238.098 250>
LayerCount: 2
Fore
SplineSet
70 0 m 1,0,-1
 70 120 l 1,1,2
 1011 713 1011 713 1011 1390 c 1,3,-1
 334 1390 l 2,4,5
 205 1390 205 1390 160 1260 c 1,6,-1
 150 1260 l 1,7,-1
 150 1414 l 1,8,9
 198 1510 198 1510 334 1510 c 2,10,-1
 1230 1510 l 1,11,12
 1230 685 1230 685 400 120 c 1,13,-1
 1046 120 l 2,14,15
 1175 120 1175 120 1220 250 c 1,16,-1
 1230 250 l 1,17,-1
 1230 96 l 1,18,19
 1182 0 1182 0 1046 0 c 2,20,-1
 70 0 l 1,0,-1
EndSplineSet
Validated: 1
EndChar

StartChar: bracketleft
Encoding: 91 91 62
Width: 853
GlyphClass: 2
Flags: W
HStem: -250 120<400 803> 1640 120<400 803>
VStem: 200 200<-130 1640>
LayerCount: 2
Fore
SplineSet
200 -250 m 5,0,-1
 200 1760 l 1,1,-1
 803 1760 l 1,2,-1
 803 1640 l 1,3,-1
 400 1640 l 1,4,-1
 400 -130 l 1,5,-1
 803 -130 l 1,6,-1
 803 -250 l 1,7,-1
 200 -250 l 5,0,-1
EndSplineSet
Validated: 1
EndChar

StartChar: backslash
Encoding: 92 92 63
Width: 1153
GlyphClass: 2
Flags: W
DStem2: 214 1640 10 1640 0.464736 -0.885449<0 1904.18>
LayerCount: 2
Fore
SplineSet
939 -130 m 1,0,-1
 10 1640 l 1,1,-1
 214 1640 l 1,2,-1
 1143 -130 l 1,3,-1
 939 -130 l 1,0,-1
EndSplineSet
Validated: 1
EndChar

StartChar: bracketright
Encoding: 93 93 64
Width: 853
GlyphClass: 2
Flags: W
HStem: -250 120<50 453> 1640 120<50 453>
VStem: 453 200<-130 1640>
LayerCount: 2
Fore
SplineSet
653 -250 m 1,0,-1
 50 -250 l 1,1,-1
 50 -130 l 1,2,-1
 453 -130 l 1,3,-1
 453 1640 l 1,4,-1
 50 1640 l 1,5,-1
 50 1760 l 1,6,-1
 653 1760 l 1,7,-1
 653 -250 l 1,0,-1
EndSplineSet
Validated: 1
EndChar

StartChar: asciicircum
Encoding: 94 94 65
Width: 976
GlyphClass: 2
Flags: W
HStem: 1120 390
VStem: 50 133<1120 1253> 725 201<1120 1321>
DStem2: 50 1120 183 1120 0.66472 0.747092<88.4078 496.493> 579 1510 453 1426 0.66472 -0.747092<0 388.415>
LayerCount: 2
Fore
SplineSet
397 1510 m 1,0,-1
 579 1510 l 1,1,-1
 926 1120 l 1,2,-1
 725 1120 l 1,3,-1
 453 1426 l 1,4,-1
 183 1120 l 1,5,-1
 50 1120 l 1,6,-1
 397 1510 l 1,0,-1
EndSplineSet
Validated: 1
EndChar

StartChar: underscore
Encoding: 95 95 66
Width: 1183
GlyphClass: 2
Flags: W
HStem: -410 100<150 1033>
LayerCount: 2
Fore
SplineSet
1033 -410 m 1,0,-1
 150 -410 l 1,1,-1
 150 -310 l 1,2,-1
 1033 -310 l 1,3,-1
 1033 -410 l 1,0,-1
EndSplineSet
Validated: 1
EndChar

StartChar: grave
Encoding: 96 96 67
Width: 418
GlyphClass: 2
Flags: W
HStem: 1160 370
VStem: 50 318
LayerCount: 2
Fore
SplineSet
194 1530 m 1,0,-1
 368 1227 l 1,1,-1
 273 1160 l 1,2,-1
 50 1428 l 1,3,-1
 194 1530 l 1,0,-1
EndSplineSet
Validated: 1
EndChar

StartChar: a
Encoding: 97 97 68
Width: 1325
GlyphClass: 2
Flags: W
HStem: -20 87<483.43 755.006> 0 10<1243.1 1255> 1020 100<540.91 853.515>
VStem: 100 201<260.829 709.842> 945 180<62.4312 918.312>
LayerCount: 2
Fore
SplineSet
1041 0 m 1,0,1
 945 49 945 49 945 184 c 2,2,-1
 945 711 l 2,3,4
 945 854 945 854 895 929 c 0,5,6
 833 1020 833 1020 719 1020 c 0,7,8
 542 1020 542 1020 429 878 c 0,9,10
 301 719 301 719 301 497 c 0,11,12
 301 304 301 304 382 201 c 0,13,14
 488 67 488 67 641 67 c 0,15,16
 729 67 729 67 813 91 c 1,17,-1
 821 83 l 1,18,19
 741 -20 741 -20 597 -20 c 0,20,21
 372 -20 372 -20 227 133 c 0,22,23
 100 267 100 267 100 477 c 0,24,25
 100 742 100 742 299 939 c 0,26,27
 482 1120 482 1120 737 1120 c 0,28,29
 913 1120 913 1120 1011 1024 c 0,30,31
 1125 912 1125 912 1125 711 c 2,32,-1
 1125 184 l 2,33,34
 1125 54 1125 54 1255 10 c 1,35,-1
 1255 0 l 1,36,-1
 1041 0 l 1,0,1
EndSplineSet
Validated: 1
EndChar

StartChar: b
Encoding: 98 98 69
Width: 1325
GlyphClass: 2
Flags: W
HStem: -20 100<471.485 784.09> 1033 87<569.994 841.57> 1500 10<70 81.9019>
VStem: 200 180<181.688 1447.57> 1024 201<390.158 839.171>
LayerCount: 2
Fore
SplineSet
588 -20 m 0,0,1
 412 -20 412 -20 314 76 c 0,2,3
 200 188 200 188 200 389 c 2,4,-1
 200 1326 l 2,5,6
 200 1456 200 1456 70 1500 c 1,7,-1
 70 1510 l 1,8,-1
 284 1510 l 1,9,10
 380 1461 380 1461 380 1326 c 2,11,-1
 380 389 l 2,12,13
 380 246 380 246 430 171 c 0,14,15
 492 80 492 80 606 80 c 0,16,17
 783 80 783 80 896 222 c 0,18,19
 1024 381 1024 381 1024 603 c 0,20,21
 1024 796 1024 796 943 899 c 0,22,23
 837 1033 837 1033 684 1033 c 0,24,25
 596 1033 596 1033 512 1009 c 1,26,-1
 504 1017 l 1,27,28
 584 1120 584 1120 728 1120 c 0,29,30
 953 1120 953 1120 1098 967 c 0,31,32
 1225 833 1225 833 1225 623 c 0,33,34
 1225 358 1225 358 1026 161 c 0,35,36
 843 -20 843 -20 588 -20 c 0,0,1
EndSplineSet
Validated: 1
EndChar

StartChar: c
Encoding: 99 99 70
Width: 1201
GlyphClass: 2
Flags: W
HStem: -20 100<463.008 800.606> 1020 100<543.63 875.037>
VStem: 100 201<264.213 709.842>
LayerCount: 2
Fore
SplineSet
597 -20 m 0,0,1
 372 -20 372 -20 227 133 c 0,2,3
 100 267 100 267 100 477 c 0,4,5
 100 742 100 742 299 939 c 0,6,7
 482 1120 482 1120 747 1120 c 0,8,9
 972 1120 972 1120 1117 967 c 1,10,-1
 969 890 l 1,11,12
 867 1020 867 1020 729 1020 c 0,13,14
 542 1020 542 1020 429 878 c 0,15,16
 301 719 301 719 301 497 c 0,17,18
 301 308 301 308 382 201 c 0,19,20
 475 80 475 80 615 80 c 0,21,22
 801 80 801 80 915 222 c 0,23,24
 960 278 960 278 989 341 c 1,25,-1
 1121 248 l 1,26,27
 1087 203 1087 203 1045 161 c 0,28,29
 864 -20 864 -20 597 -20 c 0,0,1
EndSplineSet
Validated: 1
EndChar

StartChar: d
Encoding: 100 100 71
Width: 1391
GlyphClass: 2
Flags: W
HStem: -20 108<456.283 782.723> 0 10<1309.1 1321> 1033 87<568.856 875.006> 1500 10<881 892.902>
VStem: 100 201<264.213 709.842> 1011 180<62.4312 234 345.222 1447.57>
LayerCount: 2
Fore
SplineSet
1107 0 m 1,0,1
 1011 49 1011 49 1011 184 c 2,2,-1
 1011 234 l 1,3,4
 939 115 939 115 840 49 c 0,5,6
 738 -20 738 -20 597 -20 c 0,7,8
 372 -20 372 -20 227 133 c 0,9,10
 100 267 100 267 100 477 c 0,11,12
 100 742 100 742 299 939 c 0,13,14
 482 1120 482 1120 717 1120 c 0,15,16
 861 1120 861 1120 941 1017 c 1,17,-1
 933 1009 l 1,18,19
 849 1033 849 1033 761 1033 c 0,20,21
 554 1033 554 1033 429 878 c 0,22,23
 301 719 301 719 301 497 c 0,24,25
 301 308 301 308 382 201 c 0,26,27
 467 88 467 88 615 88 c 0,28,29
 755 88 755 88 857 188 c 0,30,31
 1011 340 1011 340 1011 559 c 2,32,-1
 1011 1326 l 2,33,34
 1011 1456 1011 1456 881 1500 c 1,35,-1
 881 1510 l 1,36,-1
 1095 1510 l 1,37,38
 1191 1461 1191 1461 1191 1326 c 2,39,-1
 1191 184 l 2,40,41
 1191 54 1191 54 1321 10 c 1,42,-1
 1321 0 l 1,43,-1
 1107 0 l 1,0,1
EndSplineSet
Validated: 1
EndChar

StartChar: e
Encoding: 101 101 72
Width: 1184
GlyphClass: 2
Flags: W
HStem: -20 100<463.008 800.853> 500 100<308 832> 1020 100<543.63 875.037>
VStem: 100 201<264.797 500 600 710.496>
CounterMasks: 1 e0
LayerCount: 2
Fore
SplineSet
597 -20 m 0,0,1
 372 -20 372 -20 227 133 c 0,2,3
 100 267 100 267 100 477 c 0,4,5
 100 742 100 742 299 939 c 0,6,7
 482 1120 482 1120 747 1120 c 0,8,9
 972 1120 972 1120 1117 967 c 1,10,-1
 969 890 l 1,11,12
 867 1020 867 1020 729 1020 c 0,13,14
 542 1020 542 1020 429 878 c 0,15,16
 331 756 331 756 308 600 c 1,17,-1
 832 600 l 1,18,-1
 832 500 l 1,19,-1
 301 500 l 1,20,21
 301 308 301 308 382 201 c 0,22,23
 475 80 475 80 615 80 c 0,24,25
 802 80 802 80 915 222 c 0,26,27
 960 278 960 278 989 341 c 1,28,-1
 1121 248 l 1,29,30
 1087 203 1087 203 1045 161 c 0,31,32
 864 -20 864 -20 597 -20 c 0,0,1
EndSplineSet
Validated: 1
EndChar

StartChar: f
Encoding: 102 102 73
Width: 1099
GlyphClass: 2
Flags: W
HStem: 0 21G<200 380> 706 100<100 200 380 852> 1430 100<638.189 1023.12>
VStem: 200 180<0 706 806 1120.5>
LayerCount: 2
Fore
SplineSet
200 0 m 1,0,-1
 200 706 l 1,1,-1
 100 706 l 1,2,-1
 100 806 l 1,3,-1
 200 806 l 1,4,-1
 200 887 l 2,5,6
 200 1152 200 1152 399 1349 c 0,7,8
 583 1530 583 1530 847 1530 c 0,9,10
 983 1530 983 1530 1089 1475 c 1,11,-1
 1008 1366 l 1,12,13
 931 1430 931 1430 829 1430 c 0,14,15
 640 1430 640 1430 519 1292 c 0,16,17
 380 1134 380 1134 380 806 c 1,18,-1
 852 806 l 1,19,-1
 852 706 l 1,20,-1
 380 706 l 1,21,-1
 380 0 l 1,22,-1
 200 0 l 1,0,-1
EndSplineSet
Validated: 1
EndChar

StartChar: g
Encoding: 103 103 74
Width: 1325
GlyphClass: 2
Flags: W
HStem: -430 100<301.877 686.811> -20 87<483.43 755.006> 1020 100<540.91 853.515>
VStem: 100 201<260.829 709.842> 945 180<-18.0564 918.312>
LayerCount: 2
Fore
SplineSet
597 -20 m 0,0,1
 372 -20 372 -20 227 133 c 0,2,3
 100 267 100 267 100 477 c 0,4,5
 100 742 100 742 299 939 c 0,6,7
 482 1120 482 1120 737 1120 c 0,8,9
 913 1120 913 1120 1011 1024 c 0,10,11
 1125 912 1125 912 1125 711 c 2,12,-1
 1125 213 l 2,13,14
 1125 -52 1125 -52 926 -249 c 0,15,16
 742 -430 742 -430 478 -430 c 0,17,18
 342 -430 342 -430 236 -375 c 1,19,-1
 317 -266 l 1,20,21
 394 -330 394 -330 496 -330 c 0,22,23
 685 -330 685 -330 806 -192 c 0,24,25
 945 -34 945 -34 945 213 c 2,26,-1
 945 711 l 2,27,28
 945 854 945 854 895 929 c 0,29,30
 833 1020 833 1020 719 1020 c 0,31,32
 542 1020 542 1020 429 878 c 0,33,34
 301 719 301 719 301 497 c 0,35,36
 301 304 301 304 382 201 c 0,37,38
 488 67 488 67 641 67 c 0,39,40
 729 67 729 67 813 91 c 1,41,-1
 821 83 l 1,42,43
 741 -20 741 -20 597 -20 c 0,0,1
EndSplineSet
Validated: 1
EndChar

StartChar: h
Encoding: 104 104 75
Width: 1345
GlyphClass: 2
Flags: W
HStem: 0 21G<200 380 813 1018.5> 1000 120<575.743 888.391> 1500 10<70 81.9019>
VStem: 200 180<0 761.203 887 1447.57> 1043 202<366.254 814.58>
LayerCount: 2
Fore
SplineSet
200 0 m 1,0,-1
 200 1326 l 2,1,2
 200 1456 200 1456 70 1500 c 1,3,-1
 70 1510 l 1,4,-1
 284 1510 l 1,5,6
 380 1461 380 1461 380 1326 c 2,7,-1
 380 887 l 1,8,9
 443 990 443 990 537 1054 c 0,10,11
 634 1120 634 1120 768 1120 c 0,12,13
 963 1120 963 1120 1084 1001 c 0,14,15
 1245 844 1245 844 1245 622 c 0,16,17
 1245 422 1245 422 1149 254 c 0,18,19
 1076 127 1076 127 961 0 c 1,20,-1
 813 0 l 1,21,22
 926 152 926 152 986 296 c 0,23,24
 1043 431 1043 431 1043 587 c 0,25,26
 1043 766 1043 766 959 885 c 0,27,28
 877 1000 877 1000 733 1000 c 128,-1,29
 589 1000 589 1000 497 884 c 0,30,31
 380 736 380 736 380 541 c 2,32,-1
 380 0 l 1,33,-1
 200 0 l 1,0,-1
EndSplineSet
Validated: 1
EndChar

StartChar: i
Encoding: 105 105 76
Width: 580
GlyphClass: 2
Flags: W
HStem: 0 10<498.098 510> 1090 10<70 81.9019> 1212 255<172.129 347.809>
VStem: 134 252<1251.22 1428.81> 200 180<62.4312 1037.57>
LayerCount: 2
Fore
SplineSet
296 0 m 1,0,1
 200 49 200 49 200 184 c 2,2,-1
 200 916 l 2,3,4
 200 1046 200 1046 70 1090 c 1,5,-1
 70 1100 l 1,6,-1
 284 1100 l 1,7,8
 380 1051 380 1051 380 916 c 2,9,-1
 380 184 l 2,10,11
 380 54 380 54 510 10 c 1,12,-1
 510 0 l 1,13,-1
 296 0 l 1,0,1
260 1467 m 0,14,15
 312 1467 312 1467 349 1430 c 0,16,17
 386 1392 386 1392 386 1340 c 0,18,19
 386 1287 386 1287 349 1249 c 24,20,21
 311 1212 311 1212 260 1212 c 0,22,23
 207 1212 207 1212 171 1250 c 0,24,25
 134 1289 134 1289 134 1340 c 0,26,27
 134 1389 134 1389 171 1429 c 24,28,29
 206 1467 206 1467 260 1467 c 0,14,15
EndSplineSet
Validated: 1
EndChar

StartChar: j
Encoding: 106 106 77
Width: 580
GlyphClass: 2
Flags: W
HStem: -430 100<40 155.547> 1090 10<70 81.9019> 1212 255<172.129 347.809>
VStem: 134 252<1251.22 1428.81> 200 180<-285.868 1037.57>
LayerCount: 2
Fore
SplineSet
40 -430 m 9,0,-1
 40 -330 l 1,1,2
 200 -330 200 -330 200 -151 c 2,3,-1
 200 916 l 2,4,5
 200 1046 200 1046 70 1090 c 1,6,-1
 70 1100 l 1,7,-1
 284 1100 l 1,8,9
 380 1051 380 1051 380 916 c 2,10,-1
 380 -151 l 2,11,12
 380 -430 380 -430 40 -430 c 9,0,-1
260 1467 m 0,13,14
 312 1467 312 1467 349 1430 c 0,15,16
 386 1392 386 1392 386 1340 c 0,17,18
 386 1287 386 1287 349 1249 c 24,19,20
 311 1212 311 1212 260 1212 c 0,21,22
 207 1212 207 1212 171 1250 c 0,23,24
 134 1289 134 1289 134 1340 c 0,25,26
 134 1389 134 1389 171 1429 c 24,27,28
 206 1467 206 1467 260 1467 c 0,13,14
EndSplineSet
Validated: 1
EndChar

StartChar: k
Encoding: 107 107 78
Width: 1306
GlyphClass: 2
Flags: W
HStem: 0 21G<200 380 933.803 1246> 219 100<380 631.845> 1080 20G<826 1060.5> 1500 10<70 81.9019>
VStem: 200 180<0 219 319 1447.57> 937 158<619.06 1010.96> 959 287<0 287>
DStem2: 815 347 639 254 0.778926 -0.627116<0 329.775>
LayerCount: 2
Fore
SplineSet
200 0 m 1,0,-1
 200 1326 l 2,1,2
 200 1456 200 1456 70 1500 c 1,3,-1
 70 1510 l 1,4,-1
 284 1510 l 1,5,6
 380 1461 380 1461 380 1326 c 2,7,-1
 380 319 l 1,8,9
 719 319 719 319 866 566 c 0,10,11
 937 685 937 685 937 830 c 0,12,13
 937 988 937 988 826 1100 c 1,14,15
 1026 1100 l 1,16,17
 1095 976 1095 976 1095 832 c 0,18,19
 1095 679 1095 679 1016 555 c 0,20,21
 945 444 945 444 815 347 c 1,22,-1
 1246 0 l 1,23,-1
 959 0 l 1,24,-1
 639 254 l 1,25,26
 525 223 525 223 380 219 c 1,27,-1
 380 0 l 1,28,-1
 200 0 l 1,0,-1
EndSplineSet
Validated: 1
EndChar

StartChar: l
Encoding: 108 108 79
Width: 580
GlyphClass: 2
Flags: W
HStem: 0 10<498.098 510> 1500 10<70 81.9019>
VStem: 200 180<62.4312 1447.57>
LayerCount: 2
Fore
SplineSet
296 0 m 1,0,1
 200 49 200 49 200 184 c 2,2,-1
 200 1326 l 2,3,4
 200 1456 200 1456 70 1500 c 1,5,-1
 70 1510 l 1,6,-1
 284 1510 l 1,7,8
 380 1461 380 1461 380 1326 c 2,9,-1
 380 184 l 2,10,11
 380 54 380 54 510 10 c 1,12,-1
 510 0 l 1,13,-1
 296 0 l 1,0,1
EndSplineSet
Validated: 1
EndChar

StartChar: m
Encoding: 109 109 80
Width: 2082
GlyphClass: 2
Flags: W
HStem: 0 21G<200 380 952 1132 1550 1755.5> 1000 120<606.175 885.852 1322.27 1624.25> 1090 10<70 81.9019>
VStem: 200 180<0 762.395 866 1037.57> 952 180<0 769.203> 1780 202<366.254 814.58>
LayerCount: 2
Fore
SplineSet
200 0 m 1,0,-1
 200 916 l 2,1,2
 200 1046 200 1046 70 1090 c 1,3,-1
 70 1100 l 1,4,-1
 284 1100 l 1,5,6
 380 1051 380 1051 380 916 c 2,7,-1
 380 866 l 1,8,9
 464 988 464 988 561 1051 c 0,10,11
 669 1120 669 1120 809 1120 c 0,12,13
 951 1120 951 1120 1041 1028 c 0,14,15
 1101 967 1101 967 1122 870 c 1,16,17
 1187 988 1187 988 1284 1054 c 128,-1,18
 1381 1120 1381 1120 1510 1120 c 0,19,20
 1700 1120 1700 1120 1821 1001 c 0,21,22
 1982 844 1982 844 1982 622 c 0,23,24
 1982 422 1982 422 1886 254 c 0,25,26
 1813 127 1813 127 1698 0 c 1,27,-1
 1550 0 l 1,28,29
 1663 152 1663 152 1723 296 c 0,30,31
 1780 431 1780 431 1780 587 c 0,32,33
 1780 766 1780 766 1696 885 c 0,34,35
 1614 1000 1614 1000 1475 1000 c 128,-1,36
 1336 1000 1336 1000 1244 884 c 0,37,38
 1132 742 1132 742 1132 541 c 2,39,-1
 1132 0 l 1,40,-1
 952 0 l 1,41,-1
 952 761 l 2,42,43
 952 869 952 869 909 931 c 0,44,45
 861 1000 861 1000 751 1000 c 0,46,47
 609 1000 609 1000 502 883 c 0,48,49
 380 750 380 750 380 541 c 2,50,-1
 380 0 l 1,51,-1
 200 0 l 1,0,-1
EndSplineSet
Validated: 1
EndChar

StartChar: n
Encoding: 110 110 81
Width: 1345
GlyphClass: 2
Flags: W
HStem: 0 21G<200 380 813 1018.5> 1000 120<575.743 888.391> 1090 10<70 81.9019>
VStem: 200 180<0 761.203 887 1037.57> 1043 202<366.254 814.58>
LayerCount: 2
Fore
SplineSet
200 0 m 1,0,-1
 200 916 l 2,1,2
 200 1046 200 1046 70 1090 c 1,3,-1
 70 1100 l 1,4,-1
 284 1100 l 1,5,6
 380 1051 380 1051 380 916 c 2,7,-1
 380 887 l 1,8,9
 443 990 443 990 537 1054 c 0,10,11
 634 1120 634 1120 768 1120 c 0,12,13
 963 1120 963 1120 1084 1001 c 0,14,15
 1245 844 1245 844 1245 622 c 0,16,17
 1245 422 1245 422 1149 254 c 0,18,19
 1076 127 1076 127 961 0 c 1,20,-1
 813 0 l 1,21,22
 926 152 926 152 986 296 c 0,23,24
 1043 431 1043 431 1043 587 c 0,25,26
 1043 766 1043 766 959 885 c 0,27,28
 877 1000 877 1000 733 1000 c 128,-1,29
 589 1000 589 1000 497 884 c 0,30,31
 380 736 380 736 380 541 c 2,32,-1
 380 0 l 1,33,-1
 200 0 l 1,0,-1
EndSplineSet
Validated: 1
EndChar

StartChar: o
Encoding: 111 111 82
Width: 1344
GlyphClass: 2
Flags: W
HStem: -20 100<463.008 800.129> 1020 100<543.63 880.992>
VStem: 100 201<264.213 709.842> 1043 201<390.158 835.787>
LayerCount: 2
Fore
SplineSet
597 -20 m 0,0,1
 372 -20 372 -20 227 133 c 0,2,3
 100 267 100 267 100 477 c 0,4,5
 100 742 100 742 299 939 c 0,6,7
 482 1120 482 1120 747 1120 c 0,8,9
 972 1120 972 1120 1117 967 c 0,10,11
 1244 833 1244 833 1244 623 c 0,12,13
 1244 358 1244 358 1045 161 c 0,14,15
 861 -20 861 -20 597 -20 c 0,0,1
615 80 m 0,16,17
 802 80 802 80 915 222 c 0,18,19
 1043 381 1043 381 1043 603 c 0,20,21
 1043 792 1043 792 962 899 c 0,22,23
 869 1020 869 1020 729 1020 c 0,24,25
 542 1020 542 1020 429 878 c 0,26,27
 301 719 301 719 301 497 c 0,28,29
 301 308 301 308 382 201 c 0,30,31
 475 80 475 80 615 80 c 0,16,17
EndSplineSet
Validated: 1
EndChar

StartChar: p
Encoding: 112 112 83
Width: 1391
GlyphClass: 2
Flags: W
HStem: -410 21G<200 380> -20 87<515.994 822.144> 1012 108<608.277 934.717> 1090 10<70 81.9019>
VStem: 200 180<-410 754.778 866 1037.57> 1090 201<390.158 835.787>
LayerCount: 2
Fore
SplineSet
200 -410 m 1,0,-1
 200 916 l 2,1,2
 200 1046 200 1046 70 1090 c 1,3,-1
 70 1100 l 1,4,-1
 284 1100 l 1,5,6
 380 1051 380 1051 380 916 c 2,7,-1
 380 866 l 1,8,9
 452 985 452 985 551 1051 c 0,10,11
 653 1120 653 1120 794 1120 c 0,12,13
 1019 1120 1019 1120 1164 967 c 0,14,15
 1291 833 1291 833 1291 623 c 0,16,17
 1291 358 1291 358 1092 161 c 0,18,19
 909 -20 909 -20 674 -20 c 0,20,21
 530 -20 530 -20 450 83 c 1,22,-1
 458 91 l 1,23,24
 542 67 542 67 630 67 c 0,25,26
 837 67 837 67 962 222 c 0,27,28
 1090 381 1090 381 1090 603 c 0,29,30
 1090 792 1090 792 1009 899 c 0,31,32
 924 1012 924 1012 776 1012 c 0,33,34
 636 1012 636 1012 534 912 c 0,35,36
 380 760 380 760 380 541 c 2,37,-1
 380 -410 l 1,38,-1
 200 -410 l 1,0,-1
EndSplineSet
Validated: 1
EndChar

StartChar: q
Encoding: 113 113 84
Width: 1325
GlyphClass: 2
Flags: W
HStem: -410 10<1243.1 1255> -20 87<483.43 755.006> 1020 100<540.91 853.515>
VStem: 100 201<260.829 709.842> 945 180<-347.569 918.312>
LayerCount: 2
Fore
SplineSet
1041 -410 m 1,0,1
 945 -361 945 -361 945 -226 c 2,2,-1
 945 711 l 2,3,4
 945 854 945 854 895 929 c 0,5,6
 833 1020 833 1020 719 1020 c 0,7,8
 542 1020 542 1020 429 878 c 0,9,10
 301 719 301 719 301 497 c 0,11,12
 301 304 301 304 382 201 c 0,13,14
 488 67 488 67 641 67 c 0,15,16
 729 67 729 67 813 91 c 1,17,-1
 821 83 l 1,18,19
 741 -20 741 -20 597 -20 c 0,20,21
 372 -20 372 -20 227 133 c 0,22,23
 100 267 100 267 100 477 c 0,24,25
 100 742 100 742 299 939 c 0,26,27
 482 1120 482 1120 737 1120 c 0,28,29
 913 1120 913 1120 1011 1024 c 0,30,31
 1125 912 1125 912 1125 711 c 2,32,-1
 1125 -226 l 2,33,34
 1125 -356 1125 -356 1255 -400 c 1,35,-1
 1255 -410 l 1,36,-1
 1041 -410 l 1,0,1
EndSplineSet
Validated: 1
EndChar

StartChar: r
Encoding: 114 114 85
Width: 1149
GlyphClass: 2
Flags: W
HStem: 0 21G<200 380> 1000 120<617.453 912.633> 1090 10<70 81.9019>
VStem: 200 180<0 756.767 866 1037.57>
LayerCount: 2
Fore
SplineSet
200 0 m 1,0,-1
 200 916 l 2,1,2
 200 1046 200 1046 70 1090 c 1,3,-1
 70 1100 l 1,4,-1
 284 1100 l 1,5,6
 380 1051 380 1051 380 916 c 2,7,-1
 380 866 l 1,8,9
 461 984 461 984 571 1051 c 0,10,11
 685 1120 685 1120 834 1120 c 0,12,13
 971 1120 971 1120 1068 1027 c 0,14,15
 1115 981 1115 981 1139 913 c 1,16,-1
 979 817 l 1,17,18
 970 886 970 886 937 930 c 0,19,20
 884 1000 884 1000 782 1000 c 0,21,22
 627 1000 627 1000 512 883 c 0,23,24
 380 749 380 749 380 541 c 2,25,-1
 380 0 l 1,26,-1
 200 0 l 1,0,-1
EndSplineSet
Validated: 1
EndChar

StartChar: s
Encoding: 115 115 86
Width: 1020
GlyphClass: 2
Flags: W
HStem: -20 100<321.494 654.616> 1020 100<440.182 692.608>
VStem: 229 160<780.567 967.351> 753 167<182.083 430.123>
DStem2: 485 747 416 581 0.901816 -0.43212<-120.945 390.226>
LayerCount: 2
Fore
SplineSet
490 -20 m 0,0,1
 250 -20 250 -20 100 154 c 1,2,-1
 224 222 l 1,3,4
 319 80 319 80 483 80 c 0,5,6
 623 80 623 80 692 156 c 0,7,8
 753 223 753 223 753 316 c 0,9,10
 753 420 753 420 656 466 c 2,11,-1
 416 581 l 2,12,13
 229 671 229 671 229 816 c 0,14,15
 229 953 229 953 340 1041 c 0,16,17
 439 1120 439 1120 572 1120 c 0,18,19
 729 1120 729 1120 837 1014 c 1,20,-1
 728 933 l 1,21,22
 673 1020 673 1020 576 1020 c 0,23,24
 482 1020 482 1020 432 968 c 0,25,26
 389 923 389 923 389 870 c 0,27,28
 389 793 389 793 485 747 c 2,29,-1
 719 635 l 2,30,31
 920 539 920 539 920 354 c 0,32,33
 920 181 920 181 771 66 c 0,34,35
 659 -20 659 -20 490 -20 c 0,0,1
EndSplineSet
Validated: 1
EndChar

StartChar: t
Encoding: 116 116 87
Width: 700
GlyphClass: 2
Flags: W
HStem: 0 10<498.098 510> 1000 100<60 200 380 680> 1500 10<70 81.9019>
VStem: 200 180<62.4312 1000 1100 1447.57>
LayerCount: 2
Fore
SplineSet
296 0 m 1,0,1
 200 49 200 49 200 184 c 2,2,-1
 200 1000 l 1,3,-1
 60 1000 l 1,4,-1
 60 1100 l 1,5,-1
 200 1100 l 1,6,-1
 200 1326 l 2,7,8
 200 1456 200 1456 70 1500 c 1,9,-1
 70 1510 l 1,10,-1
 284 1510 l 1,11,12
 380 1461 380 1461 380 1326 c 2,13,-1
 380 1100 l 1,14,-1
 680 1100 l 1,15,-1
 680 1000 l 1,16,-1
 380 1000 l 1,17,-1
 380 184 l 2,18,19
 380 54 380 54 510 10 c 1,20,-1
 510 0 l 1,21,-1
 296 0 l 1,0,1
EndSplineSet
Validated: 1
EndChar

StartChar: u
Encoding: 117 117 88
Width: 1345
GlyphClass: 2
Flags: W
HStem: -20 120<458.647 769.257> 0 10<1263.1 1275> 1080 20G<326.5 532 965 1145>
VStem: 100 202<287.037 733.746> 965 180<62.4312 213 338.797 1100>
LayerCount: 2
Fore
SplineSet
1061 0 m 1,0,1
 965 49 965 49 965 184 c 2,2,-1
 965 213 l 1,3,4
 902 110 902 110 808 46 c 0,5,6
 711 -20 711 -20 577 -20 c 0,7,8
 391 -20 391 -20 262 100 c 0,9,10
 100 250 100 250 100 478 c 0,11,12
 100 678 100 678 196 846 c 0,13,14
 269 973 269 973 384 1100 c 1,15,-1
 532 1100 l 1,16,17
 419 948 419 948 359 804 c 0,18,19
 302 669 302 669 302 513 c 0,20,21
 302 334 302 334 386 215 c 0,22,23
 468 100 468 100 612 100 c 128,-1,24
 756 100 756 100 848 216 c 0,25,26
 965 364 965 364 965 559 c 2,27,-1
 965 1100 l 1,28,-1
 1145 1100 l 1,29,-1
 1145 184 l 2,30,31
 1145 54 1145 54 1275 10 c 1,32,-1
 1275 0 l 1,33,-1
 1061 0 l 1,0,1
EndSplineSet
Validated: 1
EndChar

StartChar: v
Encoding: 118 118 89
Width: 1287
GlyphClass: 2
Flags: W
HStem: 0 21G<491 832.5> 1080 20G<5 216.997 885 1136>
VStem: 1026 161<579.334 971.508>
DStem2: 208 1100 5 1100 0.410365 -0.911922<0 1104.2>
LayerCount: 2
Fore
SplineSet
500 0 m 1,0,-1
 5 1100 l 1,1,-1
 208 1100 l 1,2,-1
 661 93 l 1,3,4
 810 244 810 244 915 420 c 0,5,6
 1026 606 1026 606 1026 794 c 0,7,8
 1026 961 1026 961 885 1100 c 1,9,10
 1085 1100 l 1,11,12
 1187 986 1187 986 1187 808 c 0,13,14
 1187 612 1187 612 1059 416 c 0,15,16
 965 272 965 272 700 0 c 1,17,-1
 500 0 l 1,0,-1
EndSplineSet
Validated: 1
EndChar

StartChar: w
Encoding: 119 119 90
Width: 1990
GlyphClass: 2
Flags: W
HStem: -20 120<457.752 759.727 1196.41 1488.84> 1080 20G<326.5 532 950 1130 1460 1738.5>
VStem: 100 202<285.42 733.746> 950 180<330.797 1100> 1733 157<388.967 822.527>
LayerCount: 2
Fore
SplineSet
572 -20 m 0,0,1
 382 -20 382 -20 261 99 c 0,2,3
 100 256 100 256 100 478 c 0,4,5
 100 678 100 678 196 846 c 0,6,7
 269 973 269 973 384 1100 c 1,8,-1
 532 1100 l 1,9,10
 419 948 419 948 359 804 c 0,11,12
 302 669 302 669 302 513 c 0,13,14
 302 334 302 334 386 215 c 0,15,16
 468 100 468 100 607 100 c 128,-1,17
 746 100 746 100 838 216 c 0,18,19
 950 358 950 358 950 559 c 2,20,-1
 950 1100 l 1,21,-1
 1130 1100 l 1,22,-1
 1130 339 l 2,23,24
 1130 231 1130 231 1173 169 c 0,25,26
 1221 100 1221 100 1336 100 c 0,27,28
 1510 100 1510 100 1623 254 c 0,29,30
 1733 404 1733 404 1733 601 c 0,31,32
 1733 759 1733 759 1655 889 c 0,33,34
 1585 1004 1585 1004 1460 1100 c 1,35,-1
 1695 1100 l 1,36,37
 1782 1023 1782 1023 1835 903 c 0,38,39
 1890 780 1890 780 1890 623 c 0,40,41
 1890 357 1890 357 1691 161 c 0,42,43
 1507 -20 1507 -20 1271 -20 c 0,44,45
 1114 -20 1114 -20 1038 71 c 0,46,47
 981 139 981 139 960 230 c 1,48,49
 895 112 895 112 798 46 c 128,-1,50
 701 -20 701 -20 572 -20 c 0,0,1
EndSplineSet
Validated: 1
EndChar

StartChar: x
Encoding: 120 120 91
Width: 1036
GlyphClass: 2
Flags: W
HStem: 0 21G<5 179.509 792.439 1031> 1080 20G<5 243.568 742 962>
VStem: 5 224<876 1100> 5 151<0 151> 807 224<0 224> 830 158<736.299 1045.02>
DStem2: 229 1100 5 1100 0.589132 -0.808037<0 687.867 806.316 1229.36> 5 0 156 0 0.756754 0.6537<114.27 642.05>
LayerCount: 2
Fore
SplineSet
5 0 m 1,0,-1
 497 425 l 1,1,-1
 5 1100 l 1,2,-1
 229 1100 l 1,3,-1
 634 544 l 1,4,5
 733 634 733 634 783 723 c 0,6,7
 830 807 830 807 830 907 c 0,8,9
 830 1008 830 1008 742 1100 c 1,10,-1
 937 1100 l 1,11,12
 987 1020 987 1020 988 921 c 0,13,14
 988 808 988 808 932 716 c 0,15,16
 863 602 863 602 696 460 c 1,17,-1
 1031 0 l 1,18,-1
 807 0 l 1,19,-1
 558 342 l 1,20,-1
 156 0 l 1,21,-1
 5 0 l 1,0,-1
EndSplineSet
Validated: 1
EndChar

StartChar: y
Encoding: 121 121 92
Width: 1345
GlyphClass: 2
Flags: W
HStem: -430 100<321.877 706.811> -20 120<458.647 769.105> 1080 20G<326.5 532 965 1145>
VStem: 100 202<287.285 733.746> 965 180<-20.2031 234 338.797 1100>
LayerCount: 2
Fore
SplineSet
577 -20 m 0,0,1
 391 -20 391 -20 262 100 c 0,2,3
 100 251 100 251 100 478 c 0,4,5
 100 678 100 678 196 846 c 0,6,7
 269 973 269 973 384 1100 c 1,8,-1
 532 1100 l 1,9,10
 419 948 419 948 359 804 c 0,11,12
 302 669 302 669 302 513 c 0,13,14
 302 334 302 334 386 215 c 0,15,16
 468 100 468 100 612 100 c 128,-1,17
 756 100 756 100 848 216 c 0,18,19
 965 364 965 364 965 559 c 2,20,21
 965 1100 l 1,22,-1
 1145 1100 l 1,23,-1
 1145 213 l 2,24,25
 1145 -52 1145 -52 946 -249 c 0,26,27
 762 -430 762 -430 498 -430 c 0,28,29
 362 -430 362 -430 256 -375 c 1,30,-1
 337 -266 l 1,31,32
 414 -330 414 -330 516 -330 c 0,33,34
 705 -330 705 -330 826 -192 c 0,35,36
 964 -35 964 -35 965 234 c 1,37,38
 907 113 907 113 808 46 c 0,39,40
 710 -20 710 -20 577 -20 c 0,0,1
EndSplineSet
Validated: 1
EndChar

StartChar: z
Encoding: 122 122 93
Width: 1170
GlyphClass: 2
Flags: W
HStem: 0 100<362 947.081> 1000 100<240.919 820>
VStem: 178 10<870 881.902> 820 190<814.375 1000> 1000 10<218.098 230>
LayerCount: 2
Fore
SplineSet
70 0 m 1,0,-1
 70 95 l 1,1,2
 820 534 820 534 820 1000 c 1,3,-1
 362 1000 l 2,4,5
 233 1000 233 1000 188 870 c 1,6,-1
 178 870 l 1,7,-1
 178 1004 l 1,8,9
 226 1100 226 1100 362 1100 c 2,10,-1
 1010 1100 l 1,11,12
 1010 505 1010 505 362 100 c 1,13,-1
 826 100 l 2,14,15
 955 100 955 100 1000 230 c 1,16,-1
 1010 230 l 1,17,-1
 1010 96 l 1,18,19
 962 0 962 0 826 0 c 2,20,-1
 70 0 l 1,0,-1
EndSplineSet
Validated: 1
EndChar

StartChar: braceleft
Encoding: 123 123 94
Width: 838
GlyphClass: 2
Flags: W
HStem: -250 120<604.775 788> 695 120<50 286> 1640 120<604.775 788>
VStem: 286 195<-8.125 695 815 1518.12>
CounterMasks: 1 e0
LayerCount: 2
Fore
SplineSet
788 -250 m 1,0,1
 286 -250 286 -250 286 180 c 2,2,-1
 286 695 l 1,3,-1
 50 695 l 1,4,-1
 50 815 l 1,5,-1
 286 815 l 1,6,-1
 286 1330 l 2,7,8
 286 1760 286 1760 788 1760 c 1,9,-1
 788 1640 l 1,10,11
 481 1640 481 1640 481 1330 c 2,12,-1
 481 180 l 2,13,14
 481 -130 481 -130 788 -130 c 1,15,-1
 788 -250 l 1,0,1
EndSplineSet
Validated: 1
EndChar

StartChar: bar
Encoding: 124 124 95
Width: 680
GlyphClass: 2
Flags: W
VStem: 250 180<-130 1640>
LayerCount: 2
Fore
SplineSet
250 -130 m 1,0,-1
 250 1640 l 1,1,-1
 430 1640 l 1,2,-1
 430 -130 l 1,3,-1
 250 -130 l 1,0,-1
EndSplineSet
Validated: 1
EndChar

StartChar: braceright
Encoding: 125 125 96
Width: 838
GlyphClass: 2
Flags: W
HStem: -250 120<50 233.225> 695 120<552 788> 1640 120<50 233.225>
VStem: 357 195<-8.125 695 815 1518.12>
CounterMasks: 1 e0
LayerCount: 2
Fore
SplineSet
50 -250 m 1,0,1
 50 -130 l 1,2,3
 357 -130 357 -130 357 180 c 2,4,-1
 357 1330 l 2,5,6
 357 1640 357 1640 50 1640 c 1,7,-1
 50 1760 l 1,8,9
 552 1760 552 1760 552 1330 c 2,10,-1
 552 815 l 1,11,-1
 788 815 l 1,12,-1
 788 695 l 1,13,-1
 552 695 l 1,14,-1
 552 180 l 2,15,16
 552 -250 552 -250 50 -250 c 1,0,1
EndSplineSet
Validated: 1
EndChar

StartChar: asciitilde
Encoding: 126 126 97
Width: 1182
GlyphClass: 2
Flags: W
HStem: 571 155<698.851 893.232> 762 155<292.055 483.149>
VStem: 150 91<635.329 705.688> 941 91<775.676 852.671>
DStem2: 716 759 466 729 0.829489 -0.558523<-285.044 102.465>
LayerCount: 2
Fore
SplineSet
941 883 m 1,0,-1
 1032 847 l 1,1,2
 959 571 959 571 785 571 c 0,3,4
 701 571 701 571 616 628 c 2,5,-1
 466 729 l 2,6,7
 417 762 417 762 373 762 c 0,8,9
 282 762 282 762 241 605 c 1,10,-1
 150 641 l 1,11,12
 223 917 223 917 397 917 c 0,13,14
 481 917 481 917 566 860 c 2,15,-1
 716 759 l 2,16,17
 765 726 765 726 819 726 c 0,18,19
 900 726 900 726 941 883 c 1,0,-1
EndSplineSet
Validated: 1
EndChar

StartChar: exclamdown
Encoding: 161 161 99
Width: 740
GlyphClass: 2
Flags: W
HStem: -410 21G<250 490> 865 255<282.191 457.871>
VStem: 244 252<903.191 1080.78> 315 110<491.819 747>
LayerCount: 2
Fore
SplineSet
490 -410 m 1,0,-1
 250 -410 l 1,1,-1
 315 747 l 1,2,-1
 425 747 l 1,3,-1
 490 -410 l 1,0,-1
370 1120 m 0,4,5
 423 1120 423 1120 459 1082 c 0,6,7
 496 1043 496 1043 496 992 c 0,8,9
 496 943 496 943 459 903 c 24,10,11
 424 865 424 865 370 865 c 0,12,13
 318 865 318 865 281 902 c 0,14,15
 244 940 244 940 244 992 c 0,16,17
 244 1045 244 1045 281 1083 c 24,18,19
 319 1120 319 1120 370 1120 c 0,4,5
EndSplineSet
Validated: 1
EndChar

StartChar: cent
Encoding: 162 162 100
Width: 1201
GlyphClass: 2
Flags: W
HStem: -20 100<464.188 622 722 801.03> 1020 100<543.312 622 722 873.543>
VStem: 100 201<264.213 709.842> 622 100<-120 -20 92 1008 1120 1220>
LayerCount: 2
Fore
SplineSet
622 -20 m 1,0,1
 610 -20 610 -20 597 -20 c 0,2,3
 372 -20 372 -20 227 133 c 0,4,5
 100 267 100 267 100 477 c 0,6,7
 100 742 100 742 299 939 c 0,8,9
 437 1076 437 1076 622 1109 c 1,10,-1
 622 1220 l 1,11,-1
 722 1220 l 1,12,-1
 722 1120 l 1,13,14
 734 1120 734 1120 747 1120 c 0,15,16
 972 1120 972 1120 1117 967 c 1,17,-1
 969 890 l 1,18,19
 867 1020 867 1020 722 1020 c 1,20,-1
 722 92 l 1,21,22
 834 121 834 121 915 222 c 0,23,24
 960 278 960 278 989 341 c 1,25,-1
 1121 248 l 1,26,27
 1087 203 1087 203 1045 161 c 0,28,29
 908 24 908 24 722 -9 c 1,30,-1
 722 -120 l 1,31,-1
 622 -120 l 1,32,-1
 622 -20 l 1,0,1
622 80 m 1,33,-1
 622 1008 l 1,34,35
 509 979 509 979 429 878 c 0,36,37
 301 719 301 719 301 497 c 0,38,39
 301 308 301 308 382 201 c 0,40,41
 475 80 475 80 622 80 c 1,33,-1
EndSplineSet
Validated: 1
EndChar

StartChar: sterling
Encoding: 163 163 101
Width: 1189
GlyphClass: 2
Flags: W
HStem: 0 120<100 200 400 965.081> 767 100<100 200 400 852> 1430 100<637.697 1023.12>
VStem: 200 200<120 767 867 1120.5> 1018 10<238.098 250>
LayerCount: 2
Fore
SplineSet
100 0 m 1,0,-1
 100 120 l 1,1,-1
 200 120 l 1,2,-1
 200 767 l 1,3,-1
 100 767 l 1,4,-1
 100 867 l 1,5,-1
 200 867 l 1,6,-1
 200 887 l 2,7,8
 200 1152 200 1152 399 1349 c 0,9,10
 583 1530 583 1530 847 1530 c 0,11,12
 983 1530 983 1530 1089 1475 c 1,13,-1
 1008 1366 l 1,14,15
 931 1430 931 1430 829 1430 c 0,16,17
 638 1430 638 1430 519 1292 c 128,-1,18
 400 1154 400 1154 400 867 c 1,19,-1
 852 867 l 1,20,-1
 852 767 l 1,21,-1
 400 767 l 1,22,-1
 400 120 l 1,23,-1
 844 120 l 2,24,25
 973 120 973 120 1018 250 c 1,26,-1
 1028 250 l 1,27,-1
 1028 96 l 1,28,29
 980 0 980 0 844 0 c 2,30,-1
 100 0 l 1,0,-1
EndSplineSet
Validated: 1
EndChar

StartChar: currency
Encoding: 164 164 102
Width: 1474
GlyphClass: 2
Flags: W
HStem: 180 100<527.281 866.529> 1220 100<608.519 945.259>
VStem: 165 201<464.027 908.813> 1108 201<590.029 1035.75>
DStem2: 256 1342 150 1236 0.707107 -0.707107<0 228.919 1288.98 1510.38> 150 274 256 168 0.707107 0.707107<0 155.826 1348.17 1510.38>
LayerCount: 2
Fore
SplineSet
680 280 m 0,0,1
 867 280 867 280 980 422 c 0,2,3
 1108 581 1108 581 1108 803 c 0,4,5
 1108 992 1108 992 1027 1099 c 0,6,7
 934 1220 934 1220 794 1220 c 0,8,9
 607 1220 607 1220 494 1078 c 0,10,11
 366 919 366 919 366 697 c 0,12,13
 366 508 366 508 447 401 c 0,14,15
 540 280 540 280 680 280 c 0,0,1
150 1236 m 1,16,-1
 256 1342 l 1,17,-1
 414 1184 l 1,18,19
 582 1320 582 1320 812 1320 c 0,20,21
 983 1320 983 1320 1108 1232 c 1,22,-1
 1218 1342 l 1,23,-1
 1324 1236 l 1,24,-1
 1215 1127 l 1,25,26
 1309 1003 1309 1003 1309 823 c 0,27,28
 1309 602 1309 602 1170 428 c 1,29,-1
 1324 274 l 1,30,-1
 1218 168 l 1,31,-1
 1065 321 l 1,32,33
 894 180 894 180 662 180 c 0,34,35
 487 180 487 180 360 272 c 1,36,-1
 256 168 l 1,37,-1
 150 274 l 1,38,-1
 254 378 l 1,39,40
 165 501 165 501 165 677 c 0,41,42
 165 902 165 902 308 1078 c 1,43,-1
 150 1236 l 1,16,-1
EndSplineSet
Validated: 1
EndChar

StartChar: yen
Encoding: 165 165 103
Width: 1403
GlyphClass: 2
Flags: W
HStem: 0 21G<573 773> 278 100<251 573 773 1121> 488 100<251 484 801.828 834.327 946 1121> 1490 20G<5 239.282 976 1252>
VStem: 573 200<0 278 378 416> 1122 181<1001.91 1375.61>
DStem2: 229 1510 5 1510 0.460791 -0.887509<0 935.785>
LayerCount: 2
Fore
SplineSet
251 278 m 1,0,-1
 251 378 l 1,1,-1
 573 378 l 1,2,-1
 573 416 l 1,3,-1
 536 488 l 1,4,-1
 251 488 l 1,5,-1
 251 588 l 1,6,-1
 484 588 l 1,7,-1
 5 1510 l 1,8,-1
 229 1510 l 1,9,-1
 703 588 l 1,10,-1
 792 588 l 1,11,12
 919 713 919 713 1001 830 c 0,13,14
 1122 1002 1122 1002 1122 1204 c 0,15,16
 1122 1366 1122 1366 976 1510 c 1,17,-1
 1201 1510 l 1,18,19
 1303 1396 1303 1396 1303 1218 c 0,20,21
 1303 1015 1303 1015 1155 826 c 0,22,23
 1068 715 1068 715 946 588 c 1,24,-1
 1121 588 l 1,25,-1
 1121 488 l 1,26,-1
 848 488 l 1,27,28
 812 453 812 453 773 416 c 1,29,-1
 773 378 l 1,30,-1
 1121 378 l 1,31,-1
 1121 278 l 1,32,-1
 773 278 l 1,33,-1
 773 0 l 1,34,-1
 573 0 l 1,35,-1
 573 278 l 1,36,-1
 251 278 l 1,0,-1
EndSplineSet
Validated: 1
EndChar

StartChar: brokenbar
Encoding: 166 166 104
Width: 680
GlyphClass: 2
Flags: W
VStem: 250 180<-130 622 887 1640>
LayerCount: 2
Fore
SplineSet
430 -130 m 1,0,-1
 250 -130 l 1,1,-1
 250 622 l 1,2,-1
 430 622 l 1,3,-1
 430 -130 l 1,0,-1
250 1640 m 1,4,-1
 430 1640 l 1,5,-1
 430 887 l 1,6,-1
 250 887 l 1,7,-1
 250 1640 l 1,4,-1
EndSplineSet
Validated: 1
EndChar

StartChar: section
Encoding: 167 167 105
Width: 1070
GlyphClass: 2
Flags: W
HStem: -20 100<377.392 629.818> 1430 100<440.182 692.608>
VStem: 150 167<669.877 918.167> 229 160<1190.57 1377.35> 681 160<132.649 319.433> 753 167<591.833 840.123>
DStem2: 414 634 351 465 0.901816 -0.43212<-114.589 396.582> 485 1157 416 991 0.901816 -0.43212<-120.945 390.226>
LayerCount: 2
Fore
SplineSet
498 -20 m 0,0,1
 341 -20 341 -20 233 86 c 1,2,-1
 342 167 l 1,3,4
 397 80 397 80 494 80 c 0,5,6
 588 80 588 80 638 132 c 0,7,8
 681 177 681 177 681 230 c 0,9,10
 681 307 681 307 585 353 c 2,11,-1
 351 465 l 2,12,13
 150 561 150 561 150 746 c 0,14,15
 150 906 150 906 277 1016 c 1,16,-1
 378 944 l 1,17,18
 317 877 317 877 317 784 c 0,19,20
 317 680 317 680 414 634 c 2,21,-1
 654 519 l 2,22,23
 841 429 841 429 841 284 c 0,24,25
 841 147 841 147 730 59 c 0,26,27
 631 -20 631 -20 498 -20 c 0,0,1
572 1530 m 0,28,29
 729 1530 729 1530 837 1424 c 1,30,-1
 728 1343 l 1,31,32
 673 1430 673 1430 576 1430 c 0,33,34
 482 1430 482 1430 432 1378 c 0,35,36
 389 1333 389 1333 389 1280 c 0,37,38
 389 1203 389 1203 485 1157 c 2,39,-1
 719 1045 l 2,40,41
 920 949 920 949 920 764 c 0,42,43
 920 604 920 604 793 494 c 1,44,-1
 692 566 l 1,45,46
 753 633 753 633 753 726 c 0,47,48
 753 830 753 830 656 876 c 2,49,-1
 416 991 l 2,50,51
 229 1081 229 1081 229 1226 c 0,52,53
 229 1363 229 1363 340 1451 c 0,54,55
 439 1530 439 1530 572 1530 c 0,28,29
EndSplineSet
Validated: 1
EndChar

StartChar: dieresis
Encoding: 168 168 106
Width: 576
GlyphClass: 2
Flags: W
HStem: 1233 217<70.4648 231.966 343.972 493.966>
VStem: 50 214<1266 1417.03> 312 214<1266.03 1416.94>
LayerCount: 2
Fore
SplineSet
419 1450 m 0,0,1
 462 1450 462 1450 495 1418 c 0,2,3
 526 1387 526 1387 526 1343 c 0,4,5
 526 1296 526 1296 495 1265 c 0,6,7
 463 1233 463 1233 418.5 1233 c 128,-1,8
 374 1233 374 1233 343 1265 c 0,9,10
 312 1298 312 1298 312 1342 c 0,11,12
 312 1384 312 1384 343 1418 c 24,13,14
 373 1450 373 1450 419 1450 c 0,0,1
157 1450 m 0,15,16
 200 1450 200 1450 233 1418 c 0,17,18
 264 1387 264 1387 264 1343 c 24,19,20
 264 1297 264 1297 233 1265 c 128,-1,21
 202 1233 202 1233 157 1233 c 0,22,23
 111 1233 111 1233 81 1265 c 0,24,25
 50 1296 50 1296 50 1342 c 0,26,27
 50 1386 50 1386 81 1418 c 0,28,29
 111 1450 111 1450 157 1450 c 0,15,16
EndSplineSet
Validated: 1
EndChar

StartChar: copyright
Encoding: 169 169 107
Width: 1401
GlyphClass: 2
Flags: W
HStem: 386 55<534.73 857.893> 570 72<567.319 817.284> 1283 71<616.987 860.988> 1475 55<542.972 858.032>
VStem: 150 60<779.952 1138.53> 306 149<751.645 1108.98> 1190 61<771.255 1146.12>
LayerCount: 2
Fore
SplineSet
756 1354 m 128,-1,1
 936 1354 936 1354 1040 1247 c 1,2,-1
 926 1185 l 1,3,4
 854 1283 854 1283 742 1283 c 0,5,6
 633 1283 633 1283 556 1198 c 24,7,8
 455 1086 455 1086 455 921 c 0,9,10
 455 805 455 805 518 724 c 0,11,12
 581 642 581 642 689 642 c 0,13,14
 855 642 855 642 938 823 c 1,15,-1
 1041 748 l 1,16,17
 911 570 911 570 670 570 c 0,18,19
 494 570 494 570 400 670 c 0,20,21
 306 768 306 768 306 909 c 0,22,23
 307 1110 307 1110 449 1239 c 0,24,0
 576 1354 576 1354 756 1354 c 128,-1,1
701 1530 m 0,25,26
 943 1530 943 1530 1099 1357 c 0,27,28
 1251 1188 1251 1188 1251 953 c 0,29,30
 1251 701 1251 701 1090 549 c 0,31,32
 919 386 919 386 699 386 c 0,33,34
 476 386 476 386 311 549 c 0,35,36
 150 708 150 708 150 953 c 0,37,38
 150 1197 150 1197 308 1362 c 0,39,40
 469 1530 469 1530 701 1530 c 0,25,26
699 1475 m 0,41,42
 503 1475 503 1475 357 1330 c 0,43,44
 210 1184 210 1184 210 953 c 0,45,46
 210 751 210 751 354 591 c 0,47,48
 489 441 489 441 701 441 c 0,49,50
 898 441 898 441 1047 591 c 0,51,52
 1190 736 1190 736 1190 953 c 0,53,54
 1190 1188 1190 1188 1049 1327 c 0,55,56
 899 1475 899 1475 699 1475 c 0,41,42
EndSplineSet
Validated: 1
EndChar

StartChar: ordfeminine
Encoding: 170 170 108
Width: 710
VWidth: 1299
GlyphClass: 2
Flags: W
HStem: 787 120<50 680> 969 55<267.026 417.069> 979 6<672.859 680> 1489 61<292.429 440.954>
VStem: 50 141<1082.56 1386.29> 472 130<1002.2 1448.9>
LayerCount: 2
Fore
SplineSet
50 907 m 1,0,-1
 680 907 l 1,1,-1
 680 787 l 1,2,-1
 50 787 l 1,3,-1
 50 907 l 1,0,-1
388 1550 m 0,4,5
 495 1550 495 1550 546 1495 c 0,6,7
 602 1435 602 1435 602 1340 c 2,8,-1
 602 1089 l 2,9,10
 602 1012 602 1012 680 985 c 1,11,-1
 680 979 l 1,12,-1
 530 979 l 1,13,14
 472 1008 472 1008 472 1089 c 2,15,-1
 472 1339 l 2,16,17
 472 1415 472 1415 448 1450 c 0,18,19
 421 1489 421 1489 379 1489 c 0,20,21
 308 1489 308 1489 254 1422 c 24,22,23
 191 1342 191 1342 191 1240 c 128,-1,24
 191 1138 191 1138 236 1082 c 0,25,26
 282 1024 282 1024 334 1024 c 0,27,28
 391 1024 391 1024 436 1040 c 1,29,-1
 450 1025 l 1,30,31
 403 969 403 969 318 969 c 0,32,33
 191 969 191 969 120 1046 c 0,34,35
 50 1120 50 1120 50 1238 c 128,-1,36
 50 1356 50 1356 149 1452 c 0,37,38
 250 1550 250 1550 388 1550 c 0,4,5
EndSplineSet
Validated: 1
EndChar

StartChar: guillemotleft
Encoding: 171 171 109
Width: 1140
GlyphClass: 2
Flags: W
HStem: 316 201<339 540 739 940> 1059 133<407 540 807 940>
DStem2: 150 845 234 789 0.747092 0.66472<25.5314 433.616> 234 789 150 663 0.747092 -0.66472<20.999 409.414> 550 845 634 789 0.747092 0.66472<25.5314 433.616> 634 789 550 663 0.747092 -0.66472<20.999 409.414>
LayerCount: 2
Fore
SplineSet
550 845 m 1,0,-1
 940 1192 l 1,1,-1
 940 1059 l 1,2,-1
 634 789 l 1,3,-1
 940 517 l 1,4,-1
 940 316 l 1,5,-1
 550 663 l 1,6,-1
 550 845 l 1,0,-1
150 845 m 1,7,-1
 540 1192 l 1,8,-1
 540 1059 l 1,9,-1
 234 789 l 1,10,-1
 540 517 l 1,11,-1
 540 316 l 1,12,-1
 150 663 l 1,13,-1
 150 845 l 1,7,-1
EndSplineSet
Validated: 1
EndChar

StartChar: logicalnot
Encoding: 172 172 110
Width: 1180
GlyphClass: 2
Flags: W
HStem: 680 150<150 910>
VStem: 910 120<423 680>
LayerCount: 2
Fore
SplineSet
150 830 m 1,0,-1
 1030 830 l 1,1,-1
 1030 423 l 1,2,-1
 910 423 l 1,3,-1
 910 680 l 1,4,-1
 150 680 l 1,5,-1
 150 830 l 1,0,-1
EndSplineSet
Validated: 1
EndChar

StartChar: uni00AD
Encoding: 173 173 111
Width: 1180
GlyphClass: 2
Flags: W
HStem: 680 150<150 1030>
LayerCount: 2
Fore
SplineSet
150 830 m 1,0,-1
 1030 830 l 1,1,-1
 1030 680 l 1,2,-1
 150 680 l 1,3,-1
 150 830 l 1,0,-1
EndSplineSet
Validated: 1
EndChar

StartChar: registered
Encoding: 174 174 112
Width: 1401
GlyphClass: 2
Flags: W
HStem: 386 55<534.73 857.531> 1275 79<628.29 844.215> 1475 55<542.001 858.032>
VStem: 150 60<779.952 1138.89> 389 140<579 1177.29> 896 151<925.906 1226.81> 1190 61<770.039 1146.12>
LayerCount: 2
Fore
SplineSet
701 1530 m 0,0,1
 943 1530 943 1530 1099 1357 c 0,2,3
 1251 1188 1251 1188 1251 953 c 0,4,5
 1251 701 1251 701 1090 549 c 0,6,7
 919 386 919 386 699 386 c 0,8,9
 476 386 476 386 311 549 c 0,10,11
 150 708 150 708 150 953 c 0,12,13
 150 1197 150 1197 308 1362 c 0,14,15
 469 1530 469 1530 701 1530 c 0,0,1
389 579 m 1,16,-1
 389 1236 l 2,17,18
 389 1292 389 1292 348 1321 c 1,19,20
 210 1177 210 1177 210 953 c 0,21,22
 210 751 210 751 354 591 c 0,23,24
 489 441 489 441 701 441 c 0,25,26
 890 441 890 441 1035 579 c 1,27,-1
 866 579 l 1,28,-1
 544 817 l 1,29,-1
 562 838 l 1,30,31
 611 814 611 814 688 814 c 128,-1,32
 765 814 765 814 824 877 c 0,33,34
 896 953 896 953 896 1094 c 0,35,36
 896 1179 896 1179 853 1227 c 128,-1,37
 810 1275 810 1275 735.5 1275 c 128,-1,38
 661 1275 661 1275 598 1209 c 0,39,40
 529 1135 529 1135 529 1021 c 2,41,-1
 529 579 l 1,42,-1
 389 579 l 1,16,-1
374 1346 m 1,43,-1
 471 1346 l 1,44,45
 525 1319 525 1319 529 1248 c 1,46,47
 620 1354 620 1354 759 1354 c 0,48,49
 899 1354 899 1354 973 1284 c 128,-1,50
 1047 1214 1047 1214 1047 1101 c 0,51,52
 1047 936 1047 936 924 833 c 0,53,54
 880 796 880 796 812 774 c 1,55,-1
 1053 597 l 1,56,57
 1190 740 1190 740 1190 953 c 0,58,59
 1190 1188 1190 1188 1049 1327 c 0,60,61
 899 1475 899 1475 699 1475 c 0,62,63
 514 1475 514 1475 374 1346 c 1,43,-1
EndSplineSet
Validated: 1
EndChar

StartChar: macron
Encoding: 175 175 113
Width: 620
GlyphClass: 2
Flags: W
HStem: 1280 120<50 570>
VStem: 50 520<1280 1400>
LayerCount: 2
Fore
SplineSet
50 1400 m 1,0,-1
 570 1400 l 1,1,-1
 570 1280 l 1,2,-1
 50 1280 l 1,3,-1
 50 1400 l 1,0,-1
EndSplineSet
Validated: 1
EndChar

StartChar: degree
Encoding: 176 176 114
Width: 730
GlyphClass: 2
Flags: W
HStem: 924 93<240.923 456.705> 1457 93<273.295 489.307>
VStem: 50 141<1071.26 1365.2> 539 141<1108.8 1402.74>
LayerCount: 2
Fore
SplineSet
407 1550 m 0,0,1
 530 1550 530 1550 609 1466 c 0,2,3
 680 1391 680 1391 680 1277 c 0,4,5
 680 1131 680 1131 570 1024 c 0,6,7
 467 924 467 924 323 924 c 0,8,9
 201 924 201 924 121 1008 c 0,10,11
 50 1083 50 1083 50 1197 c 0,12,13
 50 1343 50 1343 160 1450 c 0,14,15
 263 1550 263 1550 407 1550 c 0,0,1
391 1457 m 0,16,17
 306 1457 306 1457 252 1390 c 0,18,19
 191 1316 191 1316 191 1212 c 0,20,21
 191 1124 191 1124 230 1074 c 0,22,23
 273 1017 273 1017 339 1017 c 0,24,25
 424 1017 424 1017 478 1084 c 0,26,27
 539 1158 539 1158 539 1262 c 0,28,29
 539 1350 539 1350 500 1400 c 0,30,31
 457 1457 457 1457 391 1457 c 0,16,17
EndSplineSet
Validated: 1
EndChar

StartChar: plusminus
Encoding: 177 177 115
Width: 1181
GlyphClass: 2
Flags: W
HStem: 215 150<150 1030> 783 150<151 516 666 1031>
VStem: 516 150<418 783 933 1298>
LayerCount: 2
Fore
SplineSet
150 365 m 1,0,-1
 1030 365 l 1,1,-1
 1030 215 l 1,2,-1
 150 215 l 1,3,-1
 150 365 l 1,0,-1
516 1298 m 1,4,-1
 666 1298 l 1,5,-1
 666 933 l 1,6,-1
 1031 933 l 1,7,-1
 1031 783 l 1,8,-1
 666 783 l 1,9,-1
 666 418 l 1,10,-1
 516 418 l 1,11,-1
 516 783 l 1,12,-1
 151 783 l 1,13,-1
 151 933 l 1,14,-1
 516 933 l 1,15,-1
 516 1298 l 1,4,-1
EndSplineSet
Validated: 1
EndChar

StartChar: uni00B2
Encoding: 178 178 116
Width: 677
VWidth: 1406
GlyphClass: 2
Flags: W
HStem: 783 71<203 597.898> 1489 71<234.518 418.031>
VStem: 469 153<1173.51 1443.6> 621 6<924.859 932>
LayerCount: 2
Fore
SplineSet
359 1560 m 0,0,1
 483 1560 483 1560 554 1491 c 0,2,3
 622 1422 622 1422 622 1315 c 0,4,5
 622 1203 622 1203 542 1112 c 0,6,7
 413 964 413 964 203 854 c 1,8,-1
 517 854 l 2,9,10
 594 854 594 854 621 932 c 1,11,-1
 627 932 l 1,12,-1
 627 841 l 1,13,14
 598 783 598 783 517 783 c 2,15,-1
 50 783 l 1,16,-1
 50 850 l 1,17,18
 297 995 297 995 406 1146 c 0,19,20
 469 1233 469 1233 469 1314 c 128,-1,21
 469 1395 469 1395 430 1442 c 0,22,23
 390 1489 390 1489 331 1489 c 0,24,25
 264 1489 264 1489 216 1437 c 0,26,27
 177 1396 177 1396 153 1322 c 1,28,-1
 59 1372 l 1,29,30
 71 1397 71 1397 100 1434 c 0,31,32
 198 1560 198 1560 359 1560 c 0,0,1
EndSplineSet
Validated: 1
EndChar

StartChar: uni00B3
Encoding: 179 179 117
Width: 713
VWidth: 1401
GlyphClass: 2
Flags: W
HStem: 775 72<213.189 422.75> 1239 73<321 423.144> 1489 71<313.277 430.792>
VStem: 446 137<1337.25 1480> 510 153<929.022 1194.42>
LayerCount: 2
Fore
SplineSet
401 1560 m 0,0,1
 490 1560 490 1560 539 1518 c 24,2,3
 583 1480 583 1480 583 1422 c 0,4,5
 583 1339 583 1339 490 1294 c 1,6,7
 663 1243 663 1243 663 1074 c 0,8,9
 663 954 663 954 561 865 c 0,10,11
 458 775 458 775 327 775 c 0,12,13
 158 775 158 775 50 892 c 1,14,-1
 155 953 l 1,15,16
 214 847 214 847 319 847 c 0,17,18
 397 847 397 847 454 910 c 0,19,20
 510 973 510 973 510 1060 c 0,21,22
 510 1145 510 1145 475 1191 c 0,23,24
 438 1239 438 1239 385 1239 c 0,25,26
 357 1239 357 1239 321 1233 c 1,27,-1
 321 1312 l 1,28,29
 397 1312 397 1312 424 1346 c 0,30,31
 446 1374 446 1374 446 1414 c 0,32,33
 446 1452 446 1452 424 1474 c 0,34,35
 410 1489 410 1489 387 1489 c 0,36,37
 324 1489 324 1489 278 1403 c 1,38,-1
 194 1455 l 1,39,40
 276 1560 276 1560 401 1560 c 0,0,1
EndSplineSet
Validated: 1
EndChar

StartChar: acute
Encoding: 180 180 118
Width: 418
GlyphClass: 2
Flags: W
HStem: 1160 370
VStem: 50 318
LayerCount: 2
Fore
SplineSet
224 1530 m 1,0,-1
 368 1428 l 1,1,-1
 145 1160 l 1,2,-1
 50 1227 l 1,3,-1
 224 1530 l 1,0,-1
EndSplineSet
Validated: 1
EndChar

StartChar: uni00B5
Encoding: 181 181 119
Width: 1395
GlyphClass: 2
Flags: W
HStem: -410 21G<150 330> -20 120<507.602 819.257> 0 10<1313.1 1325> 1080 20G<376.5 582 1015 1195>
VStem: 150 180<-410 84> 1015 180<62.4312 213 338.797 1100>
LayerCount: 2
Fore
SplineSet
1111 0 m 1,0,1
 1015 49 1015 49 1015 184 c 2,2,-1
 1015 213 l 1,3,4
 952 110 952 110 858 46 c 0,5,6
 761 -20 761 -20 627 -20 c 0,7,8
 454 -20 454 -20 330 84 c 1,9,-1
 330 -410 l 1,10,-1
 150 -410 l 1,11,-1
 150 478 l 2,12,13
 150 678 150 678 246 846 c 0,14,15
 319 973 319 973 434 1100 c 1,16,-1
 582 1100 l 1,17,18
 469 948 469 948 409 804 c 0,19,20
 352 669 352 669 352 513 c 0,21,22
 352 334 352 334 436 215 c 0,23,24
 518 100 518 100 662 100 c 128,-1,25
 806 100 806 100 898 216 c 0,26,27
 1015 364 1015 364 1015 559 c 2,28,-1
 1015 1100 l 1,29,-1
 1195 1100 l 1,30,-1
 1195 184 l 2,31,32
 1195 54 1195 54 1325 10 c 1,33,-1
 1325 0 l 1,34,-1
 1111 0 l 1,0,1
EndSplineSet
Validated: 1
EndChar

StartChar: paragraph
Encoding: 182 182 120
Width: 1115
GlyphClass: 2
Flags: W
HStem: 0 21G<715 780 850 915> 704 806<394.25 651.789> 1454 56<780 850>
VStem: 150 630<859.744 1244.26> 715 65<0 790> 850 65<0 1454>
LayerCount: 2
Fore
SplineSet
915 0 m 1,0,-1
 850 0 l 1,1,-1
 850 1454 l 1,2,-1
 780 1454 l 1,3,-1
 780 0 l 1,4,-1
 715 0 l 1,5,-1
 715 790 l 1,6,7
 606 704 606 704 473 704 c 0,8,9
 316 704 316 704 225 815 c 0,10,11
 150 906 150 906 150 1035 c 0,12,13
 150 1243 150 1243 293 1390 c 0,14,15
 410 1510 410 1510 583 1510 c 0,16,17
 655 1510 655 1510 715 1481 c 1,18,-1
 715 1510 l 1,19,-1
 915 1510 l 1,20,-1
 915 0 l 1,0,-1
EndSplineSet
Validated: 1
EndChar

StartChar: periodcentered
Encoding: 183 183 121
Width: 352
GlyphClass: 2
Flags: W
HStem: 627 255<88.1292 263.809>
VStem: 50 252<666.222 843.809>
LayerCount: 2
Fore
SplineSet
176 882 m 0,0,1
 228 882 228 882 265 845 c 0,2,3
 302 807 302 807 302 755 c 0,4,5
 302 702 302 702 265 664 c 24,6,7
 227 627 227 627 176 627 c 0,8,9
 123 627 123 627 87 665 c 0,10,11
 50 704 50 704 50 755 c 0,12,13
 50 804 50 804 87 844 c 24,14,15
 122 882 122 882 176 882 c 0,0,1
EndSplineSet
Validated: 1
EndChar

StartChar: cedilla
Encoding: 184 184 122
Width: 406
GlyphClass: 2
Flags: W
HStem: -430 131<50 190.972> -68 68<102 163.441>
VStem: 102 97<-52.364 0> 214 142<-275.292 -106.775>
LayerCount: 2
Fore
SplineSet
102 0 m 1,0,-1
 199 0 l 1,1,-1
 199 -40 l 1,2,3
 356 -77 356 -77 356 -213 c 0,4,5
 356 -430 356 -430 50 -430 c 1,6,-1
 50 -299 l 1,7,8
 214 -299 214 -299 214 -197 c 0,9,10
 214 -111 214 -111 102 -68 c 1,11,-1
 102 0 l 1,0,-1
EndSplineSet
Validated: 1
EndChar

StartChar: uni00B9
Encoding: 185 185 123
Width: 396
VWidth: 1401
GlyphClass: 2
Flags: W
HStem: 1479 71<50 156>
VStem: 156 140<785 1477.25>
LayerCount: 2
Fore
SplineSet
50 1550 m 1,0,-1
 238 1550 l 1,1,2
 296 1521 296 1521 296 1440 c 2,3,-1
 296 785 l 1,4,-1
 156 785 l 1,5,-1
 156 1479 l 1,6,-1
 50 1479 l 1,7,-1
 50 1550 l 1,0,-1
EndSplineSet
Validated: 1
EndChar

StartChar: ordmasculine
Encoding: 186 186 124
Width: 710
VWidth: 1299
GlyphClass: 2
Flags: W
HStem: 787 120<50 660> 969 61<256.181 418.402> 1489 61<291.208 452.638>
VStem: 50 140<1085.4 1386.32> 520 140<1132.98 1433.84>
LayerCount: 2
Fore
SplineSet
50 907 m 1,0,-1
 660 907 l 1,1,-1
 660 787 l 1,2,-1
 50 787 l 1,3,-1
 50 907 l 1,0,-1
392 1550 m 24,4,5
 518 1550 518 1550 590 1474 c 0,6,7
 660 1401 660 1401 660 1282 c 0,8,9
 660 1164 660 1164 561 1067 c 0,10,11
 460 969 460 969 316 969 c 24,12,13
 191 969 191 969 119 1046 c 0,14,15
 50 1120 50 1120 50 1238 c 128,-1,16
 50 1356 50 1356 149 1452 c 0,17,18
 250 1550 250 1550 392 1550 c 24,4,5
382 1489 m 0,19,20
 307 1489 307 1489 254 1424 c 24,21,22
 190 1346 190 1346 190 1242 c 0,23,24
 190 1140 190 1140 232 1086 c 0,25,26
 275 1030 275 1030 328 1030 c 0,27,28
 403 1030 403 1030 456 1095 c 24,29,30
 520 1173 520 1173 520 1278 c 0,31,32
 520 1382 520 1382 480 1432 c 0,33,34
 434 1489 434 1489 382 1489 c 0,19,20
EndSplineSet
Validated: 1
EndChar

StartChar: guillemotright
Encoding: 187 187 125
Width: 1140
GlyphClass: 2
Flags: W
HStem: 316 133<200 333 600 733> 991 201<200 401 600 801>
DStem2: 200 1192 200 991 0.747092 -0.66472<133.609 522.024> 200 449 200 316 0.747092 0.66472<0 408.085> 600 1192 600 991 0.747092 -0.66472<133.609 522.024> 600 449 600 316 0.747092 0.66472<0 408.085>
LayerCount: 2
Fore
SplineSet
590 663 m 1,0,-1
 200 316 l 1,1,-1
 200 449 l 1,2,-1
 506 719 l 1,3,-1
 200 991 l 1,4,-1
 200 1192 l 1,5,-1
 590 845 l 1,6,-1
 590 663 l 1,0,-1
990 663 m 1,7,-1
 600 316 l 1,8,-1
 600 449 l 1,9,-1
 906 719 l 1,10,-1
 600 991 l 1,11,-1
 600 1192 l 1,12,-1
 990 845 l 1,13,-1
 990 663 l 1,7,-1
EndSplineSet
Validated: 1
EndChar

StartChar: onequarter
Encoding: 188 188 126
Width: 1426
VWidth: 1401
GlyphClass: 2
Flags: W
HStem: 0 21G<174 361.166 1086 1226> 146 71<821 1086> 1439 71<150 256>
VStem: 256 140<745 1437.25> 1086 140<0 146 217 631>
DStem2: 174 0 350 0 0.487458 0.873146<85.7927 1729.38>
LayerCount: 2
Fore
SplineSet
1086 0 m 1,0,-1
 1086 146 l 1,1,-1
 675 146 l 1,2,3
 840 503 840 503 1090 765 c 1,4,-1
 1168 765 l 1,5,6
 1226 736 1226 736 1226 655 c 2,7,-1
 1226 0 l 1,8,-1
 1086 0 l 1,0,-1
150 1510 m 1,9,-1
 338 1510 l 1,10,11
 396 1481 396 1481 396 1400 c 2,12,-1
 396 745 l 1,13,-1
 256 745 l 1,14,-1
 256 1439 l 1,15,-1
 150 1439 l 1,16,-1
 150 1510 l 1,9,-1
1086 631 m 1,17,18
 922 436 922 436 821 217 c 1,19,-1
 1086 217 l 1,20,-1
 1086 631 l 1,17,18
174 0 m 1,21,-1
 1017 1510 l 1,22,-1
 1193 1510 l 1,23,-1
 350 0 l 1,24,-1
 174 0 l 1,21,-1
EndSplineSet
Validated: 1
EndChar

StartChar: onehalf
Encoding: 189 189 127
Width: 1576
VWidth: 1401
GlyphClass: 2
Flags: W
HStem: 0 71<1002 1396.9> 706 71<1033.52 1217.03> 1439 71<150 256>
VStem: 256 140<745 1437.25> 1268 153<390.51 660.603> 1420 6<141.859 149>
DStem2: 174 0 350 0 0.487458 0.873146<85.7927 1729.38>
LayerCount: 2
Fore
SplineSet
150 1510 m 1,0,-1
 338 1510 l 1,1,2
 396 1481 396 1481 396 1400 c 2,3,-1
 396 745 l 1,4,-1
 256 745 l 1,5,-1
 256 1439 l 1,6,-1
 150 1439 l 1,7,-1
 150 1510 l 1,0,-1
849 0 m 1,8,-1
 849 67 l 1,9,10
 1096 212 1096 212 1205 363 c 0,11,12
 1268 450 1268 450 1268 531 c 128,-1,13
 1268 612 1268 612 1229 659 c 0,14,15
 1189 706 1189 706 1130 706 c 0,16,17
 1063 706 1063 706 1015 654 c 0,18,19
 976 613 976 613 952 539 c 1,20,-1
 858 589 l 1,21,22
 870 614 870 614 899 651 c 0,23,24
 997 777 997 777 1158 777 c 0,25,26
 1282 777 1282 777 1353 708 c 0,27,28
 1421 639 1421 639 1421 532 c 0,29,30
 1421 420 1421 420 1341 329 c 0,31,32
 1212 181 1212 181 1002 71 c 1,33,-1
 1316 71 l 2,34,35
 1393 71 1393 71 1420 149 c 1,36,-1
 1426 149 l 1,37,-1
 1426 58 l 1,38,39
 1397 0 1397 0 1316 0 c 2,40,-1
 849 0 l 1,8,-1
174 0 m 1,41,-1
 1017 1510 l 1,42,-1
 1193 1510 l 1,43,-1
 350 0 l 1,44,-1
 174 0 l 1,41,-1
EndSplineSet
Validated: 1
EndChar

StartChar: threequarters
Encoding: 190 190 128
Width: 1648
VWidth: 1401
GlyphClass: 2
Flags: W
HStem: 0 21G<396 583.166 1308 1448> 146 71<1043 1308> 735 72<263.189 472.75> 1199 73<371 473.144> 1449 71<363.277 480.792>
VStem: 496 137<1297.25 1440> 560 153<889.022 1154.42> 1308 140<0 146 217 631>
DStem2: 396 0 572 0 0.487458 0.873146<85.7927 1729.38>
LayerCount: 2
Fore
SplineSet
1308 0 m 1,0,-1
 1308 146 l 1,1,-1
 897 146 l 1,2,3
 1062 503 1062 503 1312 765 c 1,4,-1
 1390 765 l 1,5,6
 1448 736 1448 736 1448 655 c 2,7,-1
 1448 0 l 1,8,-1
 1308 0 l 1,0,-1
1308 631 m 1,9,10
 1144 436 1144 436 1043 217 c 1,11,-1
 1308 217 l 1,12,-1
 1308 631 l 1,9,10
451 1520 m 0,13,14
 540 1520 540 1520 589 1478 c 24,15,16
 633 1440 633 1440 633 1382 c 0,17,18
 633 1299 633 1299 540 1254 c 1,19,20
 713 1203 713 1203 713 1034 c 0,21,22
 713 914 713 914 611 825 c 0,23,24
 508 735 508 735 377 735 c 0,25,26
 208 735 208 735 100 852 c 1,27,-1
 205 913 l 1,28,29
 264 807 264 807 369 807 c 0,30,31
 447 807 447 807 504 870 c 0,32,33
 560 933 560 933 560 1020 c 0,34,35
 560 1105 560 1105 525 1151 c 0,36,37
 488 1199 488 1199 435 1199 c 0,38,39
 407 1199 407 1199 371 1193 c 1,40,-1
 371 1272 l 1,41,42
 447 1272 447 1272 474 1306 c 0,43,44
 496 1334 496 1334 496 1374 c 0,45,46
 496 1412 496 1412 474 1434 c 0,47,48
 460 1449 460 1449 437 1449 c 0,49,50
 374 1449 374 1449 328 1363 c 1,51,-1
 244 1415 l 1,52,53
 326 1520 326 1520 451 1520 c 0,13,14
396 0 m 1,54,-1
 1239 1510 l 1,55,-1
 1415 1510 l 1,56,-1
 572 0 l 1,57,-1
 396 0 l 1,54,-1
EndSplineSet
Validated: 1
EndChar

StartChar: questiondown
Encoding: 191 191 129
Width: 1344
GlyphClass: 2
Flags: W
HStem: -430 120<518.735 865.761> -25 20G<1060 1113.56> 865 255<629.191 804.871>
VStem: 150 225<-156.33 229.524> 591 252<903.191 1080.78>
LayerCount: 2
Fore
SplineSet
717 1120 m 0,0,1
 770 1120 770 1120 806 1082 c 0,2,3
 843 1043 843 1043 843 992 c 0,4,5
 843 943 843 943 806 903 c 24,6,7
 771 865 771 865 717 865 c 0,8,9
 665 865 665 865 628 902 c 0,10,11
 591 940 591 940 591 992 c 0,12,13
 591 1045 591 1045 628 1083 c 24,14,15
 666 1120 666 1120 717 1120 c 0,0,1
637 -430 m 0,16,17
 418 -430 418 -430 277 -291 c 0,18,19
 150 -166 150 -166 150 37 c 0,20,21
 150 222 150 222 297 379 c 2,22,-1
 641 747 l 1,23,-1
 780 747 l 1,24,-1
 503 387 l 2,25,26
 375 221 375 221 375 40 c 0,27,28
 375 -114 375 -114 457 -212 c 128,-1,29
 539 -310 539 -310 683 -310 c 0,30,31
 848 -310 848 -310 967 -194 c 0,32,33
 1043 -120 1043 -120 1077 -5 c 1,34,-1
 1194 -69 l 1,35,36
 1150 -144 1150 -144 1115 -189 c 24,37,38
 929 -430 929 -430 637 -430 c 0,16,17
EndSplineSet
Validated: 1
EndChar

StartChar: AE
Encoding: 198 198 130
Width: 2284
GlyphClass: 2
Flags: W
HStem: -20 120<1488 1757.29> 0 21G<5 144.649> 696 120<489 961 1231 1830> 1362 148<659 878> 1410 120<1420.83 1867.58>
DStem2: 5 0 136 0 0.397437 0.91763<52.0642 810.363 941.145 1535.97> 878 1510 725 1362 0.397297 -0.91769<75.0318 326.956 504.355 669.853 887.246 1553.1>
LayerCount: 2
Fore
SplineSet
5 0 m 1,0,-1
 659 1510 l 1,1,-1
 878 1510 l 1,2,-1
 1008 1210 l 1,3,4
 1049 1260 1049 1260 1099 1306 c 0,5,6
 1342 1530 1342 1530 1686 1530 c 0,7,8
 2006 1530 2006 1530 2203 1323 c 1,9,-1
 2030 1233 l 1,10,11
 1898 1410 1898 1410 1654 1410 c 0,12,13
 1393 1410 1393 1410 1234 1230 c 0,14,15
 1144 1128 1144 1128 1094 1011 c 1,16,-1
 1179 816 l 1,17,-1
 1830 816 l 1,18,-1
 1830 696 l 1,19,-1
 1231 696 l 1,20,-1
 1488 101 l 1,21,22
 1509 100 1509 100 1531 100 c 0,23,24
 1791 100 1791 100 1951 280 c 0,25,26
 2014 351 2014 351 2057 432 c 1,27,-1
 2204 327 l 1,28,29
 2157 264 2157 264 2090 202 c 0,30,31
 1849 -20 1849 -20 1503 -20 c 0,32,33
 1401 -20 1401 -20 1313 0 c 1,34,-1
 1013 696 l 1,35,-1
 437 696 l 1,36,-1
 136 0 l 1,37,-1
 5 0 l 1,0,-1
961 816 m 1,38,-1
 725 1362 l 1,39,-1
 489 816 l 1,40,-1
 961 816 l 1,38,-1
EndSplineSet
Validated: 1
EndChar

StartChar: Eth
Encoding: 208 208 131
Width: 1736
GlyphClass: 2
Flags: W
HStem: -20 87<572.26 967.957> 0 21G<200 400> 705 100<100 200 400 770> 1410 120<708.551 1130.37> 1500 10<70 81.9019>
VStem: 200 200<0 705 805 1094.59 1216 1447.57> 1416 220<574.342 1089.87>
LayerCount: 2
Fore
SplineSet
200 0 m 1,0,-1
 200 705 l 1,1,-1
 100 705 l 1,2,-1
 100 805 l 1,3,-1
 200 805 l 1,4,-1
 200 1326 l 2,5,6
 200 1456 200 1456 70 1500 c 1,7,-1
 70 1510 l 1,8,-1
 304 1510 l 1,9,10
 400 1461 400 1461 400 1326 c 2,11,-1
 400 1216 l 1,12,13
 486 1359 486 1359 620 1442 c 0,14,15
 761 1530 761 1530 948 1530 c 0,16,17
 1270 1530 1270 1530 1465 1325 c 0,18,19
 1636 1145 1636 1145 1636 862 c 0,20,21
 1636 466 1636 466 1352 204 c 0,22,23
 1109 -20 1109 -20 765 -20 c 0,24,25
 558 -20 558 -20 466 119 c 1,26,-1
 474 127 l 1,27,28
 582 67 582 67 726 67 c 0,29,30
 1023 67 1023 67 1215 280 c 0,31,32
 1416 503 1416 503 1416 839 c 0,33,34
 1416 1071 1416 1071 1294 1233 c 0,35,36
 1162 1410 1162 1410 913 1410 c 0,37,38
 699 1410 699 1410 549 1251 c 0,39,40
 400 1092 400 1092 400 873 c 2,41,-1
 400 805 l 1,42,-1
 770 805 l 1,43,-1
 770 705 l 1,44,-1
 400 705 l 1,45,-1
 400 0 l 1,46,-1
 200 0 l 1,0,-1
EndSplineSet
Validated: 1
EndChar

StartChar: multiply
Encoding: 215 215 132
Width: 1128
GlyphClass: 2
Flags: W
HStem: 649 212<458 670> 1099 20G<286 326 802 842>
VStem: 458 212<649 861>
DStem2: 306 1119 200 1013 0.707107 -0.707107<0 364.867 514.774 879.641> 200 497 306 391 0.707107 0.707107<0 364.867 514.774 879.641>
LayerCount: 2
Fore
SplineSet
822 1119 m 1,0,-1
 928 1013 l 1,1,-1
 670 755 l 1,2,-1
 928 497 l 1,3,-1
 822 391 l 1,4,-1
 564 649 l 1,5,-1
 306 391 l 1,6,-1
 200 497 l 1,7,-1
 458 755 l 1,8,-1
 200 1013 l 1,9,-1
 306 1119 l 1,10,-1
 564 861 l 1,11,-1
 822 1119 l 1,0,-1
EndSplineSet
Validated: 1
EndChar

StartChar: Oslash
Encoding: 216 216 133
Width: 1759
GlyphClass: 2
Flags: W
HStem: -20 120<601.626 1052.17> 1410 120<706.834 1156.66>
VStem: 100 220<420.134 939.165> 1439 220<570.835 1089.87>
DStem2: 424 66 515 25 0.499887 0.86609<-50.9194 0.833027 163.476 1485.76 1648.21 1699.29>
LayerCount: 2
Fore
SplineSet
788 -20 m 0,0,1
 638 -20 638 -20 515 25 c 1,2,-1
 485 -28 l 1,3,-1
 398 22 l 1,4,-1
 424 66 l 1,5,6
 340 113 340 113 271 185 c 0,7,8
 100 365 100 365 100 648 c 0,9,10
 100 1044 100 1044 384 1306 c 0,11,12
 627 1530 627 1530 971 1530 c 0,13,14
 1121 1530 1121 1530 1243 1486 c 1,15,-1
 1273 1538 l 1,16,-1
 1360 1488 l 1,17,-1
 1335 1444 l 1,18,19
 1420 1397 1420 1397 1488 1325 c 0,20,21
 1659 1145 1659 1145 1659 862 c 0,22,23
 1659 466 1659 466 1375 204 c 0,24,25
 1132 -20 1132 -20 788 -20 c 0,0,1
818 100 m 0,26,27
 1079 100 1079 100 1238 280 c 0,28,29
 1439 507 1439 507 1439 839 c 0,30,31
 1439 1071 1439 1071 1317 1233 c 0,32,33
 1288 1272 1288 1272 1253 1303 c 1,34,-1
 588 151 l 1,35,36
 687 100 687 100 818 100 c 0,26,27
505 208 m 1,37,-1
 1170 1359 l 1,38,39
 1071 1410 1071 1410 941 1410 c 0,40,41
 680 1410 680 1410 521 1230 c 0,42,43
 320 1003 320 1003 320 671 c 0,44,45
 320 439 320 439 442 277 c 0,46,47
 471 238 471 238 505 208 c 1,37,-1
EndSplineSet
Validated: 1
EndChar

StartChar: Thorn
Encoding: 222 222 134
Width: 1535
GlyphClass: 2
Flags: W
HStem: 0 21G<200 400> 170 87<576.093 940.797> 1206 134<693.821 1048.68> 1500 10<70 81.9019>
VStem: 200 200<0 915.805 1026 1447.57> 1214 221<585.333 1038.17>
LayerCount: 2
Fore
SplineSet
200 0 m 1,0,-1
 200 1326 l 2,1,2
 200 1456 200 1456 70 1500 c 1,3,-1
 70 1510 l 1,4,-1
 304 1510 l 1,5,6
 400 1461 400 1461 400 1326 c 2,7,-1
 400 1026 l 1,8,9
 489 1174 489 1174 610 1252 c 0,10,11
 745 1340 745 1340 924 1340 c 0,12,13
 1148 1340 1148 1340 1284 1212 c 0,14,15
 1435 1070 1435 1070 1435 842 c 0,16,17
 1435 512 1435 512 1191 309 c 0,18,19
 1025 170 1025 170 785 170 c 0,20,21
 558 170 558 170 466 309 c 1,22,-1
 474 317 l 1,23,24
 582 257 582 257 746 257 c 0,25,26
 942 257 942 257 1071 398 c 0,27,28
 1214 556 1214 556 1214 828 c 0,29,30
 1214 1001 1214 1001 1131 1095 c 256,31,32
 1034 1206 1034 1206 865 1206 c 0,33,34
 675 1206 675 1206 539 1061 c 0,35,36
 400 913 400 913 400 683 c 2,37,-1
 400 0 l 1,38,-1
 200 0 l 1,0,-1
EndSplineSet
Validated: 1
EndChar

StartChar: germandbls
Encoding: 223 223 135
Width: 1395
GlyphClass: 2
Flags: W
HStem: -20 87<515.994 810.23> 0 21G<200 380> 967 10<664 676.326> 1415 115<584.569 865.241>
VStem: 200 180<0 1147.27> 912 182<1118.91 1372.95> 1080 215<352.155 756.399>
LayerCount: 2
Fore
SplineSet
200 0 m 1,0,-1
 200 887 l 2,1,2
 200 1207 200 1207 399 1389 c 24,3,4
 553 1530 553 1530 770 1530 c 0,5,6
 916 1530 916 1530 1007 1452 c 0,7,8
 1094 1376 1094 1376 1094 1263 c 0,9,10
 1094 1104 1094 1104 926 1018 c 1,11,12
 1073 984 1073 984 1168 891 c 0,13,14
 1295 766 1295 766 1295 563 c 0,15,16
 1295 372 1295 372 1166 216 c 0,17,18
 971 -20 971 -20 674 -20 c 0,19,20
 530 -20 530 -20 450 83 c 1,21,-1
 458 91 l 1,22,23
 542 67 542 67 630 67 c 0,24,25
 834 67 834 67 975 248 c 0,26,27
 1080 383 1080 383 1080 560 c 0,28,29
 1080 708 1080 708 1002 810 c 0,30,31
 890 957 890 957 664 967 c 1,32,-1
 664 977 l 1,33,34
 797 1022 797 1022 865 1110 c 0,35,36
 912 1169 912 1169 912 1255 c 0,37,38
 912 1333 912 1333 864 1376 c 0,39,40
 821 1415 821 1415 742 1415 c 0,41,42
 605 1415 605 1415 516 1311 c 24,43,44
 380 1151 380 1151 380 867 c 2,45,-1
 380 0 l 1,46,-1
 200 0 l 1,0,-1
EndSplineSet
Validated: 1
EndChar

StartChar: ae
Encoding: 230 230 136
Width: 1881
GlyphClass: 2
Flags: W
HStem: -20 87<483.43 755.006 1168.2 1449.84> 500 100<1125 1512> 1020 100<540.91 851.645 1228.6 1555.04>
VStem: 100 201<260.829 709.842> 945 180<111.423 500 600 867.777>
LayerCount: 2
Fore
SplineSet
1041 0 m 1,0,1
 945 49 945 49 945 184 c 2,2,-1
 945 711 l 2,3,4
 945 854 945 854 895 929 c 0,5,6
 833 1020 833 1020 719 1020 c 0,7,8
 542 1020 542 1020 429 878 c 0,9,10
 301 719 301 719 301 497 c 0,11,12
 301 304 301 304 382 201 c 0,13,14
 488 67 488 67 641 67 c 0,15,16
 729 67 729 67 813 91 c 1,17,-1
 821 83 l 1,18,19
 741 -20 741 -20 597 -20 c 0,20,21
 372 -20 372 -20 227 133 c 0,22,23
 100 267 100 267 100 477 c 0,24,25
 100 742 100 742 299 939 c 0,26,27
 482 1120 482 1120 737 1120 c 0,28,29
 915 1120 915 1120 1011 1024 c 0,30,31
 1026 1009 1026 1009 1040 992 c 1,32,33
 1205 1120 1205 1120 1427 1120 c 0,34,35
 1652 1120 1652 1120 1797 967 c 1,36,-1
 1649 890 l 1,37,38
 1547 1020 1547 1020 1409 1020 c 0,39,40
 1224 1020 1224 1020 1103 870 c 1,41,42
 1125 799 1125 799 1125 711 c 2,43,-1
 1125 600 l 1,44,-1
 1512 600 l 1,45,-1
 1512 500 l 1,46,-1
 1125 500 l 1,47,-1
 1125 137 l 1,48,49
 1199 80 1199 80 1295 80 c 0,50,51
 1482 80 1482 80 1595 222 c 0,52,53
 1640 278 1640 278 1669 341 c 1,54,-1
 1801 248 l 1,55,56
 1767 203 1767 203 1725 161 c 0,57,58
 1544 -20 1544 -20 1277 -20 c 0,59,60
 1196 -20 1196 -20 1125 0 c 1,61,-1
 1041 0 l 1,0,1
EndSplineSet
Validated: 1
EndChar

StartChar: eth
Encoding: 240 240 137
Width: 1424
GlyphClass: 2
Flags: W
HStem: -20 100<463.008 800.119> 1020 100<545.221 729> 1510 20G<607.4 663>
VStem: 100 201<264.213 709.842> 1073 201<470.418 1026.24>
DStem2: 620 1287 691 1216 0.691832 0.722058<0 125.836 289.115 417.779>
LayerCount: 2
Fore
SplineSet
597 -20 m 0,0,1
 372 -20 372 -20 227 133 c 0,2,3
 100 267 100 267 100 477 c 0,4,5
 100 742 100 742 299 939 c 0,6,7
 482 1120 482 1120 747 1120 c 1,8,-1
 729 1020 l 1,9,10
 542 1020 542 1020 429 878 c 0,11,12
 301 719 301 719 301 497 c 0,13,14
 301 308 301 308 382 201 c 0,15,16
 475 80 475 80 615 80 c 0,17,18
 800 80 800 80 915 222 c 0,19,20
 1072 416 1072 416 1073 763 c 0,21,22
 1073 1045 1073 1045 912 1219 c 0,23,24
 859 1276 859 1276 796 1321 c 1,25,-1
 691 1216 l 1,26,-1
 620 1287 l 1,27,-1
 709 1376 l 1,28,29
 652 1407 652 1407 589 1430 c 1,30,-1
 612 1530 l 1,31,32
 714 1506 714 1506 802 1469 c 1,33,-1
 917 1584 l 1,34,-1
 988 1513 l 1,35,-1
 897 1422 l 1,36,37
 1013 1358 1013 1358 1098 1266 c 0,38,39
 1274 1076 1274 1076 1274 783 c 0,40,41
 1274 388 1274 388 1045 161 c 0,42,43
 863 -20 863 -20 597 -20 c 0,0,1
EndSplineSet
Validated: 1
EndChar

StartChar: divide
Encoding: 247 247 138
Width: 1180
GlyphClass: 2
Flags: W
HStem: 304 255<502.129 677.809> 680 150<150 1030> 951 255<502.129 677.809>
VStem: 464 252<343.222 520.809 990.222 1167.81>
CounterMasks: 1 e0
LayerCount: 2
Fore
SplineSet
150 830 m 1,0,-1
 1030 830 l 1,1,-1
 1030 680 l 1,2,-1
 150 680 l 1,3,-1
 150 830 l 1,0,-1
590 304 m 0,4,5
 537 304 537 304 501 342 c 0,6,7
 464 381 464 381 464 432 c 0,8,9
 464 481 464 481 501 521 c 24,10,11
 536 559 536 559 590 559 c 0,12,13
 642 559 642 559 679 522 c 0,14,15
 716 484 716 484 716 432 c 0,16,17
 716 379 716 379 679 341 c 24,18,19
 641 304 641 304 590 304 c 0,4,5
590 1206 m 0,20,21
 642 1206 642 1206 679 1169 c 0,22,23
 716 1131 716 1131 716 1079 c 0,24,25
 716 1026 716 1026 679 988 c 24,26,27
 641 951 641 951 590 951 c 0,28,29
 537 951 537 951 501 989 c 0,30,31
 464 1028 464 1028 464 1079 c 0,32,33
 464 1128 464 1128 501 1168 c 24,34,35
 536 1206 536 1206 590 1206 c 0,20,21
EndSplineSet
Validated: 1
EndChar

StartChar: oslash
Encoding: 248 248 139
Width: 1344
GlyphClass: 2
Flags: W
HStem: -20 100<479.203 800.129> 1020 100<543.63 864.797>
VStem: 100 201<264.213 709.842> 1043 201<390.158 835.787>
DStem2: 294 -5 380 -55 0.500153 0.865937<0 68.9489 212.349 1126.96 1270.36 1339.31>
LayerCount: 2
Fore
SplineSet
597 -20 m 0,0,1
 500 -20 500 -20 417 9 c 1,2,-1
 380 -55 l 1,3,-1
 294 -5 l 1,4,-1
 327 52 l 1,5,6
 273 85 273 85 227 133 c 0,7,8
 100 267 100 267 100 477 c 0,9,10
 100 742 100 742 299 939 c 0,11,12
 482 1120 482 1120 747 1120 c 0,13,14
 844 1120 844 1120 927 1091 c 1,15,-1
 964 1155 l 1,16,-1
 1050 1105 l 1,17,-1
 1017 1048 l 1,18,19
 1071 1015 1071 1015 1117 967 c 0,20,21
 1244 833 1244 833 1244 623 c 0,22,23
 1244 358 1244 358 1045 161 c 0,24,25
 861 -20 861 -20 597 -20 c 0,0,1
615 80 m 0,26,27
 802 80 802 80 915 222 c 0,28,29
 1043 381 1043 381 1043 603 c 0,30,31
 1043 792 1043 792 962 899 c 0,32,33
 953 911 953 911 944 921 c 1,34,-1
 478 115 l 1,35,36
 540 80 540 80 615 80 c 0,26,27
400 179 m 1,37,-1
 866 985 l 1,38,39
 804 1020 804 1020 729 1020 c 0,40,41
 542 1020 542 1020 429 878 c 0,42,43
 301 719 301 719 301 497 c 0,44,45
 301 308 301 308 382 201 c 0,46,47
 391 189 391 189 400 179 c 1,37,-1
EndSplineSet
Validated: 1
EndChar

StartChar: thorn
Encoding: 254 254 140
Width: 1391
GlyphClass: 2
Flags: W
HStem: -410 21G<200 380> -20 87<515.994 822.144> 1012 108<608.277 934.717> 1500 10<70 81.9019>
VStem: 200 180<-410 754.778 866 1447.57> 1090 201<390.158 835.787>
LayerCount: 2
Fore
SplineSet
200 -410 m 1,0,-1
 200 1326 l 2,1,2
 200 1456 200 1456 70 1500 c 1,3,-1
 70 1510 l 1,4,-1
 284 1510 l 1,5,6
 380 1461 380 1461 380 1326 c 2,7,-1
 380 866 l 1,8,9
 452 985 452 985 551 1051 c 0,10,11
 653 1120 653 1120 794 1120 c 0,12,13
 1019 1120 1019 1120 1164 967 c 0,14,15
 1291 833 1291 833 1291 623 c 0,16,17
 1291 358 1291 358 1092 161 c 0,18,19
 909 -20 909 -20 674 -20 c 0,20,21
 530 -20 530 -20 450 83 c 1,22,-1
 458 91 l 1,23,24
 542 67 542 67 630 67 c 0,25,26
 837 67 837 67 962 222 c 0,27,28
 1090 381 1090 381 1090 603 c 0,29,30
 1090 792 1090 792 1009 899 c 0,31,32
 924 1012 924 1012 776 1012 c 0,33,34
 636 1012 636 1012 534 912 c 0,35,36
 380 760 380 760 380 541 c 2,37,-1
 380 -410 l 1,38,-1
 200 -410 l 1,0,-1
EndSplineSet
Validated: 1
EndChar

StartChar: Dcroat
Encoding: 272 272 141
Width: 1736
GlyphClass: 2
Flags: W
HStem: -20 87<572.26 967.957> 0 21G<200 400> 705 100<100 200 400 770> 1410 120<708.551 1130.37> 1500 10<70 81.9019>
VStem: 200 200<0 705 805 1094.59 1216 1447.57> 1416 220<574.342 1089.87>
LayerCount: 2
Fore
SplineSet
200 0 m 1,0,-1
 200 705 l 1,1,-1
 100 705 l 1,2,-1
 100 805 l 1,3,-1
 200 805 l 1,4,-1
 200 1326 l 2,5,6
 200 1456 200 1456 70 1500 c 1,7,-1
 70 1510 l 1,8,-1
 304 1510 l 1,9,10
 400 1461 400 1461 400 1326 c 2,11,-1
 400 1216 l 1,12,13
 486 1359 486 1359 620 1442 c 0,14,15
 761 1530 761 1530 948 1530 c 0,16,17
 1270 1530 1270 1530 1465 1325 c 0,18,19
 1636 1145 1636 1145 1636 862 c 0,20,21
 1636 466 1636 466 1352 204 c 0,22,23
 1109 -20 1109 -20 765 -20 c 0,24,25
 558 -20 558 -20 466 119 c 1,26,-1
 474 127 l 1,27,28
 582 67 582 67 726 67 c 0,29,30
 1023 67 1023 67 1215 280 c 0,31,32
 1416 503 1416 503 1416 839 c 0,33,34
 1416 1071 1416 1071 1294 1233 c 0,35,36
 1162 1410 1162 1410 913 1410 c 0,37,38
 699 1410 699 1410 549 1251 c 0,39,40
 400 1092 400 1092 400 873 c 2,41,-1
 400 805 l 1,42,-1
 770 805 l 1,43,-1
 770 705 l 1,44,-1
 400 705 l 1,45,-1
 400 0 l 1,46,-1
 200 0 l 1,0,-1
EndSplineSet
Validated: 1
EndChar

StartChar: dcroat
Encoding: 273 273 142
Width: 1391
GlyphClass: 2
Flags: W
HStem: -20 108<456.283 782.723> 0 10<1309.1 1321> 1033 87<568.856 875.006> 1226 100<721 1011 1191 1291> 1500 10<881 892.902>
VStem: 100 201<264.213 709.842> 1011 180<62.4312 234 345.222 1226 1326 1447.57>
LayerCount: 2
Fore
SplineSet
1107 0 m 1,0,1
 1011 49 1011 49 1011 184 c 2,2,-1
 1011 234 l 1,3,4
 939 115 939 115 840 49 c 0,5,6
 738 -20 738 -20 597 -20 c 0,7,8
 372 -20 372 -20 227 133 c 0,9,10
 100 267 100 267 100 477 c 0,11,12
 100 742 100 742 299 939 c 0,13,14
 482 1120 482 1120 717 1120 c 0,15,16
 861 1120 861 1120 941 1017 c 1,17,-1
 933 1009 l 1,18,19
 849 1033 849 1033 761 1033 c 0,20,21
 554 1033 554 1033 429 878 c 0,22,23
 301 719 301 719 301 497 c 0,24,25
 301 308 301 308 382 201 c 0,26,27
 467 88 467 88 615 88 c 0,28,29
 755 88 755 88 857 188 c 0,30,31
 1011 340 1011 340 1011 559 c 2,32,-1
 1011 1226 l 1,33,-1
 721 1226 l 1,34,-1
 721 1326 l 1,35,-1
 1011 1326 l 1,36,37
 1011 1456 1011 1456 881 1500 c 1,38,-1
 881 1510 l 1,39,-1
 1095 1510 l 1,40,41
 1191 1461 1191 1461 1191 1326 c 1,42,-1
 1291 1326 l 1,43,-1
 1291 1226 l 1,44,-1
 1191 1226 l 1,45,-1
 1191 184 l 2,46,47
 1191 54 1191 54 1321 10 c 1,48,-1
 1321 0 l 1,49,-1
 1107 0 l 1,0,1
EndSplineSet
Validated: 1
EndChar

StartChar: Hbar
Encoding: 294 294 143
Width: 1572
GlyphClass: 2
Flags: W
HStem: 0 10<1490.1 1502> 696 120<400 1172> 1226 100<100 200 400 1172 1372 1472> 1500 10<70 81.9019>
VStem: 200 200<0 696 816 1226 1326 1447.57> 1172 200<62.4312 696 816 1226 1326 1510>
LayerCount: 2
Fore
SplineSet
200 0 m 1,0,-1
 200 1226 l 1,1,-1
 100 1226 l 1,2,-1
 100 1326 l 1,3,-1
 200 1326 l 1,4,5
 200 1456 200 1456 70 1500 c 1,6,-1
 70 1510 l 1,7,-1
 304 1510 l 1,8,9
 400 1461 400 1461 400 1326 c 1,10,-1
 1172 1326 l 1,11,-1
 1172 1510 l 1,12,-1
 1372 1510 l 1,13,-1
 1372 1326 l 1,14,-1
 1472 1326 l 1,15,-1
 1472 1226 l 1,16,-1
 1372 1226 l 1,17,-1
 1372 184 l 2,18,19
 1372 54 1372 54 1502 10 c 1,20,-1
 1502 0 l 1,21,-1
 1268 0 l 1,22,23
 1172 49 1172 49 1172 184 c 2,24,-1
 1172 696 l 1,25,-1
 400 696 l 1,26,-1
 400 0 l 1,27,-1
 200 0 l 1,0,-1
1172 1226 m 1,28,-1
 400 1226 l 1,29,-1
 400 816 l 1,30,-1
 1172 816 l 1,31,-1
 1172 1226 l 1,28,-1
EndSplineSet
Validated: 1
EndChar

StartChar: hbar
Encoding: 295 295 144
Width: 1345
GlyphClass: 2
Flags: W
HStem: 0 21G<200 380 813 1018.5> 1000 120<575.743 888.391> 1226 100<130 200 380 670> 1500 10<70 81.9019>
VStem: 200 180<0 761.203 887 1226 1326 1447.57> 1043 202<366.254 814.58>
LayerCount: 2
Fore
SplineSet
200 0 m 1,0,-1
 200 1226 l 1,1,-1
 130 1226 l 1,2,-1
 130 1326 l 1,3,-1
 200 1326 l 1,4,5
 200 1456 200 1456 70 1500 c 1,6,-1
 70 1510 l 1,7,-1
 284 1510 l 1,8,9
 380 1461 380 1461 380 1326 c 1,10,-1
 670 1326 l 1,11,-1
 670 1226 l 1,12,-1
 380 1226 l 1,13,-1
 380 887 l 1,14,15
 443 990 443 990 537 1054 c 0,16,17
 634 1120 634 1120 768 1120 c 0,18,19
 963 1120 963 1120 1084 1001 c 0,20,21
 1245 844 1245 844 1245 622 c 0,22,23
 1245 422 1245 422 1149 254 c 0,24,25
 1076 127 1076 127 961 0 c 1,26,-1
 813 0 l 1,27,28
 926 152 926 152 986 296 c 0,29,30
 1043 431 1043 431 1043 587 c 0,31,32
 1043 766 1043 766 959 885 c 0,33,34
 877 1000 877 1000 733 1000 c 128,-1,35
 589 1000 589 1000 497 884 c 0,36,37
 380 736 380 736 380 541 c 2,38,-1
 380 0 l 1,39,-1
 200 0 l 1,0,-1
EndSplineSet
Validated: 1
EndChar

StartChar: kgreenlandic
Encoding: 312 312 145
Width: 1306
GlyphClass: 2
Flags: W
HStem: 0 21G<200 380 933.803 1246> 219 100<380 631.845> 1090 10<70 81.9019>
VStem: 200 180<0 219 319 1037.57> 937 158<619.06 1010.96> 959 287<0 287>
DStem2: 815 347 639 254 0.778926 -0.627116<0 329.775>
LayerCount: 2
Fore
SplineSet
200 0 m 1,0,-1
 200 916 l 2,1,2
 200 1046 200 1046 70 1090 c 1,3,-1
 70 1100 l 1,4,-1
 284 1100 l 1,5,6
 380 1051 380 1051 380 916 c 2,7,-1
 380 319 l 1,8,9
 719 319 719 319 866 566 c 0,10,11
 937 685 937 685 937 830 c 0,12,13
 937 988 937 988 826 1100 c 1,14,15
 1026 1100 l 1,16,17
 1095 976 1095 976 1095 832 c 0,18,19
 1095 679 1095 679 1016 555 c 0,20,21
 945 444 945 444 815 347 c 1,22,-1
 1246 0 l 1,23,-1
 959 0 l 1,24,-1
 639 254 l 1,25,26
 525 223 525 223 380 219 c 1,27,-1
 380 0 l 1,28,-1
 200 0 l 1,0,-1
EndSplineSet
Validated: 1
EndChar

StartChar: Lslash
Encoding: 321 321 146
Width: 1048
GlyphClass: 2
Flags: W
HStem: 0 120<400 965.081> 1500 10<70 81.9019>
VStem: 200 200<120 561 793 1447.57> 1018 10<238.098 250>
DStem2: 120 631 170 544 0.865937 0.500153<0 34.2642 323.487 669.578>
LayerCount: 2
Fore
SplineSet
200 0 m 1,0,-1
 200 561 l 1,1,-1
 170 544 l 1,2,-1
 120 631 l 1,3,-1
 200 677 l 1,4,-1
 200 1326 l 2,5,6
 200 1456 200 1456 70 1500 c 1,7,-1
 70 1510 l 1,8,-1
 304 1510 l 1,9,10
 400 1461 400 1461 400 1326 c 2,11,-1
 400 793 l 1,12,-1
 700 966 l 1,13,-1
 750 879 l 1,14,-1
 400 677 l 1,15,-1
 400 120 l 1,16,-1
 844 120 l 2,17,18
 973 120 973 120 1018 250 c 1,19,-1
 1028 250 l 1,20,-1
 1028 96 l 1,21,22
 980 0 980 0 844 0 c 2,23,-1
 200 0 l 1,0,-1
EndSplineSet
Validated: 1
EndChar

StartChar: lslash
Encoding: 322 322 147
Width: 710
GlyphClass: 2
Flags: W
HStem: 0 10<563.098 575> 1500 10<135 146.902>
VStem: 265 180<62.4312 645 865 1447.57>
DStem2: 40 631 90 544 0.865937 0.500153<0 201.838 467.74 669.578>
LayerCount: 2
Fore
SplineSet
361 0 m 1,0,1
 265 49 265 49 265 184 c 2,2,-1
 265 645 l 1,3,-1
 90 544 l 1,4,-1
 40 631 l 1,5,-1
 265 761 l 1,6,-1
 265 1326 l 2,7,8
 265 1456 265 1456 135 1500 c 1,9,-1
 135 1510 l 1,10,-1
 349 1510 l 1,11,12
 445 1461 445 1461 445 1326 c 2,13,-1
 445 865 l 1,14,-1
 620 966 l 1,15,-1
 670 879 l 1,16,-1
 445 749 l 1,17,-1
 445 184 l 2,18,19
 445 54 445 54 575 10 c 1,20,-1
 575 0 l 1,21,-1
 361 0 l 1,0,1
EndSplineSet
Validated: 1
EndChar

StartChar: Eng
Encoding: 330 330 148
Width: 1614
GlyphClass: 2
Flags: W
HStem: -410 21G<1007 1238> 0 21G<200 400> 1396 134<691.77 1032.16> 1500 10<70 81.9019>
VStem: 200 200<0 1087.65 1216 1447.57> 1294 220<256.926 993.828>
LayerCount: 2
Fore
SplineSet
200 0 m 1,0,-1
 200 1326 l 2,1,2
 200 1456 200 1456 70 1500 c 1,3,-1
 70 1510 l 1,4,-1
 304 1510 l 1,5,6
 400 1461 400 1461 400 1326 c 2,7,-1
 400 1216 l 1,8,9
 484 1354 484 1354 616 1444 c 0,10,11
 742 1530 742 1530 908 1530 c 0,12,13
 1204 1530 1204 1530 1376 1225 c 0,14,15
 1514 981 1514 981 1514 647 c 0,16,17
 1514 326 1514 326 1404 35 c 0,18,19
 1316 -198 1316 -198 1160 -410 c 1,20,-1
 1007 -410 l 1,21,22
 1148 -175 1148 -175 1223 94 c 0,23,24
 1294 351 1294 351 1294 626 c 0,25,26
 1294 920 1294 920 1201 1136 c 0,27,28
 1089 1396 1089 1396 877 1396 c 0,29,30
 674 1396 674 1396 549 1251 c 0,31,32
 400 1078 400 1078 400 873 c 2,33,-1
 400 0 l 1,34,-1
 200 0 l 1,0,-1
EndSplineSet
Validated: 1
EndChar

StartChar: eng
Encoding: 331 331 149
Width: 1345
GlyphClass: 2
Flags: W
HStem: -410 21G<813 1023.5> 0 21G<200 380> 1000 120<575.893 868.127> 1090 10<70 81.9019>
VStem: 200 180<0 761.203 887 1037.57> 1043 202<73.3434 735.92>
LayerCount: 2
Fore
SplineSet
200 0 m 1,0,-1
 200 916 l 2,1,2
 200 1046 200 1046 70 1090 c 1,3,-1
 70 1100 l 1,4,-1
 284 1100 l 1,5,6
 380 1051 380 1051 380 916 c 2,7,-1
 380 887 l 1,8,9
 443 990 443 990 537 1054 c 0,10,11
 634 1120 634 1120 763 1120 c 0,12,13
 983 1120 983 1120 1121 907 c 0,14,15
 1245 716 1245 716 1245 417 c 0,16,17
 1245 167 1245 167 1157 -66 c 0,18,19
 1086 -254 1086 -254 961 -410 c 1,20,-1
 813 -410 l 1,21,22
 943 -209 943 -209 997 -28 c 0,23,24
 1043 127 1043 127 1043 382 c 0,25,26
 1043 630 1043 630 982 790 c 0,27,28
 903 1000 903 1000 733 1000 c 0,29,30
 590 1000 590 1000 497 884 c 0,31,32
 380 736 380 736 380 541 c 2,33,-1
 380 0 l 1,34,-1
 200 0 l 1,0,-1
EndSplineSet
Validated: 1
EndChar

StartChar: OE
Encoding: 338 338 150
Width: 2540
GlyphClass: 2
Flags: W
HStem: -20 120<605.003 1051.55 1573.27 2017.65> 696 120<1658 2086> 1410 120<706.834 1155.43 1679.29 2124>
VStem: 100 220<420.134 939.165> 1439 220<568.598 696 816 1089.82>
LayerCount: 2
Fore
SplineSet
818 100 m 0,0,1
 1079 100 1079 100 1238 280 c 0,2,3
 1439 507 1439 507 1439 839 c 0,4,5
 1439 1071 1439 1071 1317 1233 c 0,6,7
 1185 1410 1185 1410 941 1410 c 0,8,9
 680 1410 680 1410 521 1230 c 0,10,11
 320 1003 320 1003 320 671 c 0,12,13
 320 439 320 439 442 277 c 0,14,15
 574 100 574 100 818 100 c 0,0,1
788 -20 m 0,16,17
 466 -20 466 -20 271 185 c 0,18,19
 100 365 100 365 100 648 c 0,20,21
 100 1044 100 1044 384 1306 c 0,22,23
 627 1530 627 1530 971 1530 c 0,24,25
 1254 1530 1254 1530 1438 1372 c 1,26,27
 1655 1528 1655 1528 1942 1528 c 0,28,29
 2264 1528 2264 1528 2459 1323 c 1,30,-1
 2286 1233 l 1,31,32
 2154 1410 2154 1410 1910 1410 c 0,33,34
 1682 1410 1682 1410 1532 1273 c 1,35,36
 1659 1106 1659 1106 1659 862 c 0,37,38
 1659 839 1659 839 1658 816 c 1,39,-1
 2086 816 l 1,40,-1
 2086 696 l 1,41,-1
 1646 696 l 1,42,43
 1604 445 1604 445 1427 256 c 1,44,45
 1557 100 1557 100 1787 100 c 0,46,47
 2047 100 2047 100 2207 280 c 0,48,49
 2270 351 2270 351 2313 432 c 1,50,-1
 2460 327 l 1,51,52
 2413 264 2413 264 2346 202 c 0,53,54
 2105 -20 2105 -20 1759 -20 c 0,55,56
 1475 -20 1475 -20 1292 136 c 1,57,58
 1075 -20 1075 -20 788 -20 c 0,16,17
EndSplineSet
Validated: 1
EndChar

StartChar: oe
Encoding: 339 339 151
Width: 1882
GlyphClass: 2
Flags: W
HStem: -20 100<463.008 801.082 1143.55 1481.85> 500 100<1244 1513> 1020 100<543.63 881.453 1225.44 1556.04>
VStem: 100 201<264.213 709.842> 1043 201<600 836.371>
CounterMasks: 1 e0
LayerCount: 2
Fore
SplineSet
615 80 m 0,0,1
 802 80 802 80 915 222 c 0,2,3
 1043 381 1043 381 1043 603 c 0,4,5
 1043 792 1043 792 962 899 c 0,6,7
 869 1020 869 1020 729 1020 c 0,8,9
 542 1020 542 1020 429 878 c 0,10,11
 301 719 301 719 301 497 c 0,12,13
 301 308 301 308 382 201 c 0,14,15
 475 80 475 80 615 80 c 0,0,1
597 -20 m 0,16,17
 372 -20 372 -20 227 133 c 0,18,19
 100 267 100 267 100 477 c 0,20,21
 100 742 100 742 299 939 c 0,22,23
 482 1120 482 1120 747 1120 c 0,24,25
 936 1120 936 1120 1068 1012 c 1,26,27
 1224 1120 1224 1120 1428 1120 c 0,28,29
 1653 1120 1653 1120 1798 967 c 1,30,-1
 1650 890 l 1,31,32
 1548 1020 1548 1020 1410 1020 c 0,33,34
 1256 1020 1256 1020 1153 924 c 1,35,36
 1244 801 1244 801 1244 623 c 0,37,38
 1244 611 1244 611 1244 600 c 1,39,-1
 1513 600 l 1,40,-1
 1513 500 l 1,41,-1
 1233 500 l 1,42,43
 1200 329 1200 329 1072 189 c 1,44,45
 1163 80 1163 80 1296 80 c 0,46,47
 1483 80 1483 80 1596 222 c 0,48,49
 1641 278 1641 278 1670 341 c 1,50,-1
 1802 248 l 1,51,52
 1768 203 1768 203 1726 161 c 0,53,54
 1545 -20 1545 -20 1278 -20 c 0,55,56
 1089 -20 1089 -20 957 88 c 1,57,58
 801 -20 801 -20 597 -20 c 0,16,17
EndSplineSet
Validated: 1
EndChar

StartChar: Tbar
Encoding: 358 358 152
Width: 1160
GlyphClass: 2
Flags: W
HStem: 0 21G<480 680> 659 100<295 480 680 865> 1390 120<82.9189 480 680 1140>
VStem: 20 10<1260 1271.9> 480 200<0 659 759 1390>
LayerCount: 2
Fore
SplineSet
480 0 m 1,0,-1
 480 659 l 1,1,-1
 295 659 l 1,2,-1
 295 759 l 1,3,-1
 480 759 l 1,4,-1
 480 1390 l 1,5,-1
 204 1390 l 2,6,7
 75 1390 75 1390 30 1260 c 1,8,-1
 20 1260 l 1,9,-1
 20 1414 l 1,10,11
 68 1510 68 1510 204 1510 c 2,12,-1
 1140 1510 l 1,13,-1
 1140 1390 l 1,14,-1
 680 1390 l 1,15,-1
 680 759 l 1,16,-1
 865 759 l 1,17,-1
 865 659 l 1,18,-1
 680 659 l 1,19,-1
 680 0 l 1,20,-1
 480 0 l 1,0,-1
EndSplineSet
Validated: 1
EndChar

StartChar: tbar
Encoding: 359 359 153
Width: 700
GlyphClass: 2
Flags: W
HStem: 0 10<498.098 510> 552 100<60 200 380 520> 1000 100<60 200 380 680> 1500 10<70 81.9019>
VStem: 200 180<62.4312 552 652 1000 1100 1447.57>
LayerCount: 2
Fore
SplineSet
296 0 m 1,0,1
 200 49 200 49 200 184 c 2,2,-1
 200 552 l 1,3,-1
 60 552 l 1,4,-1
 60 652 l 1,5,-1
 200 652 l 1,6,-1
 200 1000 l 1,7,-1
 60 1000 l 1,8,-1
 60 1100 l 1,9,-1
 200 1100 l 1,10,-1
 200 1326 l 2,11,12
 200 1456 200 1456 70 1500 c 1,13,-1
 70 1510 l 1,14,-1
 284 1510 l 1,15,16
 380 1461 380 1461 380 1326 c 2,17,-1
 380 1100 l 1,18,-1
 680 1100 l 1,19,-1
 680 1000 l 1,20,-1
 380 1000 l 1,21,-1
 380 652 l 1,22,-1
 520 652 l 1,23,-1
 520 552 l 1,24,-1
 380 552 l 1,25,-1
 380 184 l 2,26,27
 380 54 380 54 510 10 c 1,28,-1
 510 0 l 1,29,-1
 296 0 l 1,0,1
EndSplineSet
Validated: 1
EndChar

StartChar: longs
Encoding: 383 383 154
Width: 1119
GlyphClass: 2
Flags: W
HStem: 0 21G<220 400> 706 100<20 220> 1430 100<658.189 1043.12>
VStem: 220 180<0 706 806 1119.92>
LayerCount: 2
Fore
SplineSet
220 0 m 1,0,-1
 220 706 l 1,1,-1
 20 706 l 1,2,-1
 20 806 l 1,3,-1
 220 806 l 1,4,-1
 220 887 l 2,5,6
 220 1152 220 1152 419 1349 c 0,7,8
 603 1530 603 1530 867 1530 c 0,9,10
 1003 1530 1003 1530 1109 1475 c 1,11,-1
 1028 1366 l 1,12,13
 951 1430 951 1430 849 1430 c 0,14,15
 660 1430 660 1430 539 1292 c 0,16,17
 400 1134 400 1134 400 867 c 2,18,-1
 400 0 l 1,19,-1
 220 0 l 1,0,-1
EndSplineSet
Validated: 1
EndChar

StartChar: florin
Encoding: 402 402 155
Width: 1099
GlyphClass: 2
Flags: W
HStem: -430 100<40 155.547> 706 100<100 200 380 852> 1430 100<638.189 1023.12>
VStem: 200 180<-285.868 706 806 1120.5>
LayerCount: 2
Fore
SplineSet
40 -430 m 1,0,-1
 40 -330 l 1,1,2
 200 -330 200 -330 200 -151 c 2,3,-1
 200 706 l 1,4,-1
 100 706 l 1,5,-1
 100 806 l 1,6,-1
 200 806 l 1,7,-1
 200 887 l 2,8,9
 200 1152 200 1152 399 1349 c 0,10,11
 583 1530 583 1530 847 1530 c 0,12,13
 983 1530 983 1530 1089 1475 c 1,14,-1
 1008 1366 l 1,15,16
 931 1430 931 1430 829 1430 c 0,17,18
 640 1430 640 1430 519 1292 c 0,19,20
 380 1134 380 1134 380 806 c 1,21,-1
 852 806 l 1,22,-1
 852 706 l 1,23,-1
 380 706 l 1,24,-1
 380 -151 l 2,25,26
 380 -430 380 -430 40 -430 c 1,0,-1
EndSplineSet
Validated: 1
EndChar

StartChar: endash
Encoding: 8211 8211 156
Width: 1180
GlyphClass: 2
Flags: W
HStem: 680 150<150 1030>
LayerCount: 2
Fore
SplineSet
150 830 m 1,0,-1
 1030 830 l 1,1,-1
 1030 680 l 1,2,-1
 150 680 l 1,3,-1
 150 830 l 1,0,-1
EndSplineSet
Validated: 1
EndChar

StartChar: emdash
Encoding: 8212 8212 157
Width: 1480
GlyphClass: 2
Flags: W
HStem: 680 150<150 1330>
LayerCount: 2
Fore
SplineSet
150 830 m 1,0,-1
 1330 830 l 1,1,-1
 1330 680 l 1,2,-1
 150 680 l 1,3,-1
 150 830 l 1,0,-1
EndSplineSet
Validated: 1
EndChar

StartChar: afii00208
Encoding: 8213 8213 158
Width: 1480
GlyphClass: 2
Flags: W
HStem: 680 150<150 1330>
LayerCount: 2
Fore
SplineSet
150 830 m 1,0,-1
 1330 830 l 1,1,-1
 1330 680 l 1,2,-1
 150 680 l 1,3,-1
 150 830 l 1,0,-1
EndSplineSet
Validated: 1
EndChar

StartChar: quoteleft
Encoding: 8216 8216 159
Width: 352
GlyphClass: 2
Flags: W
HStem: 1065 485
VStem: 50 140<1214.88 1415>
LayerCount: 2
Fore
SplineSet
223 1550 m 1,0,-1
 305 1462 l 1,1,2
 191 1412 191 1412 190 1312 c 0,3,4
 190 1214 190 1214 310 1172 c 1,5,-1
 222 1065 l 1,6,7
 50 1147 50 1147 50 1302 c 0,8,9
 50 1468 50 1468 223 1550 c 1,0,-1
EndSplineSet
Validated: 1
EndChar

StartChar: quoteright
Encoding: 8217 8217 160
Width: 352
GlyphClass: 2
Flags: W
HStem: 1065 485
VStem: 162 140<1200 1400.12>
LayerCount: 2
Fore
SplineSet
130 1550 m 1,0,1
 302 1468 302 1468 302 1313 c 0,2,3
 302 1147 302 1147 129 1065 c 1,4,-1
 47 1153 l 1,5,6
 161 1203 161 1203 162 1303 c 0,7,8
 162 1401 162 1401 42 1443 c 1,9,-1
 130 1550 l 1,0,1
EndSplineSet
Validated: 1
EndChar

StartChar: quotesinglbase
Encoding: 8218 8218 161
Width: 352
GlyphClass: 2
Flags: W
HStem: -270 485
VStem: 162 140<-134.998 65.12>
LayerCount: 2
Fore
SplineSet
130 215 m 1,0,1
 302 133 302 133 302 -22 c 0,2,3
 302 -188 302 -188 129 -270 c 1,4,-1
 47 -182 l 1,5,6
 161 -132 161 -132 162 -32 c 0,7,8
 162 66 162 66 42 108 c 1,9,-1
 130 215 l 1,0,1
EndSplineSet
Validated: 1
EndChar

StartChar: quotereversed
Encoding: 8219 8219 162
Width: 352
GlyphClass: 2
Flags: W
HStem: 1065 485
VStem: 50 140<1200 1400.12>
LayerCount: 2
Fore
SplineSet
222 1550 m 1,0,1
 310 1443 l 1,2,3
 190 1401 190 1401 190 1303 c 0,4,5
 191 1203 191 1203 305 1153 c 1,6,-1
 223 1065 l 1,7,8
 50 1147 50 1147 50 1313 c 0,9,10
 50 1468 50 1468 222 1550 c 1,0,1
EndSplineSet
Validated: 1
EndChar

StartChar: quotedblleft
Encoding: 8220 8220 163
Width: 652
GlyphClass: 2
Flags: W
HStem: 1065 485
VStem: 50 140<1214.88 1415> 350 140<1214.88 1415>
LayerCount: 2
Fore
SplineSet
223 1550 m 1,0,-1
 305 1462 l 1,1,2
 191 1412 191 1412 190 1312 c 0,3,4
 190 1214 190 1214 310 1172 c 1,5,-1
 222 1065 l 1,6,7
 50 1147 50 1147 50 1302 c 0,8,9
 50 1468 50 1468 223 1550 c 1,0,-1
523 1550 m 1,10,-1
 605 1462 l 1,11,12
 491 1412 491 1412 490 1312 c 0,13,14
 490 1214 490 1214 610 1172 c 1,15,-1
 522 1065 l 1,16,17
 350 1147 350 1147 350 1302 c 0,18,19
 350 1468 350 1468 523 1550 c 1,10,-1
EndSplineSet
Validated: 1
EndChar

StartChar: quotedblright
Encoding: 8221 8221 164
Width: 652
GlyphClass: 2
Flags: W
HStem: 1065 485
VStem: 162 140<1200 1400.12> 462 140<1200 1400.12>
LayerCount: 2
Fore
SplineSet
430 1550 m 1,0,1
 602 1468 602 1468 602 1313 c 0,2,3
 602 1147 602 1147 429 1065 c 1,4,-1
 347 1153 l 1,5,6
 461 1203 461 1203 462 1303 c 0,7,8
 462 1401 462 1401 342 1443 c 1,9,-1
 430 1550 l 1,0,1
130 1550 m 1,10,11
 302 1468 302 1468 302 1313 c 0,12,13
 302 1147 302 1147 129 1065 c 1,14,-1
 47 1153 l 1,15,16
 161 1203 161 1203 162 1303 c 0,17,18
 162 1401 162 1401 42 1443 c 1,19,-1
 130 1550 l 1,10,11
EndSplineSet
Validated: 1
EndChar

StartChar: quotedblbase
Encoding: 8222 8222 165
Width: 652
GlyphClass: 2
Flags: W
HStem: -270 485
VStem: 162 140<-134.998 65.12> 462 140<-134.998 65.12>
LayerCount: 2
Fore
SplineSet
430 215 m 1,0,1
 602 133 602 133 602 -22 c 0,2,3
 602 -188 602 -188 429 -270 c 1,4,-1
 347 -182 l 1,5,6
 461 -132 461 -132 462 -32 c 0,7,8
 462 66 462 66 342 108 c 1,9,-1
 430 215 l 1,0,1
130 215 m 1,10,11
 302 133 302 133 302 -22 c 0,12,13
 302 -188 302 -188 129 -270 c 1,14,-1
 47 -182 l 1,15,16
 161 -132 161 -132 162 -32 c 0,17,18
 162 66 162 66 42 108 c 1,19,-1
 130 215 l 1,10,11
EndSplineSet
Validated: 1
EndChar

StartChar: dagger
Encoding: 8224 8224 166
Width: 1180
GlyphClass: 2
Flags: W
HStem: 0 21G<490 690> 1049 120<150 490 690 1030> 1490 20G<490 690>
VStem: 490 200<0 1049 1169 1510>
LayerCount: 2
Fore
SplineSet
490 0 m 1,0,-1
 490 1049 l 1,1,-1
 150 1049 l 1,2,-1
 150 1169 l 1,3,-1
 490 1169 l 1,4,-1
 490 1510 l 1,5,-1
 690 1510 l 1,6,-1
 690 1169 l 1,7,-1
 1030 1169 l 1,8,-1
 1030 1049 l 1,9,-1
 690 1049 l 1,10,-1
 690 0 l 1,11,-1
 490 0 l 1,0,-1
EndSplineSet
Validated: 1
EndChar

StartChar: daggerdbl
Encoding: 8225 8225 167
Width: 1180
GlyphClass: 2
Flags: W
HStem: 0 21G<490 690> 341 120<150 490 690 1030> 1049 120<150 490 690 1030> 1490 20G<490 690>
VStem: 490 200<0 341 461 1049 1169 1510>
LayerCount: 2
Fore
SplineSet
490 0 m 1,0,-1
 490 341 l 1,1,-1
 150 341 l 1,2,-1
 150 461 l 1,3,-1
 490 461 l 1,4,-1
 490 1049 l 1,5,-1
 150 1049 l 1,6,-1
 150 1169 l 1,7,-1
 490 1169 l 1,8,-1
 490 1510 l 1,9,-1
 690 1510 l 1,10,-1
 690 1169 l 1,11,-1
 1030 1169 l 1,12,-1
 1030 1049 l 1,13,-1
 690 1049 l 1,14,-1
 690 461 l 1,15,-1
 1030 461 l 1,16,-1
 1030 341 l 1,17,-1
 690 341 l 1,18,-1
 690 0 l 1,19,-1
 490 0 l 1,0,-1
EndSplineSet
Validated: 1
EndChar

StartChar: bullet
Encoding: 8226 8226 168
Width: 930
GlyphClass: 2
Flags: W
HStem: 443 626<335.657 594.343>
VStem: 150 630<628.734 883.266>
LayerCount: 2
Fore
SplineSet
507 1069 m 0,0,1
 630 1069 630 1069 709 985 c 0,2,3
 780 910 780 910 780 796 c 0,4,5
 780 650 780 650 670 543 c 0,6,7
 567 443 567 443 423 443 c 0,8,9
 301 443 301 443 221 527 c 0,10,11
 150 602 150 602 150 716 c 0,12,13
 150 862 150 862 260 969 c 0,14,15
 363 1069 363 1069 507 1069 c 0,0,1
EndSplineSet
Validated: 1
EndChar

StartChar: ellipsis
Encoding: 8230 8230 169
Width: 1072
GlyphClass: 2
Flags: W
HStem: -20 255<88.1292 263.809 448.129 623.809 808.129 983.809>
VStem: 50 252<19.2217 196.809> 410 252<19.2217 196.809> 770 252<19.2217 196.809>
CounterMasks: 1 70
LayerCount: 2
Fore
SplineSet
896 -20 m 0,0,1
 843 -20 843 -20 807 18 c 0,2,3
 770 57 770 57 770 108 c 0,4,5
 770 157 770 157 807 197 c 24,6,7
 842 235 842 235 896 235 c 0,8,9
 948 235 948 235 985 198 c 0,10,11
 1022 160 1022 160 1022 108 c 0,12,13
 1022 55 1022 55 985 17 c 24,14,15
 947 -20 947 -20 896 -20 c 0,0,1
536 -20 m 0,16,17
 483 -20 483 -20 447 18 c 0,18,19
 410 57 410 57 410 108 c 0,20,21
 410 157 410 157 447 197 c 24,22,23
 482 235 482 235 536 235 c 0,24,25
 588 235 588 235 625 198 c 0,26,27
 662 160 662 160 662 108 c 0,28,29
 662 55 662 55 625 17 c 24,30,31
 587 -20 587 -20 536 -20 c 0,16,17
176 -20 m 0,32,33
 123 -20 123 -20 87 18 c 0,34,35
 50 57 50 57 50 108 c 0,36,37
 50 157 50 157 87 197 c 24,38,39
 122 235 122 235 176 235 c 0,40,41
 228 235 228 235 265 198 c 0,42,43
 302 160 302 160 302 108 c 0,44,45
 302 55 302 55 265 17 c 24,46,47
 227 -20 227 -20 176 -20 c 0,32,33
EndSplineSet
Validated: 1
EndChar

StartChar: perthousand
Encoding: 8240 8240 170
Width: 2191
GlyphClass: 2
Flags: W
HStem: -20 93<929.693 1145.71 1601.69 1817.71> 0 21G<250 437.166> 513 93<962.295 1178.08 1634.29 1850.08> 904 93<340.923 556.705> 1437 93<373.295 589.307> 1490 20G<1081.83 1269>
VStem: 150 141<1051.26 1345.2> 639 141<1088.8 1382.74> 739 141<127.257 421.204> 1228 141<164.796 458.743> 1411 141<127.257 421.204> 1900 141<164.796 458.743>
DStem2: 250 0 426 0 0.487458 0.873146<85.7927 1729.38>
LayerCount: 2
Fore
SplineSet
1684 -20 m 0,0,1
 1561 -20 1561 -20 1482 64 c 0,2,3
 1411 139 1411 139 1411 253 c 0,4,5
 1411 399 1411 399 1521 506 c 0,6,7
 1624 606 1624 606 1768 606 c 0,8,9
 1890 606 1890 606 1970 522 c 0,10,11
 2041 447 2041 447 2041 333 c 0,12,13
 2041 187 2041 187 1931 80 c 0,14,15
 1828 -20 1828 -20 1684 -20 c 0,0,1
1700 73 m 0,16,17
 1785 73 1785 73 1839 140 c 0,18,19
 1900 214 1900 214 1900 318 c 0,20,21
 1900 406 1900 406 1861 456 c 0,22,23
 1818 513 1818 513 1752 513 c 0,24,25
 1667 513 1667 513 1613 446 c 0,26,27
 1552 372 1552 372 1552 268 c 0,28,29
 1552 180 1552 180 1591 130 c 0,30,31
 1634 73 1634 73 1700 73 c 0,16,17
1012 -20 m 0,32,33
 889 -20 889 -20 810 64 c 0,34,35
 739 139 739 139 739 253 c 0,36,37
 739 399 739 399 849 506 c 0,38,39
 952 606 952 606 1096 606 c 0,40,41
 1218 606 1218 606 1298 522 c 0,42,43
 1369 447 1369 447 1369 333 c 0,44,45
 1369 187 1369 187 1259 80 c 0,46,47
 1156 -20 1156 -20 1012 -20 c 0,32,33
1028 73 m 0,48,49
 1113 73 1113 73 1167 140 c 0,50,51
 1228 214 1228 214 1228 318 c 0,52,53
 1228 406 1228 406 1189 456 c 0,54,55
 1146 513 1146 513 1080 513 c 0,56,57
 995 513 995 513 941 446 c 0,58,59
 880 372 880 372 880 268 c 0,60,61
 880 180 880 180 919 130 c 0,62,63
 962 73 962 73 1028 73 c 0,48,49
507 1530 m 0,64,65
 630 1530 630 1530 709 1446 c 0,66,67
 780 1371 780 1371 780 1257 c 0,68,69
 780 1111 780 1111 670 1004 c 0,70,71
 567 904 567 904 423 904 c 0,72,73
 301 904 301 904 221 988 c 0,74,75
 150 1063 150 1063 150 1177 c 0,76,77
 150 1323 150 1323 260 1430 c 0,78,79
 363 1530 363 1530 507 1530 c 0,64,65
491 1437 m 0,80,81
 406 1437 406 1437 352 1370 c 0,82,83
 291 1296 291 1296 291 1192 c 0,84,85
 291 1104 291 1104 330 1054 c 0,86,87
 373 997 373 997 439 997 c 0,88,89
 524 997 524 997 578 1064 c 0,90,91
 639 1138 639 1138 639 1242 c 0,92,93
 639 1330 639 1330 600 1380 c 0,94,95
 557 1437 557 1437 491 1437 c 0,80,81
250 0 m 1,96,-1
 1093 1510 l 1,97,-1
 1269 1510 l 1,98,-1
 426 0 l 1,99,-1
 250 0 l 1,96,-1
EndSplineSet
Validated: 1
EndChar

StartChar: minute
Encoding: 8242 8242 171
Width: 408
GlyphClass: 2
Flags: W
HStem: 1170 380
VStem: 50 308
LayerCount: 2
Fore
SplineSet
192 1550 m 1,0,-1
 358 1550 l 1,1,-1
 177 1170 l 1,2,-1
 50 1170 l 1,3,-1
 192 1550 l 1,0,-1
EndSplineSet
Validated: 1
EndChar

StartChar: second
Encoding: 8243 8243 172
Width: 710
GlyphClass: 2
Flags: W
HStem: 1170 380
VStem: 50 610
LayerCount: 2
Fore
SplineSet
494 1550 m 1,0,-1
 660 1550 l 1,1,-1
 479 1170 l 1,2,-1
 352 1170 l 1,3,-1
 494 1550 l 1,0,-1
192 1550 m 1,4,-1
 358 1550 l 1,5,-1
 177 1170 l 1,6,-1
 50 1170 l 1,7,-1
 192 1550 l 1,4,-1
EndSplineSet
Validated: 1
EndChar

StartChar: guilsinglleft
Encoding: 8249 8249 173
Width: 740
GlyphClass: 2
Flags: W
HStem: 316 201<339 540> 1059 133<407 540>
VStem: 150 390
DStem2: 150 845 234 789 0.747092 0.66472<25.5314 433.616> 234 789 150 663 0.747092 -0.66472<20.999 409.414>
LayerCount: 2
Fore
SplineSet
150 845 m 1,0,-1
 540 1192 l 1,1,-1
 540 1059 l 1,2,-1
 234 789 l 1,3,-1
 540 517 l 1,4,-1
 540 316 l 1,5,-1
 150 663 l 1,6,-1
 150 845 l 1,0,-1
EndSplineSet
Validated: 1
EndChar

StartChar: guilsinglright
Encoding: 8250 8250 174
Width: 740
GlyphClass: 2
Flags: W
HStem: 316 133<200 333> 991 201<200 401>
VStem: 200 390
DStem2: 200 1192 200 991 0.747092 -0.66472<133.609 522.024> 200 449 200 316 0.747092 0.66472<0 408.085>
LayerCount: 2
Fore
SplineSet
590 663 m 1,0,-1
 200 316 l 1,1,-1
 200 449 l 1,2,-1
 506 719 l 1,3,-1
 200 991 l 1,4,-1
 200 1192 l 1,5,-1
 590 845 l 1,6,-1
 590 663 l 1,0,-1
EndSplineSet
Validated: 1
EndChar

StartChar: fraction
Encoding: 8260 8260 175
Width: 1039
GlyphClass: 2
Flags: W
HStem: 0 21G<10 197.166> 1490 20G<841.834 1029>
DStem2: 10 0 186 0 0.487458 0.873146<85.7927 1729.38>
LayerCount: 2
Fore
SplineSet
10 0 m 1,0,-1
 853 1510 l 1,1,-1
 1029 1510 l 1,2,-1
 186 0 l 1,3,-1
 10 0 l 1,0,-1
EndSplineSet
Validated: 1
EndChar

StartChar: Euro
Encoding: 8364 8364 176
Width: 1739
GlyphClass: 2
Flags: W
HStem: -20 120<699.576 1146.65> 577 100<50 200 423 1120> 787 100<50 209 442 1120> 1410 120<805.834 1252.58>
VStem: 203 220<405.308 577 677 787> 229 213<887 1010.59>
LayerCount: 2
Fore
SplineSet
888 -20 m 0,0,1
 566 -20 566 -20 371 185 c 0,2,3
 222 342 222 342 203 577 c 1,4,-1
 50 577 l 1,5,-1
 50 677 l 1,6,-1
 200 677 l 1,7,8
 202 733 202 733 209 787 c 1,9,-1
 50 787 l 1,10,-1
 50 887 l 1,11,-1
 229 887 l 1,12,13
 291 1128 291 1128 484 1306 c 0,14,15
 727 1530 727 1530 1071 1530 c 0,16,17
 1391 1530 1391 1530 1588 1323 c 1,18,-1
 1415 1233 l 1,19,20
 1283 1410 1283 1410 1039 1410 c 0,21,22
 778 1410 778 1410 619 1230 c 0,23,24
 487 1081 487 1081 442 887 c 1,25,-1
 1120 887 l 1,26,-1
 1120 787 l 1,27,-1
 424 787 l 1,28,29
 418 734 418 734 418 677 c 1,30,-1
 1120 677 l 1,31,-1
 1120 577 l 1,32,-1
 423 577 l 1,33,34
 443 405 443 405 540 277 c 0,35,36
 672 100 672 100 916 100 c 0,37,38
 1176 100 1176 100 1336 280 c 0,39,40
 1399 351 1399 351 1442 432 c 1,41,-1
 1589 327 l 1,42,43
 1542 264 1542 264 1475 202 c 0,44,45
 1234 -20 1234 -20 888 -20 c 0,0,1
EndSplineSet
Validated: 1
EndChar

StartChar: afii61248
Encoding: 8453 8453 177
Width: 1973
GlyphClass: 2
Flags: W
HStem: -20 71<1265.83 1513.96> 0 21G<465 652.166> 693 69<1314.74 1558.59> 746 72<411.319 661.284> 1459 71<460.987 704.988> 1490 20G<1296.83 1484>
VStem: 150 149<927.645 1284.98> 1004 150<160.551 518.54> 1673 150<224.11 583.195>
DStem2: 465 0 641 0 0.487458 0.873146<85.7927 1729.38>
LayerCount: 2
Fore
SplineSet
1374 -20 m 0,0,1
 1187 -20 1187 -20 1090 85 c 0,2,3
 1004 178 1004 178 1004 318 c 0,4,5
 1004 520 1004 520 1147 648 c 0,6,7
 1274 762 1274 762 1455 762 c 0,8,9
 1640 762 1640 762 1737 658 c 0,10,11
 1823 566 1823 566 1823 425 c 0,12,13
 1823 228 1823 228 1688 103 c 0,14,15
 1556 -20 1556 -20 1374 -20 c 0,0,1
1389 51 m 128,-1,17
 1498 51 1498 51 1572 134 c 0,18,19
 1673 247 1673 247 1673 413 c 0,20,21
 1673 528 1673 528 1610 611 c 0,22,23
 1549 693 1549 693 1441 693 c 0,24,25
 1328 693 1328 693 1255 609 c 0,26,27
 1154 494 1154 494 1154 332 c 0,28,29
 1154 216 1154 216 1217 133 c 0,30,16
 1280 51 1280 51 1389 51 c 128,-1,17
600 1530 m 128,-1,32
 780 1530 780 1530 884 1423 c 1,33,-1
 770 1361 l 1,34,35
 698 1459 698 1459 586 1459 c 0,36,37
 477 1459 477 1459 400 1374 c 24,38,39
 299 1262 299 1262 299 1097 c 0,40,41
 299 981 299 981 362 900 c 0,42,43
 425 818 425 818 533 818 c 0,44,45
 699 818 699 818 782 999 c 1,46,-1
 885 924 l 1,47,48
 755 746 755 746 514 746 c 0,49,50
 338 746 338 746 244 846 c 0,51,52
 150 944 150 944 150 1085 c 0,53,54
 151 1286 151 1286 293 1415 c 0,55,31
 420 1530 420 1530 600 1530 c 128,-1,32
465 0 m 1,56,-1
 1308 1510 l 1,57,-1
 1484 1510 l 1,58,-1
 641 0 l 1,59,-1
 465 0 l 1,56,-1
EndSplineSet
Validated: 1
EndChar

StartChar: afii61289
Encoding: 8467 8467 178
Width: 958
GlyphClass: 2
Flags: W
HStem: -20 136<458.002 574.715> 0 21G<50 263> 1510 20G<632 703>
VStem: 232 155<466 819.618> 655 153<1042.58 1357.48>
LayerCount: 2
Fore
SplineSet
387 466 m 1,0,1
 498 708 498 708 554 860 c 0,2,3
 655 1134 655 1134 655 1359 c 1,4,5
 563 1238 563 1238 503 1067 c 0,6,7
 387 740 387 740 387 466 c 1,0,1
50 0 m 1,8,9
 171 158 171 158 244 282 c 1,10,11
 232 366 232 366 232 443 c 0,12,13
 232 629 232 629 279 848 c 0,14,15
 367 1251 367 1251 517 1434 c 0,16,17
 595 1530 595 1530 669 1530 c 0,18,19
 737 1530 737 1530 772 1479 c 0,20,21
 808 1429 808 1429 808 1318 c 0,22,23
 808 1226 808 1226 778 1072 c 0,24,25
 708 722 708 722 422 271 c 1,26,27
 454 116 454 116 511 116 c 0,28,29
 535 116 535 116 562.5 145 c 128,-1,30
 590 174 590 174 616 228 c 1,31,-1
 792 228 l 1,32,33
 715 100 715 100 650.5 40 c 128,-1,34
 586 -20 586 -20 502 -20 c 0,35,36
 382 -20 382 -20 305 90 c 1,37,-1
 251 0 l 1,38,-1
 50 0 l 1,8,9
EndSplineSet
Validated: 1
EndChar

StartChar: trademark
Encoding: 8482 8482 179
Width: 2039
VWidth: 1401
GlyphClass: 2
Flags: W
HStem: 1449 71<79.1021 280 420 650 987.402 1179.82 1447.63 1647.81> 1514 6<666 673.141>
VStem: 50 6<1371 1378.14> 280 140<755 1449> 744 140<755 1351.29> 1215 140<755 1361.15> 1740 149<969.4 1354.86>
LayerCount: 2
Fore
SplineSet
666 1520 m 1,0,-1
 826 1520 l 1,1,2
 880 1493 880 1493 884 1423 c 1,3,4
 980 1530 980 1530 1118 1530 c 0,5,6
 1280 1530 1280 1530 1330 1412 c 1,7,8
 1428 1530 1428 1530 1574 1530 c 0,9,10
 1704 1530 1704 1530 1787 1446 c 0,11,12
 1889 1343 1889 1343 1889 1196 c 0,13,14
 1889 1058 1889 1058 1835 947 c 0,15,16
 1787 846 1787 846 1709 755 c 1,17,-1
 1593 755 l 1,18,19
 1740 976 1740 976 1740 1176 c 0,20,21
 1740 1293 1740 1293 1685 1372.5 c 128,-1,22
 1630 1452 1630 1452 1554 1452 c 128,-1,23
 1478 1452 1478 1452 1419 1387 c 0,24,25
 1355 1316 1355 1316 1355 1196 c 2,26,-1
 1355 755 l 1,27,-1
 1215 755 l 1,28,-1
 1215 1308 l 2,29,30
 1215 1374 1215 1374 1181.5 1412.5 c 128,-1,31
 1148 1451 1148 1451 1100 1451 c 0,32,33
 1016 1451 1016 1451 953 1383 c 0,34,35
 884 1309 884 1309 884 1195 c 2,36,-1
 884 755 l 1,37,-1
 744 755 l 1,38,-1
 744 1410 l 2,39,40
 744 1487 744 1487 666 1514 c 1,41,-1
 666 1520 l 1,0,-1
160 1520 m 2,42,-1
 650 1520 l 1,43,-1
 650 1449 l 1,44,-1
 420 1449 l 1,45,-1
 420 755 l 1,46,-1
 280 755 l 1,47,-1
 280 1449 l 1,48,-1
 160 1449 l 2,49,50
 83 1449 83 1449 56 1371 c 1,51,-1
 50 1371 l 1,52,-1
 50 1462 l 1,53,54
 79 1520 79 1520 160 1520 c 2,42,-1
EndSplineSet
Validated: 1
EndChar

StartChar: uni2126
Encoding: 8486 8486 180
Width: 1861
GlyphClass: 2
Flags: W
HStem: 0 120<112.919 433 985 1129.41 1288 1555.08> 1410 120<758.834 1206>
VStem: 50 10<238.098 250> 152 220<407.677 939.165> 1491 220<561.989 1089.87> 1608 10<238.098 250>
LayerCount: 2
Fore
SplineSet
683 0 m 1,0,-1
 234 0 l 2,1,2
 98 0 98 0 50 96 c 1,3,-1
 50 250 l 1,4,-1
 60 250 l 1,5,6
 105 120 105 120 234 120 c 2,7,-1
 433 120 l 1,8,9
 374 155 374 155 331 192 c 0,10,11
 152 347 152 347 152 648 c 0,12,13
 152 1044 152 1044 436 1306 c 0,14,15
 679 1530 679 1530 1023 1530 c 0,16,17
 1345 1530 1345 1530 1540 1325 c 0,18,19
 1711 1145 1711 1145 1711 862 c 0,20,21
 1711 445 1711 445 1428 212 c 0,22,23
 1366 161 1366 161 1288 120 c 1,24,-1
 1434 120 l 2,25,26
 1563 120 1563 120 1608 250 c 1,27,-1
 1618 250 l 1,28,-1
 1618 96 l 1,29,30
 1570 0 1570 0 1434 0 c 2,31,-1
 985 0 l 1,32,-1
 985 120 l 1,33,34
 1180 155 1180 155 1290 280 c 0,35,36
 1491 507 1491 507 1491 839 c 0,37,38
 1491 1071 1491 1071 1369 1233 c 0,39,40
 1237 1410 1237 1410 993 1410 c 0,41,42
 732 1410 732 1410 573 1230 c 0,43,44
 372 1003 372 1003 372 671 c 0,45,46
 372 427 372 427 494 265 c 0,47,48
 570 163 570 163 683 120 c 1,49,-1
 683 0 l 1,0,-1
EndSplineSet
Validated: 1
EndChar

StartChar: estimated
Encoding: 8494 8494 181
Width: 1330
GlyphClass: 2
Flags: W
HStem: -20 92<451.758 852.453> 525 80<348 983> 1036 84<468.183 852.399>
VStem: 100 248<309.991 525 605 788.181> 983 247<605 774.087>
LayerCount: 2
Fore
SplineSet
1104 204 m 1,0,1
 1032 113 1032 113 948 61 c 0,2,3
 817 -20 817 -20 665 -20 c 0,4,5
 409 -20 409 -20 256 139 c 0,6,7
 100 301 100 301 100 550 c 0,8,9
 100 788 100 788 249 952 c 24,10,11
 402 1120 402 1120 666 1120 c 0,12,13
 915 1120 915 1120 1064 964 c 280,14,15
 1230 790 1230 790 1230 525 c 1,16,-1
 348 525 l 1,17,-1
 348 192 l 1,18,19
 459 72 459 72 666 72 c 256,20,21
 789 72 789 72 880 132 c 0,22,23
 962 186 962 186 1011 266 c 1,24,25
 1104 204 l 1,0,1
348 605 m 1,26,-1
 983 605 l 1,27,-1
 983 903 l 1,28,29
 852 1036 852 1036 666 1036 c 0,30,31
 475 1036 475 1036 348 914 c 1,32,-1
 348 605 l 1,26,-1
EndSplineSet
Validated: 1
EndChar

StartChar: partialdiff
Encoding: 8706 8706 182
Width: 1285
GlyphClass: 2
Flags: W
HStem: -20 153<399.379 663.581> 870 170<546.66 823.335> 1378 152<492 830.299>
VStem: 150 188<198.966 600.959> 952 183<930 1235.35>
LayerCount: 2
Fore
SplineSet
512 -20 m 0,0,1
 150 -20 150 -20 150 375 c 0,2,3
 150 631 150 631 286 815 c 0,4,5
 454 1040 454 1040 672 1040 c 0,6,7
 859 1040 859 1040 952 930 c 1,8,9
 952 1136 952 1136 907 1239 c 0,10,11
 846 1378 846 1378 678 1378 c 0,12,13
 547 1378 547 1378 420 1294 c 1,14,-1
 420 1468 l 1,15,16
 554 1530 554 1530 703 1530 c 0,17,18
 1135 1530 1135 1530 1135 934 c 0,19,20
 1135 545 1135 545 966.5 262.5 c 128,-1,21
 798 -20 798 -20 512 -20 c 0,0,1
525 133 m 0,22,23
 663 133 663 133 772.5 286 c 128,-1,24
 882 439 882 439 920 680 c 1,25,26
 898 765 898 765 834.5 817.5 c 128,-1,27
 771 870 771 870 695 870 c 0,28,29
 535 870 535 870 436.5 710 c 128,-1,30
 338 550 338 550 338 369 c 0,31,32
 338 133 338 133 525 133 c 0,22,23
EndSplineSet
Validated: 1
EndChar

StartChar: uni2206
Encoding: 8710 8710 183
Width: 1537
GlyphClass: 2
Flags: W
HStem: 0 120<188 1256> 1354 156<659 878>
DStem2: 5 0 188 120 0.397437 0.91763<182.846 1527.43> 878 1510 722 1354 0.397437 -0.91763<81.15 1425.74>
LayerCount: 2
Fore
SplineSet
5 0 m 1,0,-1
 659 1510 l 1,1,-1
 878 1510 l 1,2,-1
 1532 0 l 1,3,-1
 5 0 l 1,0,-1
188 120 m 1,4,-1
 1256 120 l 1,5,-1
 722 1354 l 1,6,-1
 188 120 l 1,4,-1
EndSplineSet
Validated: 1
EndChar

StartChar: product
Encoding: 8719 8719 184
Width: 1456
GlyphClass: 2
Flags: W
HStem: -410 21G<200 400 1056 1256> 1390 120<400 1056>
VStem: 200 200<-410 1390> 1056 200<-410 1390>
LayerCount: 2
Fore
SplineSet
200 -410 m 1,0,-1
 200 1510 l 1,1,-1
 1256 1510 l 1,2,-1
 1256 -410 l 1,3,-1
 1056 -410 l 1,4,-1
 1056 1390 l 1,5,-1
 400 1390 l 1,6,-1
 400 -410 l 1,7,-1
 200 -410 l 1,0,-1
EndSplineSet
Validated: 1
EndChar

StartChar: summation
Encoding: 8721 8721 185
Width: 1410
GlyphClass: 2
Flags: W
HStem: -410 120<455 1197.08> 1390 120<461 1169>
VStem: 1250 10<-171.902 -160>
DStem2: 461 1390 150 1510 0.529509 -0.848304<0 834.546> 151 -410 455 -290 0.508317 0.86117<257.869 1144.95>
LayerCount: 2
Fore
SplineSet
151 -410 m 1,0,-1
 733 576 l 1,1,-1
 150 1510 l 1,2,-1
 1169 1510 l 1,3,-1
 1169 1390 l 1,4,-1
 461 1390 l 1,5,-1
 968 578 l 1,6,-1
 455 -290 l 1,7,-1
 1076 -290 l 2,8,9
 1205 -290 1205 -290 1250 -160 c 1,10,-1
 1260 -160 l 1,11,-1
 1260 -314 l 1,12,13
 1212 -410 1212 -410 1076 -410 c 2,14,-1
 151 -410 l 1,0,-1
EndSplineSet
Validated: 1
EndChar

StartChar: minus
Encoding: 8722 8722 186
Width: 1180
GlyphClass: 2
Flags: W
HStem: 680 150<150 1030>
LayerCount: 2
Fore
SplineSet
150 830 m 1,0,-1
 1030 830 l 1,1,-1
 1030 680 l 1,2,-1
 150 680 l 1,3,-1
 150 830 l 1,0,-1
EndSplineSet
Validated: 1
EndChar

StartChar: uni2215
Encoding: 8725 8725 187
Width: 1039
GlyphClass: 2
Flags: W
HStem: 0 21G<10 197.166> 1490 20G<841.834 1029>
DStem2: 10 0 186 0 0.487458 0.873146<85.7927 1729.38>
LayerCount: 2
Fore
SplineSet
10 0 m 1,0,-1
 853 1510 l 1,1,-1
 1029 1510 l 1,2,-1
 186 0 l 1,3,-1
 10 0 l 1,0,-1
EndSplineSet
Validated: 1
EndChar

StartChar: uni2219
Encoding: 8729 8729 188
Width: 352
GlyphClass: 2
Flags: W
HStem: 627 255<88.1292 263.809>
VStem: 50 252<666.222 843.809>
LayerCount: 2
Fore
SplineSet
176 882 m 0,0,1
 228 882 228 882 265 845 c 0,2,3
 302 807 302 807 302 755 c 0,4,5
 302 702 302 702 265 664 c 24,6,7
 227 627 227 627 176 627 c 0,8,9
 123 627 123 627 87 665 c 0,10,11
 50 704 50 704 50 755 c 0,12,13
 50 804 50 804 87 844 c 24,14,15
 122 882 122 882 176 882 c 0,0,1
EndSplineSet
Validated: 1
EndChar

StartChar: radical
Encoding: 8730 8730 189
Width: 1622
GlyphClass: 2
Flags: W
HStem: 0 21G<530.348 766.662> 705 120<50 234> 1390 120<1360 1572>
DStem2: 406 825 234 705 0.397059 -0.917793<41.8409 728.754> 695 156 758 0 0.397422 0.917636<0 1396.65>
LayerCount: 2
Fore
SplineSet
539 0 m 1,0,-1
 234 705 l 1,1,-1
 50 705 l 1,2,-1
 50 825 l 1,3,-1
 406 825 l 1,4,-1
 695 156 l 1,5,-1
 1281 1510 l 1,6,-1
 1572 1510 l 1,7,-1
 1572 1390 l 1,8,-1
 1360 1390 l 1,9,-1
 758 0 l 1,10,-1
 539 0 l 1,0,-1
EndSplineSet
Validated: 1
EndChar

StartChar: infinity
Encoding: 8734 8734 190
Width: 1417
GlyphClass: 2
Flags: W
HStem: 443 93<340.923 556.605 829.147 1043.71> 976 93<373.295 589.307 860.644 1076.31>
VStem: 150 141<590.257 884.204> 639 139<626.037 885.963> 1126 141<627.796 921.743>
CounterMasks: 1 38
LayerCount: 2
Fore
SplineSet
491 976 m 0,0,1
 406 976 406 976 352 909 c 0,2,3
 291 835 291 835 291 731 c 0,4,5
 291 643 291 643 330 593 c 0,6,7
 373 536 373 536 439 536 c 0,8,9
 524 536 524 536 578 603 c 0,10,11
 639 677 639 677 639 781 c 0,12,13
 639 869 639 869 600 919 c 0,14,15
 557 976 557 976 491 976 c 0,0,1
507 1069 m 0,16,17
 630 1069 630 1069 709 985 c 0,18,19
 722 971 722 971 733 955 c 1,20,21
 842 1069 842 1069 994 1069 c 0,22,23
 1117 1069 1117 1069 1196 985 c 0,24,25
 1267 910 1267 910 1267 796 c 0,26,27
 1267 650 1267 650 1157 543 c 0,28,29
 1054 443 1054 443 910 443 c 0,30,31
 786 443 786 443 708 527 c 0,32,33
 695 541 695 541 684 557 c 1,34,35
 576 443 576 443 423 443 c 0,36,37
 301 443 301 443 221 527 c 0,38,39
 150 602 150 602 150 716 c 0,40,41
 150 862 150 862 260 969 c 0,42,43
 363 1069 363 1069 507 1069 c 0,16,17
978 976 m 0,44,45
 893 976 893 976 839 909 c 0,46,47
 778 835 778 835 778 731 c 0,48,49
 778 643 778 643 817 593 c 0,50,51
 860 536 860 536 926 536 c 0,52,53
 1011 536 1011 536 1065 603 c 0,54,55
 1126 677 1126 677 1126 781 c 0,56,57
 1126 869 1126 869 1087 919 c 0,58,59
 1044 976 1044 976 978 976 c 0,44,45
EndSplineSet
Validated: 1
EndChar

StartChar: approxequal
Encoding: 8776 8776 191
Width: 1182
GlyphClass: 2
Flags: W
HStem: 373 155<698.851 893.232> 564 155<292.055 483.149> 769 155<698.851 893.232> 960 155<292.055 483.149>
VStem: 150 91<437.329 507.688 833.329 903.688> 941 91<577.676 654.671 973.676 1050.67>
DStem2: 716 957 466 927 0.829489 -0.558523<-285.044 102.465> 716 561 466 531 0.829489 -0.558523<-285.044 102.465>
LayerCount: 2
Fore
SplineSet
941 1081 m 1,0,-1
 1032 1045 l 1,1,2
 959 769 959 769 785 769 c 0,3,4
 701 769 701 769 616 826 c 2,5,-1
 466 927 l 2,6,7
 417 960 417 960 373 960 c 0,8,9
 282 960 282 960 241 803 c 1,10,-1
 150 839 l 1,11,12
 223 1115 223 1115 397 1115 c 0,13,14
 481 1115 481 1115 566 1058 c 2,15,-1
 716 957 l 2,16,17
 765 924 765 924 819 924 c 0,18,19
 900 924 900 924 941 1081 c 1,0,-1
941 685 m 1,20,-1
 1032 649 l 1,21,22
 959 373 959 373 785 373 c 0,23,24
 701 373 701 373 616 430 c 2,25,-1
 466 531 l 2,26,27
 417 564 417 564 373 564 c 0,28,29
 282 564 282 564 241 407 c 1,30,-1
 150 443 l 1,31,32
 223 719 223 719 397 719 c 0,33,34
 481 719 481 719 566 662 c 2,35,-1
 716 561 l 2,36,37
 765 528 765 528 819 528 c 0,38,39
 900 528 900 528 941 685 c 1,20,-1
EndSplineSet
Validated: 1
EndChar

StartChar: notequal
Encoding: 8800 8800 192
Width: 1180
GlyphClass: 2
Flags: W
HStem: 505 150<150 388 590 1030> 855 150<150 590 792 1030>
DStem2: 272 304 358 254 0.500247 0.865883<0 232.071 463.003 636.18 867.112 1099.18>
LayerCount: 2
Fore
SplineSet
150 1005 m 1,0,-1
 677 1005 l 1,1,-1
 822 1256 l 1,2,-1
 908 1206 l 1,3,-1
 792 1005 l 1,4,-1
 1030 1005 l 1,5,-1
 1030 855 l 1,6,-1
 705 855 l 1,7,-1
 590 655 l 1,8,-1
 1030 655 l 1,9,-1
 1030 505 l 1,10,-1
 503 505 l 1,11,-1
 358 254 l 1,12,-1
 272 304 l 1,13,-1
 388 505 l 1,14,-1
 150 505 l 1,15,-1
 150 655 l 1,16,-1
 475 655 l 1,17,-1
 590 855 l 1,18,-1
 150 855 l 1,19,-1
 150 1005 l 1,0,-1
EndSplineSet
Validated: 1
EndChar

StartChar: lessequal
Encoding: 8804 8804 193
Width: 1257
GlyphClass: 2
Flags: W
HStem: 215 150<200 1057>
VStem: 201 126<823 973>
DStem2: 201 973 327 925 0.893591 0.448883<91.046 907.658> 327 925 201 823 0.892752 -0.450548<0 816.61>
LayerCount: 2
Fore
SplineSet
201 973 m 1,0,-1
 1057 1403 l 1,1,-1
 1057 1291 l 1,2,-1
 327 925 l 1,3,-1
 1057 559 l 1,4,-1
 1057 391 l 1,5,-1
 201 823 l 1,6,-1
 201 973 l 1,0,-1
200 365 m 1,7,-1
 1057 365 l 1,8,-1
 1057 215 l 1,9,-1
 200 215 l 1,10,-1
 200 365 l 1,7,-1
EndSplineSet
Validated: 1
EndChar

StartChar: greaterequal
Encoding: 8805 8805 194
Width: 1257
GlyphClass: 2
Flags: W
HStem: 215 150<200 1057>
VStem: 931 126<821 971>
DStem2: 201 1403 201 1235 0.892752 -0.450548<75.692 892.302> 201 503 201 391 0.893591 0.448883<0 816.612>
LayerCount: 2
Fore
SplineSet
1057 821 m 1,0,-1
 201 391 l 1,1,-1
 201 503 l 1,2,-1
 931 869 l 1,3,-1
 201 1235 l 1,4,-1
 201 1403 l 1,5,-1
 1057 971 l 1,6,-1
 1057 821 l 1,0,-1
200 365 m 1,7,-1
 1057 365 l 1,8,-1
 1057 215 l 1,9,-1
 200 215 l 1,10,-1
 200 365 l 1,7,-1
EndSplineSet
Validated: 1
EndChar

StartChar: lozenge
Encoding: 9674 9674 195
Width: 1134
GlyphClass: 2
Flags: W
HStem: -20 21G<554.678 579.273> 1510 20G<555.207 578.838>
DStem2: 100 738 288 775 0.507923 0.861403<127.361 627.638> 288 775 100 738 0.524536 -0.851388<0 582.074> 567 1530 542 1206 0.509354 -0.860557<266.087 853.984> 591 278 567 -20 0.523035 0.852311<0 492.332>
LayerCount: 2
Fore
SplineSet
591 278 m 5,0,-1
 843 701 l 1,1,-1
 542 1206 l 1,2,-1
 288 775 l 1,3,-1
 591 278 l 5,0,-1
567 -20 m 1,4,-1
 100 738 l 1,5,-1
 567 1530 l 1,6,-1
 1034 741 l 1,7,-1
 567 -20 l 1,4,-1
EndSplineSet
Validated: 1
EndChar

StartChar: uni1E02
Encoding: 7682 7682 196
Width: 1499
Flags: W
HStem: -20 87<572.26 950.756> 0 21G<200 400> 1396 134<693.345 992.085> 1500 10<70 81.9019> 1624 255<720.129 895.809>
VStem: 200 200<0 1097.44 1216 1447.57> 682 252<1663.22 1840.81> 1075 187<1039 1313.62> 1187 212<305.294 646.677>
LayerCount: 2
Fore
SplineSet
200 0 m 1,0,-1
 200 1326 l 2,1,2
 200 1456 200 1456 70 1500 c 1,3,-1
 70 1510 l 1,4,-1
 304 1510 l 1,5,6
 400 1461 400 1461 400 1326 c 2,7,-1
 400 1216 l 1,8,9
 473 1353 473 1353 610 1441.5 c 128,-1,10
 747 1530 747 1530 914 1530 c 0,11,12
 1067 1530 1067 1530 1162 1439 c 0,13,14
 1262 1343 1262 1343 1262 1202 c 0,15,16
 1262 986 1262 986 1004 848 c 1,17,18
 1170 848 1170 848 1276 760 c 0,19,20
 1399 658 1399 658 1399 494 c 0,21,22
 1399 329 1399 329 1281 199 c 0,23,24
 1082 -20 1082 -20 765 -20 c 0,25,26
 558 -20 558 -20 466 119 c 1,27,-1
 474 127 l 1,28,29
 582 67 582 67 726 67 c 0,30,31
 954 67 954 67 1079 200 c 0,32,33
 1187 315 1187 315 1187 473 c 0,34,35
 1187 619 1187 619 1102 695 c 0,36,37
 1020 768 1020 768 864 768 c 0,38,39
 748 768 748 768 640 755 c 1,40,-1
 640 765 l 1,41,42
 780 808 780 808 890 880 c 0,43,44
 1075 1001 1075 1001 1075 1178 c 0,45,46
 1075 1269 1075 1269 1018 1330 c 0,47,48
 957 1396 957 1396 835 1396 c 0,49,50
 661 1396 661 1396 539 1251 c 0,51,52
 400 1086 400 1086 400 873 c 2,53,-1
 400 0 l 1,54,-1
 200 0 l 1,0,-1
808 1879 m 0,55,56
 860 1879 860 1879 897 1842 c 0,57,58
 934 1804 934 1804 934 1752 c 0,59,60
 934 1699 934 1699 897 1661 c 24,61,62
 859 1624 859 1624 808 1624 c 0,63,64
 755 1624 755 1624 719 1662 c 0,65,66
 682 1701 682 1701 682 1752 c 0,67,68
 682 1801 682 1801 719 1841 c 24,69,70
 754 1879 754 1879 808 1879 c 0,55,56
EndSplineSet
Validated: 1
EndChar

StartChar: uni1E03
Encoding: 7683 7683 197
Width: 1325
Flags: W
HStem: -20 100<471.485 784.09> 1033 87<569.994 841.57> 1212 255<627.129 802.809> 1500 10<70 81.9019>
VStem: 200 180<181.688 1447.57> 589 252<1251.22 1428.81> 1024 201<390.158 839.171>
LayerCount: 2
Fore
SplineSet
588 -20 m 0,0,1
 412 -20 412 -20 314 76 c 0,2,3
 200 188 200 188 200 389 c 2,4,-1
 200 1326 l 2,5,6
 200 1456 200 1456 70 1500 c 1,7,-1
 70 1510 l 1,8,-1
 284 1510 l 1,9,10
 380 1461 380 1461 380 1326 c 2,11,-1
 380 389 l 2,12,13
 380 246 380 246 430 171 c 0,14,15
 492 80 492 80 606 80 c 0,16,17
 783 80 783 80 896 222 c 0,18,19
 1024 381 1024 381 1024 603 c 0,20,21
 1024 796 1024 796 943 899 c 0,22,23
 837 1033 837 1033 684 1033 c 0,24,25
 596 1033 596 1033 512 1009 c 1,26,-1
 504 1017 l 1,27,28
 584 1120 584 1120 728 1120 c 0,29,30
 953 1120 953 1120 1098 967 c 0,31,32
 1225 833 1225 833 1225 623 c 0,33,34
 1225 358 1225 358 1026 161 c 0,35,36
 843 -20 843 -20 588 -20 c 0,0,1
715 1467 m 0,37,38
 767 1467 767 1467 804 1430 c 0,39,40
 841 1392 841 1392 841 1340 c 0,41,42
 841 1287 841 1287 804 1249 c 24,43,44
 766 1212 766 1212 715 1212 c 0,45,46
 662 1212 662 1212 626 1250 c 0,47,48
 589 1289 589 1289 589 1340 c 0,49,50
 589 1389 589 1389 626 1429 c 24,51,52
 661 1467 661 1467 715 1467 c 0,37,38
EndSplineSet
Validated: 1
EndChar

StartChar: uni1E0A
Encoding: 7690 7690 198
Width: 1736
Flags: W
HStem: -20 87<572.26 967.957> 0 21G<200 400> 1410 120<708.551 1130.37> 1500 10<70 81.9019> 1624 255<805.129 980.809>
VStem: 200 200<0 1094.59 1216 1447.57> 767 252<1663.22 1840.81> 1416 220<574.342 1089.87>
LayerCount: 2
Fore
SplineSet
200 0 m 1,0,-1
 200 1326 l 2,1,2
 200 1456 200 1456 70 1500 c 1,3,-1
 70 1510 l 1,4,-1
 304 1510 l 1,5,6
 400 1461 400 1461 400 1326 c 2,7,-1
 400 1216 l 1,8,9
 486 1359 486 1359 620 1442 c 0,10,11
 761 1530 761 1530 948 1530 c 0,12,13
 1270 1530 1270 1530 1465 1325 c 0,14,15
 1636 1145 1636 1145 1636 862 c 0,16,17
 1636 466 1636 466 1352 204 c 0,18,19
 1109 -20 1109 -20 765 -20 c 0,20,21
 558 -20 558 -20 466 119 c 1,22,-1
 474 127 l 1,23,24
 582 67 582 67 726 67 c 0,25,26
 1023 67 1023 67 1215 280 c 0,27,28
 1416 503 1416 503 1416 839 c 0,29,30
 1416 1071 1416 1071 1294 1233 c 0,31,32
 1162 1410 1162 1410 913 1410 c 0,33,34
 699 1410 699 1410 549 1251 c 0,35,36
 400 1092 400 1092 400 873 c 2,37,-1
 400 0 l 1,38,-1
 200 0 l 1,0,-1
893 1879 m 0,39,40
 945 1879 945 1879 982 1842 c 0,41,42
 1019 1804 1019 1804 1019 1752 c 0,43,44
 1019 1699 1019 1699 982 1661 c 24,45,46
 944 1624 944 1624 893 1624 c 0,47,48
 840 1624 840 1624 804 1662 c 0,49,50
 767 1701 767 1701 767 1752 c 0,51,52
 767 1801 767 1801 804 1841 c 24,53,54
 839 1879 839 1879 893 1879 c 0,39,40
EndSplineSet
Validated: 1
EndChar

StartChar: uni1E0B
Encoding: 7691 7691 199
Width: 1391
Flags: W
HStem: -20 108<456.283 782.723> 0 10<1309.1 1321> 1033 87<568.856 875.006> 1212 255<627.129 802.809> 1500 10<881 892.902>
VStem: 100 201<264.213 709.842> 589 252<1251.22 1428.81> 1011 180<62.4312 234 345.222 1447.57>
LayerCount: 2
Fore
SplineSet
1107 0 m 1,0,1
 1011 49 1011 49 1011 184 c 2,2,-1
 1011 234 l 1,3,4
 939 115 939 115 840 49 c 0,5,6
 738 -20 738 -20 597 -20 c 0,7,8
 372 -20 372 -20 227 133 c 0,9,10
 100 267 100 267 100 477 c 0,11,12
 100 742 100 742 299 939 c 0,13,14
 482 1120 482 1120 717 1120 c 0,15,16
 861 1120 861 1120 941 1017 c 1,17,-1
 933 1009 l 1,18,19
 849 1033 849 1033 761 1033 c 0,20,21
 554 1033 554 1033 429 878 c 0,22,23
 301 719 301 719 301 497 c 0,24,25
 301 308 301 308 382 201 c 0,26,27
 467 88 467 88 615 88 c 0,28,29
 755 88 755 88 857 188 c 0,30,31
 1011 340 1011 340 1011 559 c 2,32,-1
 1011 1326 l 2,33,34
 1011 1456 1011 1456 881 1500 c 1,35,-1
 881 1510 l 1,36,-1
 1095 1510 l 1,37,38
 1191 1461 1191 1461 1191 1326 c 2,39,-1
 1191 184 l 2,40,41
 1191 54 1191 54 1321 10 c 1,42,-1
 1321 0 l 1,43,-1
 1107 0 l 1,0,1
715 1467 m 0,44,45
 767 1467 767 1467 804 1430 c 0,46,47
 841 1392 841 1392 841 1340 c 0,48,49
 841 1287 841 1287 804 1249 c 24,50,51
 766 1212 766 1212 715 1212 c 0,52,53
 662 1212 662 1212 626 1250 c 0,54,55
 589 1289 589 1289 589 1340 c 0,56,57
 589 1389 589 1389 626 1429 c 24,58,59
 661 1467 661 1467 715 1467 c 0,44,45
EndSplineSet
Validated: 1
EndChar

StartChar: uni1E1E
Encoding: 7710 7710 200
Width: 1338
Flags: W
HStem: 0 21G<200 400> 696 120<400 970> 1396 134<704.255 1056.05> 1500 10<70 81.9019> 1624 255<705.129 880.809>
VStem: 200 200<0 696 816 1094.59 1216 1447.57> 667 252<1663.22 1840.81>
LayerCount: 2
Fore
SplineSet
200 0 m 1,0,-1
 200 1326 l 2,1,2
 200 1456 200 1456 70 1500 c 1,3,-1
 70 1510 l 1,4,-1
 304 1510 l 1,5,6
 400 1461 400 1461 400 1326 c 2,7,-1
 400 1216 l 1,8,9
 486 1359 486 1359 620 1442 c 0,10,11
 761 1530 761 1530 928 1530 c 0,12,13
 1146 1530 1146 1530 1268 1408 c 0,14,15
 1305 1371 1305 1371 1328 1321 c 1,16,-1
 1155 1217 l 1,17,18
 1138 1271 1138 1271 1104 1310 c 0,19,20
 1030 1396 1030 1396 891 1396 c 0,21,22
 685 1396 685 1396 549 1251 c 0,23,24
 400 1092 400 1092 400 873 c 2,25,-1
 400 816 l 1,26,-1
 970 816 l 1,27,-1
 970 696 l 1,28,-1
 400 696 l 1,29,-1
 400 0 l 1,30,-1
 200 0 l 1,0,-1
793 1879 m 0,31,32
 845 1879 845 1879 882 1842 c 0,33,34
 919 1804 919 1804 919 1752 c 0,35,36
 919 1699 919 1699 882 1661 c 24,37,38
 844 1624 844 1624 793 1624 c 0,39,40
 740 1624 740 1624 704 1662 c 0,41,42
 667 1701 667 1701 667 1752 c 0,43,44
 667 1801 667 1801 704 1841 c 24,45,46
 739 1879 739 1879 793 1879 c 0,31,32
EndSplineSet
Validated: 1
EndChar

StartChar: uni1E1F
Encoding: 7711 7711 201
Width: 1099
Flags: W
HStem: 0 21G<200 380> 706 100<100 200 380 852> 1430 100<638.189 1023.12> 1624 255<490.129 665.809>
VStem: 200 180<0 706 806 1120.5> 452 252<1663.22 1840.81>
LayerCount: 2
Fore
SplineSet
200 0 m 1,0,-1
 200 706 l 1,1,-1
 100 706 l 1,2,-1
 100 806 l 1,3,-1
 200 806 l 1,4,-1
 200 887 l 2,5,6
 200 1152 200 1152 399 1349 c 0,7,8
 583 1530 583 1530 847 1530 c 0,9,10
 983 1530 983 1530 1089 1475 c 1,11,-1
 1008 1366 l 1,12,13
 931 1430 931 1430 829 1430 c 0,14,15
 640 1430 640 1430 519 1292 c 0,16,17
 380 1134 380 1134 380 806 c 1,18,-1
 852 806 l 1,19,-1
 852 706 l 1,20,-1
 380 706 l 1,21,-1
 380 0 l 1,22,-1
 200 0 l 1,0,-1
578 1879 m 0,23,24
 630 1879 630 1879 667 1842 c 0,25,26
 704 1804 704 1804 704 1752 c 0,27,28
 704 1699 704 1699 667 1661 c 24,29,30
 629 1624 629 1624 578 1624 c 0,31,32
 525 1624 525 1624 489 1662 c 0,33,34
 452 1701 452 1701 452 1752 c 0,35,36
 452 1801 452 1801 489 1841 c 24,37,38
 524 1879 524 1879 578 1879 c 0,23,24
EndSplineSet
Validated: 1
EndChar

StartChar: uni1E40
Encoding: 7744 7744 202
Width: 2510
Flags: W
HStem: 0 21G<200 400 1141 1341 1903 2128.5> 1396 134<691.312 1028.03 1604.53 1952.91> 1500 10<70 81.9019> 1624 255<1164.13 1339.81>
VStem: 200 200<0 1105.8 1216 1447.57> 1126 252<1663.22 1840.81> 1141 200<0 1122.04> 2190 220<533.723 1098.02>
LayerCount: 2
Fore
SplineSet
200 0 m 1,0,-1
 200 1326 l 2,1,2
 200 1456 200 1456 70 1500 c 1,3,-1
 70 1510 l 1,4,-1
 304 1510 l 1,5,6
 400 1461 400 1461 400 1326 c 2,7,-1
 400 1216 l 1,8,9
 489 1364 489 1364 610 1442 c 0,10,11
 745 1530 745 1530 908 1530 c 0,12,13
 1122 1530 1122 1530 1238 1408 c 0,14,15
 1307 1335 1307 1335 1327 1237 c 1,16,17
 1415 1376 1415 1376 1525 1445 c 0,18,19
 1663 1530 1663 1530 1819 1530 c 0,20,21
 2043 1530 2043 1530 2206 1368 c 0,22,23
 2410 1165 2410 1165 2410 852 c 0,24,25
 2410 578 2410 578 2291 348 c 0,26,27
 2201 174 2201 174 2056 0 c 1,28,-1
 1903 0 l 1,29,30
 2029 193 2029 193 2109.5 406.5 c 128,-1,31
 2190 620 2190 620 2190 831 c 0,32,33
 2190 1068 2190 1068 2076 1234 c 0,34,35
 1966 1396 1966 1396 1785 1396 c 0,36,37
 1595 1396 1595 1396 1465 1251 c 0,38,39
 1341 1113 1341 1113 1341 873 c 2,40,-1
 1341 0 l 1,41,-1
 1141 0 l 1,42,-1
 1141 1098 l 2,43,44
 1141 1229 1141 1229 1074 1310 c 0,45,46
 1004 1396 1004 1396 871 1396 c 0,47,48
 675 1396 675 1396 539 1251 c 0,49,50
 400 1103 400 1103 400 873 c 2,51,-1
 400 0 l 1,52,-1
 200 0 l 1,0,-1
1252 1879 m 0,53,54
 1304 1879 1304 1879 1341 1842 c 0,55,56
 1378 1804 1378 1804 1378 1752 c 0,57,58
 1378 1699 1378 1699 1341 1661 c 24,59,60
 1303 1624 1303 1624 1252 1624 c 0,61,62
 1199 1624 1199 1624 1163 1662 c 0,63,64
 1126 1701 1126 1701 1126 1752 c 0,65,66
 1126 1801 1126 1801 1163 1841 c 24,67,68
 1198 1879 1198 1879 1252 1879 c 0,53,54
EndSplineSet
Validated: 1
EndChar

StartChar: uni1E41
Encoding: 7745 7745 203
Width: 2082
Flags: W
HStem: 0 21G<200 380 952 1132 1550 1755.5> 1000 120<606.175 885.852 1322.27 1624.25> 1090 10<70 81.9019> 1212 255<966.129 1141.81>
VStem: 200 180<0 762.395 866 1037.57> 928 252<1251.22 1428.81> 952 180<0 769.203> 1780 202<366.254 814.58>
LayerCount: 2
Fore
SplineSet
200 0 m 1,0,-1
 200 916 l 2,1,2
 200 1046 200 1046 70 1090 c 1,3,-1
 70 1100 l 1,4,-1
 284 1100 l 1,5,6
 380 1051 380 1051 380 916 c 2,7,-1
 380 866 l 1,8,9
 464 988 464 988 561 1051 c 0,10,11
 669 1120 669 1120 809 1120 c 0,12,13
 951 1120 951 1120 1041 1028 c 0,14,15
 1101 967 1101 967 1122 870 c 1,16,17
 1187 988 1187 988 1284 1054 c 128,-1,18
 1381 1120 1381 1120 1510 1120 c 0,19,20
 1700 1120 1700 1120 1821 1001 c 0,21,22
 1982 844 1982 844 1982 622 c 0,23,24
 1982 422 1982 422 1886 254 c 0,25,26
 1813 127 1813 127 1698 0 c 1,27,-1
 1550 0 l 1,28,29
 1663 152 1663 152 1723 296 c 0,30,31
 1780 431 1780 431 1780 587 c 0,32,33
 1780 766 1780 766 1696 885 c 0,34,35
 1614 1000 1614 1000 1475 1000 c 128,-1,36
 1336 1000 1336 1000 1244 884 c 0,37,38
 1132 742 1132 742 1132 541 c 2,39,-1
 1132 0 l 1,40,-1
 952 0 l 1,41,-1
 952 761 l 2,42,43
 952 869 952 869 909 931 c 0,44,45
 861 1000 861 1000 751 1000 c 0,46,47
 609 1000 609 1000 502 883 c 0,48,49
 380 750 380 750 380 541 c 2,50,-1
 380 0 l 1,51,-1
 200 0 l 1,0,-1
1054 1467 m 0,52,53
 1106 1467 1106 1467 1143 1430 c 0,54,55
 1180 1392 1180 1392 1180 1340 c 0,56,57
 1180 1287 1180 1287 1143 1249 c 24,58,59
 1105 1212 1105 1212 1054 1212 c 0,60,61
 1001 1212 1001 1212 965 1250 c 0,62,63
 928 1289 928 1289 928 1340 c 0,64,65
 928 1389 928 1389 965 1429 c 24,66,67
 1000 1467 1000 1467 1054 1467 c 0,52,53
EndSplineSet
Validated: 1
EndChar

StartChar: uni1E56
Encoding: 7766 7766 204
Width: 1535
Flags: W
HStem: 0 21G<200 400> 360 87<576.093 940.797> 1396 134<693.821 1048.68> 1500 10<70 81.9019> 1624 255<754.129 929.809>
VStem: 200 200<0 1105.8 1216 1447.57> 716 252<1663.22 1840.81> 1214 221<775.333 1228.17>
LayerCount: 2
Fore
SplineSet
200 0 m 1,0,-1
 200 1326 l 2,1,2
 200 1456 200 1456 70 1500 c 1,3,-1
 70 1510 l 1,4,-1
 304 1510 l 1,5,6
 400 1461 400 1461 400 1326 c 2,7,-1
 400 1216 l 1,8,9
 489 1364 489 1364 610 1442 c 0,10,11
 745 1530 745 1530 924 1530 c 0,12,13
 1148 1530 1148 1530 1284 1402 c 0,14,15
 1435 1260 1435 1260 1435 1032 c 0,16,17
 1435 702 1435 702 1191 499 c 0,18,19
 1025 360 1025 360 785 360 c 0,20,21
 558 360 558 360 466 499 c 1,22,-1
 474 507 l 1,23,24
 582 447 582 447 746 447 c 0,25,26
 942 447 942 447 1071 588 c 0,27,28
 1214 746 1214 746 1214 1018 c 0,29,30
 1214 1191 1214 1191 1131 1285 c 256,31,32
 1034 1396 1034 1396 865 1396 c 0,33,34
 675 1396 675 1396 539 1251 c 0,35,36
 400 1103 400 1103 400 873 c 2,37,-1
 400 0 l 1,38,-1
 200 0 l 1,0,-1
842 1879 m 0,39,40
 894 1879 894 1879 931 1842 c 0,41,42
 968 1804 968 1804 968 1752 c 0,43,44
 968 1699 968 1699 931 1661 c 24,45,46
 893 1624 893 1624 842 1624 c 0,47,48
 789 1624 789 1624 753 1662 c 0,49,50
 716 1701 716 1701 716 1752 c 0,51,52
 716 1801 716 1801 753 1841 c 24,53,54
 788 1879 788 1879 842 1879 c 0,39,40
EndSplineSet
Validated: 1
EndChar

StartChar: uni1E57
Encoding: 7767 7767 205
Width: 1391
Flags: W
HStem: -410 21G<200 380> -20 87<515.994 822.144> 1012 108<608.277 934.717> 1090 10<70 81.9019> 1212 255<627.129 802.809>
VStem: 200 180<-410 754.778 866 1037.57> 589 252<1251.22 1428.81> 1090 201<390.158 835.787>
LayerCount: 2
Fore
SplineSet
200 -410 m 1,0,-1
 200 916 l 2,1,2
 200 1046 200 1046 70 1090 c 1,3,-1
 70 1100 l 1,4,-1
 284 1100 l 1,5,6
 380 1051 380 1051 380 916 c 2,7,-1
 380 866 l 1,8,9
 452 985 452 985 551 1051 c 0,10,11
 653 1120 653 1120 794 1120 c 0,12,13
 1019 1120 1019 1120 1164 967 c 0,14,15
 1291 833 1291 833 1291 623 c 0,16,17
 1291 358 1291 358 1092 161 c 0,18,19
 909 -20 909 -20 674 -20 c 0,20,21
 530 -20 530 -20 450 83 c 1,22,-1
 458 91 l 1,23,24
 542 67 542 67 630 67 c 0,25,26
 837 67 837 67 962 222 c 0,27,28
 1090 381 1090 381 1090 603 c 0,29,30
 1090 792 1090 792 1009 899 c 0,31,32
 924 1012 924 1012 776 1012 c 0,33,34
 636 1012 636 1012 534 912 c 0,35,36
 380 760 380 760 380 541 c 2,37,-1
 380 -410 l 1,38,-1
 200 -410 l 1,0,-1
715 1467 m 0,39,40
 767 1467 767 1467 804 1430 c 0,41,42
 841 1392 841 1392 841 1340 c 0,43,44
 841 1287 841 1287 804 1249 c 24,45,46
 766 1212 766 1212 715 1212 c 0,47,48
 662 1212 662 1212 626 1250 c 0,49,50
 589 1289 589 1289 589 1340 c 0,51,52
 589 1389 589 1389 626 1429 c 24,53,54
 661 1467 661 1467 715 1467 c 0,39,40
EndSplineSet
Validated: 1
EndChar

StartChar: uni1E60
Encoding: 7776 7776 206
Width: 1284
Flags: W
HStem: -20 120<434.079 810.18> 1410 120<560.275 863.921> 1624 255<598.129 773.809>
VStem: 281 188<1080.8 1319.8> 560 252<1663.22 1840.81> 980 204<292.665 588.122>
DStem2: 612 1009 518 823 0.898384 -0.43921<-157.438 499.206>
LayerCount: 2
Fore
SplineSet
686 1879 m 0,0,1
 738 1879 738 1879 775 1842 c 0,2,3
 812 1804 812 1804 812 1752 c 0,4,5
 812 1699 812 1699 775 1661 c 24,6,7
 737 1624 737 1624 686 1624 c 0,8,9
 633 1624 633 1624 597 1662 c 0,10,11
 560 1701 560 1701 560 1752 c 0,12,13
 560 1801 560 1801 597 1841 c 24,14,15
 632 1879 632 1879 686 1879 c 0,0,1
617 -20 m 0,16,17
 309 -20 309 -20 100 206 c 1,18,-1
 257 293 l 1,19,20
 401 100 401 100 630 100 c 0,21,22
 824 100 824 100 919 248 c 0,23,24
 980 343 980 343 980 454 c 0,25,26
 980 597 980 597 833 669 c 2,27,-1
 518 823 l 2,28,29
 281 939 281 939 281 1149 c 0,30,31
 281 1316 281 1316 422 1430 c 0,32,33
 546 1530 546 1530 712 1530 c 0,34,35
 922 1530 922 1530 1074 1391 c 1,36,-1
 938 1290 l 1,37,38
 858 1410 858 1410 719 1410 c 0,39,40
 602 1410 602 1410 535 1346 c 0,41,42
 469 1283 469 1283 469 1198 c 0,43,44
 469 1078 469 1078 612 1009 c 2,45,-1
 905 867 l 2,46,47
 1184 732 1184 732 1184 495 c 0,48,49
 1184 313 1184 313 1057 168 c 0,50,51
 892 -20 892 -20 617 -20 c 0,16,17
EndSplineSet
Validated: 1
EndChar

StartChar: uni1E61
Encoding: 7777 7777 207
Width: 1020
Flags: W
HStem: -20 100<321.494 654.616> 1020 100<440.182 692.608> 1212 255<447.129 622.809>
VStem: 229 160<780.567 967.351> 409 252<1251.22 1428.81> 753 167<182.083 430.123>
DStem2: 485 747 416 581 0.901816 -0.43212<-120.945 390.226>
LayerCount: 2
Fore
SplineSet
535 1467 m 0,0,1
 587 1467 587 1467 624 1430 c 0,2,3
 661 1392 661 1392 661 1340 c 0,4,5
 661 1287 661 1287 624 1249 c 24,6,7
 586 1212 586 1212 535 1212 c 0,8,9
 482 1212 482 1212 446 1250 c 0,10,11
 409 1289 409 1289 409 1340 c 0,12,13
 409 1389 409 1389 446 1429 c 24,14,15
 481 1467 481 1467 535 1467 c 0,0,1
490 -20 m 0,16,17
 250 -20 250 -20 100 154 c 1,18,-1
 224 222 l 1,19,20
 319 80 319 80 483 80 c 0,21,22
 623 80 623 80 692 156 c 0,23,24
 753 223 753 223 753 316 c 0,25,26
 753 420 753 420 656 466 c 2,27,-1
 416 581 l 2,28,29
 229 671 229 671 229 816 c 0,30,31
 229 953 229 953 340 1041 c 0,32,33
 439 1120 439 1120 572 1120 c 0,34,35
 729 1120 729 1120 837 1014 c 1,36,-1
 728 933 l 1,37,38
 673 1020 673 1020 576 1020 c 0,39,40
 482 1020 482 1020 432 968 c 0,41,42
 389 923 389 923 389 870 c 0,43,44
 389 793 389 793 485 747 c 2,45,-1
 719 635 l 2,46,47
 920 539 920 539 920 354 c 0,48,49
 920 181 920 181 771 66 c 0,50,51
 659 -20 659 -20 490 -20 c 0,16,17
EndSplineSet
Validated: 1
EndChar

StartChar: uni1E6A
Encoding: 7786 7786 208
Width: 1160
Flags: W
HStem: 0 21G<480 680> 1390 120<82.9189 480 680 1140> 1624 255<495.129 670.809>
VStem: 20 10<1260 1271.9> 457 252<1663.22 1840.81> 480 200<0 1390>
LayerCount: 2
Fore
SplineSet
480 0 m 1,0,-1
 480 1390 l 1,1,-1
 204 1390 l 2,2,3
 75 1390 75 1390 30 1260 c 1,4,-1
 20 1260 l 1,5,-1
 20 1414 l 1,6,7
 68 1510 68 1510 204 1510 c 2,8,-1
 1140 1510 l 1,9,-1
 1140 1390 l 1,10,-1
 680 1390 l 1,11,-1
 680 0 l 1,12,-1
 480 0 l 1,0,-1
583 1879 m 0,13,14
 635 1879 635 1879 672 1842 c 0,15,16
 709 1804 709 1804 709 1752 c 0,17,18
 709 1699 709 1699 672 1661 c 24,19,20
 634 1624 634 1624 583 1624 c 0,21,22
 530 1624 530 1624 494 1662 c 0,23,24
 457 1701 457 1701 457 1752 c 0,25,26
 457 1801 457 1801 494 1841 c 24,27,28
 529 1879 529 1879 583 1879 c 0,13,14
EndSplineSet
Validated: 1
EndChar

StartChar: uni1E6B
Encoding: 7787 7787 209
Width: 700
Flags: W
HStem: 0 10<498.098 510> 1000 100<60 200 380 680> 1500 10<70 81.9019> 1624 255<172.129 347.809>
VStem: 134 252<1663.22 1840.81> 200 180<62.4312 1000 1100 1447.57>
LayerCount: 2
Fore
SplineSet
296 0 m 1,0,1
 200 49 200 49 200 184 c 2,2,-1
 200 1000 l 1,3,-1
 60 1000 l 1,4,-1
 60 1100 l 1,5,-1
 200 1100 l 1,6,-1
 200 1326 l 2,7,8
 200 1456 200 1456 70 1500 c 1,9,-1
 70 1510 l 1,10,-1
 284 1510 l 1,11,12
 380 1461 380 1461 380 1326 c 2,13,-1
 380 1100 l 1,14,-1
 680 1100 l 1,15,-1
 680 1000 l 1,16,-1
 380 1000 l 1,17,-1
 380 184 l 2,18,19
 380 54 380 54 510 10 c 1,20,-1
 510 0 l 1,21,-1
 296 0 l 1,0,1
260 1879 m 0,22,23
 312 1879 312 1879 349 1842 c 0,24,25
 386 1804 386 1804 386 1752 c 0,26,27
 386 1699 386 1699 349 1661 c 24,28,29
 311 1624 311 1624 260 1624 c 0,30,31
 207 1624 207 1624 171 1662 c 0,32,33
 134 1701 134 1701 134 1752 c 0,34,35
 134 1801 134 1801 171 1841 c 24,36,37
 206 1879 206 1879 260 1879 c 0,22,23
EndSplineSet
Validated: 1
EndChar

StartChar: Wgrave
Encoding: 7808 7808 210
Width: 2443
Flags: W
HStem: -20 134<557.089 905.468 1449.94 1777.56> 1490 20G<381.5 607 1169 1369 1799 2124>
VStem: 100 220<411.984 976.277> 1169 200<387.959 1510> 2163 180<572.85 1092.74>
LayerCount: 2
Fore
SplineSet
691 -20 m 0,0,1
 467 -20 467 -20 304 142 c 0,2,3
 100 345 100 345 100 658 c 0,4,5
 100 932 100 932 219 1162 c 0,6,7
 309 1336 309 1336 454 1510 c 1,8,-1
 607 1510 l 1,9,10
 481 1317 481 1317 400.5 1103.5 c 128,-1,11
 320 890 320 890 320 679 c 0,12,13
 320 442 320 442 434 276 c 0,14,15
 544 114 544 114 725 114 c 0,16,17
 915 114 915 114 1045 259 c 0,18,19
 1169 397 1169 397 1169 637 c 2,20,-1
 1169 1510 l 1,21,-1
 1369 1510 l 1,22,-1
 1369 412 l 2,23,24
 1369 266 1369 266 1411 202 c 0,25,26
 1469 114 1469 114 1584 114 c 0,27,28
 1824 114 1824 114 1979 295 c 0,29,30
 2163 510 2163 510 2163 838 c 0,31,32
 2163 1053 2163 1053 2048 1234 c 0,33,34
 1955 1380 1955 1380 1799 1510 c 1,35,-1
 2071 1510 l 1,36,37
 2177 1418 2177 1418 2249 1280 c 0,38,39
 2343 1100 2343 1100 2343 862 c 0,40,41
 2343 466 2343 466 2059 204 c 0,42,43
 1816 -20 1816 -20 1547 -20 c 0,44,45
 1323 -20 1323 -20 1234 129 c 0,46,47
 1195 194 1195 194 1183 273 c 1,48,49
 1095 134 1095 134 985 65 c 0,50,51
 847 -20 847 -20 691 -20 c 0,0,1
1183 1940 m 1,52,-1
 1357 1637 l 1,53,-1
 1262 1570 l 1,54,-1
 1039 1838 l 1,55,-1
 1183 1940 l 1,52,-1
EndSplineSet
Validated: 1
EndChar

StartChar: wgrave
Encoding: 7809 7809 211
Width: 1990
Flags: W
HStem: -20 120<457.752 759.727 1196.41 1488.84> 1080 20G<326.5 532 950 1130 1460 1738.5> 1510 20G<931.765 971.485>
VStem: 100 202<285.42 733.746> 950 180<330.797 1100> 1733 157<388.967 822.527>
LayerCount: 2
Fore
SplineSet
572 -20 m 0,0,1
 382 -20 382 -20 261 99 c 0,2,3
 100 256 100 256 100 478 c 0,4,5
 100 678 100 678 196 846 c 0,6,7
 269 973 269 973 384 1100 c 1,8,-1
 532 1100 l 1,9,10
 419 948 419 948 359 804 c 0,11,12
 302 669 302 669 302 513 c 0,13,14
 302 334 302 334 386 215 c 0,15,16
 468 100 468 100 607 100 c 128,-1,17
 746 100 746 100 838 216 c 0,18,19
 950 358 950 358 950 559 c 2,20,-1
 950 1100 l 1,21,-1
 1130 1100 l 1,22,-1
 1130 339 l 2,23,24
 1130 231 1130 231 1173 169 c 0,25,26
 1221 100 1221 100 1336 100 c 0,27,28
 1510 100 1510 100 1623 254 c 0,29,30
 1733 404 1733 404 1733 601 c 0,31,32
 1733 759 1733 759 1655 889 c 0,33,34
 1585 1004 1585 1004 1460 1100 c 1,35,-1
 1695 1100 l 1,36,37
 1782 1023 1782 1023 1835 903 c 0,38,39
 1890 780 1890 780 1890 623 c 0,40,41
 1890 357 1890 357 1691 161 c 0,42,43
 1507 -20 1507 -20 1271 -20 c 0,44,45
 1114 -20 1114 -20 1038 71 c 0,46,47
 981 139 981 139 960 230 c 1,48,49
 895 112 895 112 798 46 c 128,-1,50
 701 -20 701 -20 572 -20 c 0,0,1
960 1530 m 1,51,-1
 1134 1227 l 1,52,-1
 1039 1160 l 1,53,-1
 816 1428 l 1,54,-1
 960 1530 l 1,51,-1
EndSplineSet
Validated: 1
EndChar

StartChar: Wacute
Encoding: 7810 7810 212
Width: 2443
Flags: W
HStem: -20 134<557.089 905.468 1449.94 1777.56> 1490 20G<381.5 607 1169 1369 1799 2124>
VStem: 100 220<411.984 976.277> 1169 200<387.959 1510> 2163 180<572.85 1092.74>
LayerCount: 2
Fore
SplineSet
691 -20 m 0,0,1
 467 -20 467 -20 304 142 c 0,2,3
 100 345 100 345 100 658 c 0,4,5
 100 932 100 932 219 1162 c 0,6,7
 309 1336 309 1336 454 1510 c 1,8,-1
 607 1510 l 1,9,10
 481 1317 481 1317 400.5 1103.5 c 128,-1,11
 320 890 320 890 320 679 c 0,12,13
 320 442 320 442 434 276 c 0,14,15
 544 114 544 114 725 114 c 0,16,17
 915 114 915 114 1045 259 c 0,18,19
 1169 397 1169 397 1169 637 c 2,20,-1
 1169 1510 l 1,21,-1
 1369 1510 l 1,22,-1
 1369 412 l 2,23,24
 1369 266 1369 266 1411 202 c 0,25,26
 1469 114 1469 114 1584 114 c 0,27,28
 1824 114 1824 114 1979 295 c 0,29,30
 2163 510 2163 510 2163 838 c 0,31,32
 2163 1053 2163 1053 2048 1234 c 0,33,34
 1955 1380 1955 1380 1799 1510 c 1,35,-1
 2071 1510 l 1,36,37
 2177 1418 2177 1418 2249 1280 c 0,38,39
 2343 1100 2343 1100 2343 862 c 0,40,41
 2343 466 2343 466 2059 204 c 0,42,43
 1816 -20 1816 -20 1547 -20 c 0,44,45
 1323 -20 1323 -20 1234 129 c 0,46,47
 1195 194 1195 194 1183 273 c 1,48,49
 1095 134 1095 134 985 65 c 0,50,51
 847 -20 847 -20 691 -20 c 0,0,1
1352 1940 m 1,52,-1
 1496 1838 l 1,53,-1
 1273 1570 l 1,54,-1
 1178 1637 l 1,55,-1
 1352 1940 l 1,52,-1
EndSplineSet
Validated: 1
EndChar

StartChar: wacute
Encoding: 7811 7811 213
Width: 1990
Flags: W
HStem: -20 120<457.752 759.727 1196.41 1488.84> 1080 20G<326.5 532 950 1130 1460 1738.5> 1510 20G<1109.51 1149.24>
VStem: 100 202<285.42 733.746> 950 180<330.797 1100> 1733 157<388.967 822.527>
LayerCount: 2
Fore
SplineSet
572 -20 m 0,0,1
 382 -20 382 -20 261 99 c 0,2,3
 100 256 100 256 100 478 c 0,4,5
 100 678 100 678 196 846 c 0,6,7
 269 973 269 973 384 1100 c 1,8,-1
 532 1100 l 1,9,10
 419 948 419 948 359 804 c 0,11,12
 302 669 302 669 302 513 c 0,13,14
 302 334 302 334 386 215 c 0,15,16
 468 100 468 100 607 100 c 128,-1,17
 746 100 746 100 838 216 c 0,18,19
 950 358 950 358 950 559 c 2,20,-1
 950 1100 l 1,21,-1
 1130 1100 l 1,22,-1
 1130 339 l 2,23,24
 1130 231 1130 231 1173 169 c 0,25,26
 1221 100 1221 100 1336 100 c 0,27,28
 1510 100 1510 100 1623 254 c 0,29,30
 1733 404 1733 404 1733 601 c 0,31,32
 1733 759 1733 759 1655 889 c 0,33,34
 1585 1004 1585 1004 1460 1100 c 1,35,-1
 1695 1100 l 1,36,37
 1782 1023 1782 1023 1835 903 c 0,38,39
 1890 780 1890 780 1890 623 c 0,40,41
 1890 357 1890 357 1691 161 c 0,42,43
 1507 -20 1507 -20 1271 -20 c 0,44,45
 1114 -20 1114 -20 1038 71 c 0,46,47
 981 139 981 139 960 230 c 1,48,49
 895 112 895 112 798 46 c 128,-1,50
 701 -20 701 -20 572 -20 c 0,0,1
1121 1530 m 1,51,-1
 1265 1428 l 1,52,-1
 1042 1160 l 1,53,-1
 947 1227 l 1,54,-1
 1121 1530 l 1,51,-1
EndSplineSet
Validated: 1
EndChar

StartChar: Wdieresis
Encoding: 7812 7812 214
Width: 2443
Flags: W
HStem: -20 134<557.089 905.468 1449.94 1777.56> 1490 20G<381.5 607 1169 1369 1799 2124> 1643 217<1068.91 1219.51 1330.91 1492.88>
VStem: 100 220<411.984 976.277> 1038 214<1676.52 1826.94> 1169 200<387.959 1510> 1300 214<1676.52 1826.94> 2163 180<572.85 1092.74>
LayerCount: 2
Fore
SplineSet
691 -20 m 0,0,1
 467 -20 467 -20 304 142 c 0,2,3
 100 345 100 345 100 658 c 0,4,5
 100 932 100 932 219 1162 c 0,6,7
 309 1336 309 1336 454 1510 c 1,8,-1
 607 1510 l 1,9,10
 481 1317 481 1317 400.5 1103.5 c 128,-1,11
 320 890 320 890 320 679 c 0,12,13
 320 442 320 442 434 276 c 0,14,15
 544 114 544 114 725 114 c 0,16,17
 915 114 915 114 1045 259 c 0,18,19
 1169 397 1169 397 1169 637 c 2,20,-1
 1169 1510 l 1,21,-1
 1369 1510 l 1,22,-1
 1369 412 l 2,23,24
 1369 266 1369 266 1411 202 c 0,25,26
 1469 114 1469 114 1584 114 c 0,27,28
 1824 114 1824 114 1979 295 c 0,29,30
 2163 510 2163 510 2163 838 c 0,31,32
 2163 1053 2163 1053 2048 1234 c 0,33,34
 1955 1380 1955 1380 1799 1510 c 1,35,-1
 2071 1510 l 1,36,37
 2177 1418 2177 1418 2249 1280 c 0,38,39
 2343 1100 2343 1100 2343 862 c 0,40,41
 2343 466 2343 466 2059 204 c 0,42,43
 1816 -20 1816 -20 1547 -20 c 0,44,45
 1323 -20 1323 -20 1234 129 c 0,46,47
 1195 194 1195 194 1183 273 c 1,48,49
 1095 134 1095 134 985 65 c 0,50,51
 847 -20 847 -20 691 -20 c 0,0,1
1406 1860 m 0,52,53
 1449 1860 1449 1860 1481.5 1828.5 c 128,-1,54
 1514 1797 1514 1797 1514 1753 c 0,55,56
 1514 1706 1514 1706 1482 1675 c 0,57,58
 1450 1643 1450 1643 1406 1643 c 0,59,60
 1359 1643 1359 1643 1329.5 1675.5 c 128,-1,61
 1300 1708 1300 1708 1300 1752 c 0,62,63
 1300 1794 1300 1794 1330 1828 c 24,64,65
 1359 1860 1359 1860 1406 1860 c 0,52,53
1144 1860 m 0,66,67
 1187 1860 1187 1860 1219.5 1828.5 c 128,-1,68
 1252 1797 1252 1797 1252 1753 c 0,69,70
 1252 1708 1252 1708 1220.5 1675.5 c 128,-1,71
 1189 1643 1189 1643 1144 1643 c 0,72,73
 1096 1643 1096 1643 1068 1675 c 0,74,75
 1038 1709 1038 1709 1038 1752 c 0,76,77
 1038 1794 1038 1794 1068 1828 c 0,78,79
 1097 1860 1097 1860 1144 1860 c 0,66,67
EndSplineSet
Validated: 1
EndChar

StartChar: wdieresis
Encoding: 7813 7813 215
Width: 1990
Flags: W
HStem: -20 120<457.752 759.727 1196.41 1488.84> 1080 20G<326.5 532 950 1130 1460 1738.5> 1233 217<841.911 992.512 1103.91 1265.88>
VStem: 100 202<285.42 733.746> 811 214<1266.52 1416.94> 950 180<330.797 1100> 1073 214<1266.52 1416.94> 1733 157<388.967 822.527>
LayerCount: 2
Fore
SplineSet
572 -20 m 0,0,1
 382 -20 382 -20 261 99 c 0,2,3
 100 256 100 256 100 478 c 0,4,5
 100 678 100 678 196 846 c 0,6,7
 269 973 269 973 384 1100 c 1,8,-1
 532 1100 l 1,9,10
 419 948 419 948 359 804 c 0,11,12
 302 669 302 669 302 513 c 0,13,14
 302 334 302 334 386 215 c 0,15,16
 468 100 468 100 607 100 c 128,-1,17
 746 100 746 100 838 216 c 0,18,19
 950 358 950 358 950 559 c 2,20,-1
 950 1100 l 1,21,-1
 1130 1100 l 1,22,-1
 1130 339 l 2,23,24
 1130 231 1130 231 1173 169 c 0,25,26
 1221 100 1221 100 1336 100 c 0,27,28
 1510 100 1510 100 1623 254 c 0,29,30
 1733 404 1733 404 1733 601 c 0,31,32
 1733 759 1733 759 1655 889 c 0,33,34
 1585 1004 1585 1004 1460 1100 c 1,35,-1
 1695 1100 l 1,36,37
 1782 1023 1782 1023 1835 903 c 0,38,39
 1890 780 1890 780 1890 623 c 0,40,41
 1890 357 1890 357 1691 161 c 0,42,43
 1507 -20 1507 -20 1271 -20 c 0,44,45
 1114 -20 1114 -20 1038 71 c 0,46,47
 981 139 981 139 960 230 c 1,48,49
 895 112 895 112 798 46 c 128,-1,50
 701 -20 701 -20 572 -20 c 0,0,1
1179 1450 m 0,51,52
 1222 1450 1222 1450 1254.5 1418.5 c 128,-1,53
 1287 1387 1287 1387 1287 1343 c 0,54,55
 1287 1296 1287 1296 1255 1265 c 0,56,57
 1223 1233 1223 1233 1179 1233 c 0,58,59
 1132 1233 1132 1233 1102.5 1265.5 c 128,-1,60
 1073 1298 1073 1298 1073 1342 c 0,61,62
 1073 1384 1073 1384 1103 1418 c 24,63,64
 1132 1450 1132 1450 1179 1450 c 0,51,52
917 1450 m 0,65,66
 960 1450 960 1450 992.5 1418.5 c 128,-1,67
 1025 1387 1025 1387 1025 1343 c 0,68,69
 1025 1298 1025 1298 993.5 1265.5 c 128,-1,70
 962 1233 962 1233 917 1233 c 0,71,72
 869 1233 869 1233 841 1265 c 0,73,74
 811 1299 811 1299 811 1342 c 0,75,76
 811 1384 811 1384 841 1418 c 0,77,78
 870 1450 870 1450 917 1450 c 0,65,66
EndSplineSet
Validated: 1
EndChar

StartChar: Ygrave
Encoding: 7922 7922 216
Width: 1403
Flags: W
HStem: 0 21G<573 773> 1490 20G<5 239.276 976 1252>
VStem: 573 200<0 416> 1122 181<1001.91 1375.61>
DStem2: 229 1510 5 1510 0.460791 -0.887509<0 1100.65>
LayerCount: 2
Fore
SplineSet
573 0 m 1,0,-1
 573 416 l 1,1,-1
 5 1510 l 1,2,-1
 229 1510 l 1,3,-1
 732 531 l 1,4,5
 900 686 900 686 1001 830 c 0,6,7
 1122 1002 1122 1002 1122 1204 c 0,8,9
 1122 1366 1122 1366 976 1510 c 1,10,-1
 1201 1510 l 1,11,12
 1303 1396 1303 1396 1303 1218 c 0,13,14
 1303 1015 1303 1015 1155 826 c 0,15,16
 1011 642 1011 642 773 416 c 1,17,-1
 773 0 l 1,18,-1
 573 0 l 1,0,-1
580 1940 m 1,19,-1
 754 1637 l 1,20,-1
 659 1570 l 1,21,-1
 436 1838 l 1,22,-1
 580 1940 l 1,19,-1
EndSplineSet
Validated: 19457
EndChar

StartChar: ygrave
Encoding: 7923 7923 217
Width: 1345
Flags: W
HStem: -430 100<321.877 706.811> -20 120<458.647 769.105> 1080 20G<326.5 532 965 1145> 1510 20G<611.765 651.485>
VStem: 100 202<287.285 733.746> 965 180<-20.2031 234 338.797 1100>
LayerCount: 2
Fore
SplineSet
577 -20 m 0,0,1
 391 -20 391 -20 262 100 c 0,2,3
 100 251 100 251 100 478 c 0,4,5
 100 678 100 678 196 846 c 0,6,7
 269 973 269 973 384 1100 c 1,8,-1
 532 1100 l 1,9,10
 419 948 419 948 359 804 c 0,11,12
 302 669 302 669 302 513 c 0,13,14
 302 334 302 334 386 215 c 0,15,16
 468 100 468 100 612 100 c 128,-1,17
 756 100 756 100 848 216 c 0,18,19
 965 364 965 364 965 559 c 2,20,21
 965 1100 l 1,22,-1
 1145 1100 l 1,23,-1
 1145 213 l 2,24,25
 1145 -52 1145 -52 946 -249 c 0,26,27
 762 -430 762 -430 498 -430 c 0,28,29
 362 -430 362 -430 256 -375 c 1,30,-1
 337 -266 l 1,31,32
 414 -330 414 -330 516 -330 c 0,33,34
 705 -330 705 -330 826 -192 c 0,35,36
 964 -35 964 -35 965 234 c 1,37,38
 907 113 907 113 808 46 c 0,39,40
 710 -20 710 -20 577 -20 c 0,0,1
640 1530 m 1,41,-1
 814 1227 l 1,42,-1
 719 1160 l 1,43,-1
 496 1428 l 1,44,-1
 640 1530 l 1,41,-1
EndSplineSet
Validated: 1
EndChar

StartChar: circumflex
Encoding: 710 710 218
Width: 656
Flags: W
HStem: 1160 370
VStem: 50 556
LayerCount: 2
Fore
SplineSet
328 1530 m 1,0,-1
 606 1229 l 1,1,-1
 480 1160 l 1,2,-1
 327 1365 l 1,3,-1
 175 1160 l 1,4,-1
 50 1229 l 1,5,-1
 328 1530 l 1,0,-1
EndSplineSet
Validated: 1
EndChar

StartChar: caron
Encoding: 711 711 219
Width: 656
Flags: W
HStem: 1160 370
VStem: 50 556
LayerCount: 2
Fore
SplineSet
176 1530 m 1,0,-1
 329 1325 l 1,1,-1
 481 1530 l 1,2,-1
 606 1461 l 1,3,-1
 328 1160 l 1,4,-1
 50 1461 l 1,5,-1
 176 1530 l 1,0,-1
EndSplineSet
Validated: 1
EndChar

StartChar: uni02C9
Encoding: 713 713 220
Width: 620
Flags: W
HStem: 1280 120<50 570>
VStem: 50 520<1280 1400>
LayerCount: 2
Fore
SplineSet
50 1400 m 1,0,-1
 570 1400 l 1,1,-1
 570 1280 l 1,2,-1
 50 1280 l 1,3,-1
 50 1400 l 1,0,-1
EndSplineSet
Validated: 1
EndChar

StartChar: breve
Encoding: 728 728 221
Width: 620
Flags: W
HStem: 1220 120<128.291 494.845> 1295 142<50 192>
VStem: 50 520<1269.51 1340>
LayerCount: 2
Fore
SplineSet
50 1437 m 1,0,1
 165 1340 165 1340 313.5 1340 c 128,-1,2
 462 1340 462 1340 570 1437 c 17,3,-1
 570 1295 l 1,4,5
 462 1220 462 1220 315 1220 c 0,6,7
 144 1220 144 1220 50 1295 c 1,8,-1
 50 1437 l 1,0,1
EndSplineSet
Validated: 1
EndChar

StartChar: ring
Encoding: 730 730 222
Width: 464
Flags: W
HStem: 1160 92<161.054 302.946> 1438 92<161.054 302.946>
VStem: 50 91<1272.75 1417.25> 323 91<1272.75 1417.25>
LayerCount: 2
Fore
SplineSet
232 1438 m 128,-1,1
 194 1438 194 1438 167.5 1411 c 128,-1,2
 141 1384 141 1384 141 1345 c 128,-1,3
 141 1306 141 1306 167.5 1279 c 128,-1,4
 194 1252 194 1252 232 1252 c 128,-1,5
 270 1252 270 1252 296.5 1279 c 128,-1,6
 323 1306 323 1306 323 1345 c 128,-1,7
 323 1384 323 1384 296.5 1411 c 128,-1,0
 270 1438 270 1438 232 1438 c 128,-1,1
232 1530 m 128,-1,9
 308 1530 308 1530 361 1476 c 128,-1,10
 414 1422 414 1422 414 1345 c 128,-1,11
 414 1268 414 1268 361 1214 c 128,-1,12
 308 1160 308 1160 232 1160 c 128,-1,13
 156 1160 156 1160 103 1214 c 128,-1,14
 50 1268 50 1268 50 1345 c 128,-1,15
 50 1422 50 1422 103 1476 c 128,-1,8
 156 1530 156 1530 232 1530 c 128,-1,9
EndSplineSet
Validated: 1
EndChar

StartChar: tilde
Encoding: 732 732 223
Width: 620
Flags: W
HStem: 1220 120<329.772 545.654> 1314 120<74.3457 290.228>
VStem: 50 520
LayerCount: 2
Fore
SplineSet
190 1434 m 0,0,1
 255 1434 255 1434 326 1387 c 128,-1,2
 397 1340 397 1340 450 1340 c 0,3,4
 529 1340 529 1340 570 1422 c 1,5,-1
 570 1283 l 1,6,7
 513 1220 513 1220 430 1220 c 0,8,9
 365 1220 365 1220 294 1267 c 128,-1,10
 223 1314 223 1314 170 1314 c 0,11,12
 91 1314 91 1314 50 1232 c 1,13,-1
 50 1371 l 1,14,15
 107 1434 107 1434 190 1434 c 0,0,1
EndSplineSet
Validated: 1
EndChar

StartChar: uni1E9E
Encoding: 7838 7838 224
Width: 1499
Flags: W
HStem: -20 87<572.26 950.756> 0 21G<200 400> 798 80<911 1003.21> 1396 134<693.345 991.628> 1501 10<70 81.9019>
VStem: 200 200<0 1097.44 1216 1448.57> 804 107<878 1007.91> 1187 212<305.294 646.273>
LayerCount: 2
Fore
SplineSet
200 0 m 1,0,-1
 200 1327 l 2,1,2
 200 1457 200 1457 70 1501 c 1,3,-1
 70 1511 l 1,4,-1
 304 1511 l 1,5,6
 400 1462 400 1462 400 1327 c 2,7,-1
 400 1216 l 1,8,9
 473 1353 473 1353 610 1441.5 c 128,-1,10
 747 1530 747 1530 914 1530 c 0,11,12
 1067 1530 1067 1530 1162 1439 c 0,13,14
 1262 1343 1262 1343 1262 1202 c 1,15,16
 911 1083 911 1083 911 878 c 1,17,18
 1134 878 1134 878 1276 760 c 0,19,20
 1399 658 1399 658 1399 494 c 0,21,22
 1399 329 1399 329 1281 199 c 0,23,24
 1082 -20 1082 -20 765 -20 c 0,25,26
 558 -20 558 -20 466 119 c 1,27,-1
 474 127 l 1,28,29
 582 67 582 67 726 67 c 0,30,31
 954 67 954 67 1079 200 c 0,32,33
 1187 315 1187 315 1187 473 c 0,34,35
 1187 617 1187 617 1102 695 c 0,36,37
 990 798 990 798 804 798 c 1,38,39
 804 1106 804 1106 1060 1264 c 1,40,41
 1046 1301 1046 1301 1018 1330 c 0,42,43
 954 1396 954 1396 835 1396 c 0,44,45
 661 1396 661 1396 539 1251 c 0,46,47
 400 1086 400 1086 400 873 c 2,48,-1
 400 0 l 1,49,-1
 200 0 l 1,0,-1
EndSplineSet
Validated: 1
EndChar

StartChar: uni203D
Encoding: 8253 8253 225
Width: 1344
Flags: W
HStem: -20 255<539.129 714.809> 1105 21G<230.438 284> 1410 120<478.239 825.265>
VStem: 501 252<19.2217 196.809> 969 225<869.013 1256.33>
LayerCount: 2
Fore
SplineSet
707 1530 m 0,0,1
 926 1530 926 1530 1067 1391 c 0,2,3
 1194 1266 1194 1266 1194 1063 c 0,4,5
 1194 878 1194 878 1047 721 c 2,6,-1
 703 353 l 1,7,-1
 572 353 l 1,8,-1
 527 1160 l 1,9,-1
 727 1160 l 1,10,-1
 691 512 l 1,11,-1
 841 713 l 2,12,13
 969 884 969 884 969 1060 c 0,14,15
 969 1214 969 1214 887 1312 c 128,-1,16
 805 1410 805 1410 661 1410 c 0,17,18
 496 1410 496 1410 377 1294 c 0,19,20
 301 1220 301 1220 267 1105 c 1,21,-1
 150 1169 l 1,22,23
 194 1244 194 1244 229 1289 c 0,24,25
 415 1530 415 1530 707 1530 c 0,0,1
627 -20 m 0,26,27
 574 -20 574 -20 538 18 c 0,28,29
 501 57 501 57 501 108 c 0,30,31
 501 157 501 157 538 197 c 0,32,33
 573 235 573 235 627 235 c 0,34,35
 679 235 679 235 716 198 c 0,36,37
 753 160 753 160 753 108 c 0,38,39
 753 55 753 55 716 17 c 0,40,41
 678 -20 678 -20 627 -20 c 0,26,27
EndSplineSet
Validated: 1
EndChar

StartChar: afii61352
Encoding: 8470 8470 226
Width: 2310
Flags: W
HStem: 0 120<1550 2160> 182 61<1756.18 1918.4> 702 61<1791.21 1952.64> 1396 134<691.77 1049.71> 1501 10<70 81.9019>
VStem: 200 200<0 1087.65 1216 1448.57> 1294 220<532.895 1104.28> 1550 140<298.402 599.32> 2020 140<345.981 646.839>
LayerCount: 2
Fore
SplineSet
200 0 m 1,0,-1
 200 1327 l 2,1,2
 200 1457 200 1457 70 1501 c 1,3,-1
 70 1511 l 1,4,-1
 304 1511 l 1,5,6
 400 1462 400 1462 400 1327 c 2,7,-1
 400 1216 l 1,8,9
 484 1354 484 1354 616 1444 c 0,10,11
 742 1530 742 1530 908 1530 c 0,12,13
 1147 1530 1147 1530 1310 1368 c 0,14,15
 1514 1165 1514 1165 1514 852 c 0,16,17
 1514 574 1514 574 1395 348 c 0,18,19
 1305 174 1305 174 1160 0 c 1,20,-1
 1007 0 l 1,21,22
 1133 193 1133 193 1214 407 c 0,23,24
 1294 620 1294 620 1294 831 c 0,25,26
 1294 1077 1294 1077 1180 1234 c 0,27,28
 1061 1396 1061 1396 877 1396 c 0,29,30
 674 1396 674 1396 549 1251 c 0,31,32
 400 1078 400 1078 400 873 c 2,33,-1
 400 0 l 1,34,-1
 200 0 l 1,0,-1
1550 0 m 1,35,-1
 1550 120 l 1,36,-1
 2160 120 l 1,37,-1
 2160 0 l 1,38,-1
 1550 0 l 1,35,-1
1892 763 m 24,39,40
 2018 763 2018 763 2090 687 c 0,41,42
 2160 614 2160 614 2160 495 c 0,43,44
 2160 377 2160 377 2061 280 c 0,45,46
 1960 182 1960 182 1816 182 c 24,47,48
 1691 182 1691 182 1619 259 c 0,49,50
 1550 333 1550 333 1550 451 c 128,-1,51
 1550 569 1550 569 1649 665 c 0,52,53
 1750 763 1750 763 1892 763 c 24,39,40
1882 702 m 0,54,55
 1807 702 1807 702 1754 637 c 24,56,57
 1690 559 1690 559 1690 455 c 0,58,59
 1690 353 1690 353 1732 299 c 0,60,61
 1775 243 1775 243 1828 243 c 0,62,63
 1903 243 1903 243 1956 308 c 24,64,65
 2020 386 2020 386 2020 491 c 0,66,67
 2020 595 2020 595 1980 645 c 0,68,69
 1934 702 1934 702 1882 702 c 0,54,55
EndSplineSet
Validated: 1
EndChar

StartChar: uni2117
Encoding: 8471 8471 227
Width: 1401
Flags: W
HStem: 386 55<534.73 857.893> 760 54<606.785 798.586> 1275 79<647.349 863.328> 1475 55<542.001 858.032>
VStem: 150 60<779.952 1141.2> 408 140<579 1177.29> 915 151<925.906 1226.81> 1190 61<771.255 1146.12>
LayerCount: 2
Fore
SplineSet
701 1530 m 0,0,1
 943 1530 943 1530 1099 1357 c 0,2,3
 1251 1188 1251 1188 1251 953 c 0,4,5
 1251 701 1251 701 1090 549 c 0,6,7
 919 386 919 386 699 386 c 0,8,9
 476 386 476 386 311 549 c 0,10,11
 150 708 150 708 150 953 c 0,12,13
 150 1197 150 1197 308 1362 c 0,14,15
 469 1530 469 1530 701 1530 c 0,0,1
374 1346 m 1,16,-1
 490 1346 l 1,17,18
 544 1319 544 1319 548 1249 c 1,19,20
 639 1354 639 1354 778.5 1354 c 128,-1,21
 918 1354 918 1354 992 1284 c 128,-1,22
 1066 1214 1066 1214 1066 1101 c 0,23,24
 1066 936 1066 936 943 833 c 0,25,26
 856 760 856 760 725 760 c 0,27,28
 627 760 627 760 563 817 c 1,29,-1
 581 838 l 1,30,31
 630 814 630 814 707 814 c 128,-1,32
 784 814 784 814 843 877 c 0,33,34
 915 953 915 953 915 1094 c 0,35,36
 915 1179 915 1179 872 1227 c 128,-1,37
 829 1275 829 1275 754.5 1275 c 128,-1,38
 680 1275 680 1275 617 1209 c 0,39,40
 548 1135 548 1135 548 1021 c 2,41,-1
 548 579 l 1,42,-1
 408 579 l 1,43,-1
 408 1236 l 2,44,45
 408 1299 408 1299 356 1329 c 1,46,47
 210 1183 210 1183 210 953 c 0,48,49
 210 751 210 751 354 591 c 0,50,51
 489 441 489 441 701 441 c 0,52,53
 898 441 898 441 1047 591 c 0,54,55
 1190 736 1190 736 1190 953 c 0,56,57
 1190 1188 1190 1188 1049 1327 c 0,58,59
 899 1475 899 1475 699 1475 c 0,60,61
 514 1475 514 1475 374 1346 c 1,16,-1
EndSplineSet
Validated: 1
EndChar

StartChar: integral
Encoding: 8747 8747 228
Width: 849
Flags: W
HStem: -430 120<20 203.225> 1640 120<645.775 829>
VStem: 327 195<-188.125 1518.12>
LayerCount: 2
Fore
SplineSet
20 -430 m 1,0,-1
 20 -310 l 1,1,2
 327 -310 327 -310 327 0 c 2,3,-1
 327 1330 l 2,4,5
 327 1760 327 1760 829 1760 c 1,6,-1
 829 1640 l 1,7,8
 522 1640 522 1640 522 1330 c 2,9,-1
 522 0 l 2,10,11
 522 -430 522 -430 20 -430 c 1,0,-1
EndSplineSet
Validated: 1
EndChar

StartChar: Aringacute
Encoding: 506 506 229
Width: 1537
Flags: W
HStem: 0 21G<5 144.649 1304.38 1532> 696 120<489 961> 1362 148<659 878> 1570 92<569.054 710.946> 1848 92<569.054 710.946>
VStem: 458 91<1682.75 1827.25> 731 91<1682.75 1827.25>
DStem2: 5 0 136 0 0.397437 0.91763<52.0642 810.363 941.145 1535.97> 878 1510 725 1362 0.397437 -0.91763<75.0013 669.822 800.604 1558.51>
LayerCount: 2
Fore
SplineSet
640 1848 m 128,-1,1
 602 1848 602 1848 575.5 1821 c 128,-1,2
 549 1794 549 1794 549 1755 c 128,-1,3
 549 1716 549 1716 575.5 1689 c 128,-1,4
 602 1662 602 1662 640 1662 c 128,-1,5
 678 1662 678 1662 704.5 1689 c 128,-1,6
 731 1716 731 1716 731 1755 c 128,-1,7
 731 1794 731 1794 704.5 1821 c 128,-1,0
 678 1848 678 1848 640 1848 c 128,-1,1
640 1940 m 128,-1,9
 716 1940 716 1940 769 1886 c 128,-1,10
 822 1832 822 1832 822 1755 c 128,-1,11
 822 1678 822 1678 769 1624 c 128,-1,12
 716 1570 716 1570 640 1570 c 128,-1,13
 564 1570 564 1570 511 1624 c 128,-1,14
 458 1678 458 1678 458 1755 c 128,-1,15
 458 1832 458 1832 511 1886 c 128,-1,8
 564 1940 564 1940 640 1940 c 128,-1,9
1011 1940 m 1,16,-1
 1155 1838 l 1,17,-1
 932 1570 l 1,18,-1
 837 1637 l 1,19,-1
 1011 1940 l 1,16,-1
5 0 m 1,20,-1
 659 1510 l 1,21,-1
 878 1510 l 1,22,-1
 1532 0 l 1,23,-1
 1313 0 l 1,24,-1
 1013 696 l 1,25,-1
 437 696 l 1,26,-1
 136 0 l 1,27,-1
 5 0 l 1,20,-1
961 816 m 1,28,-1
 725 1362 l 1,29,-1
 489 816 l 1,30,-1
 961 816 l 1,28,-1
EndSplineSet
Validated: 1
EndChar

